<svg width="280" height="276" viewBox="0 30 270 276" fill="none" xmlns="http://www.w3.org/2000/svg">
<path d="M241.431 106.098C255.628 152.849 215.139 202.01 170.515 216.176C125.596 230.436 65.194 212.822 49.7534 168.186C33.5897 121.459 74.3761 67.3162 122.823 53.5645C167.336 40.9297 227.377 59.8188 241.431 106.098Z" fill="#AD4328"/>
<path opacity="0.54" d="M241.431 106.098C255.628 152.849 215.139 202.01 170.515 216.176C125.596 230.436 65.194 212.822 49.7534 168.186C33.5897 121.459 74.3761 67.3162 122.823 53.5645C167.336 40.9297 227.377 59.8188 241.431 106.098Z" fill="white"/>
<path d="M176.413 223.14C176.537 223.747 176.622 224.688 176.149 225.533C175.628 226.464 174.758 226.694 172.275 227.499C168.764 228.637 167.843 228.967 166.353 228.946C165.467 228.934 163.959 228.875 163.72 228.157C163.528 227.577 164.206 226.692 165.344 225.963C167.213 225.022 169.752 224.081 171.621 223.14" fill="#0E538C"/>
<path d="M176.178 223.111H171.88L169.532 168.719H178.526C178.732 175.809 178.713 183.37 178.376 191.348C177.98 200.702 177.196 215.017 176.178 223.111Z" fill="#F4B99F"/>
<path d="M188.352 223.111H184.053L181.706 168.719H190.7C190.906 175.809 190.887 183.37 190.55 191.348C190.154 200.702 189.37 215.017 188.352 223.111Z" fill="#F4B99F"/>
<path d="M165.891 71.5939C165.562 71.9824 163.038 75.0437 163.112 79.1849C163.173 82.6779 165.045 87.4883 164.554 90.2333C164.255 91.9028 163.843 92.3076 163.015 94.4827C162.042 97.0394 159.555 103.576 160.804 108.364C162.37 114.369 169.975 118.251 176.091 119.035C185.919 120.293 196.846 114.179 197.531 107.892C198.124 102.447 190.617 100.698 189.935 91.7441C189.642 87.8911 190.901 86.4896 190.031 81.451C189.692 79.4854 189.112 75.5958 186.57 72.4801C183.054 68.1704 177.619 67.5096 175.668 67.3871C175.501 67.3766 175.34 67.3649 175.113 67.3605C171.551 67.2886 168.043 69.0568 165.891 71.5939Z" fill="#0E538C"/>
<path d="M167.741 101.837C165.569 101.585 163.648 103.251 163.59 105.437L162.94 129.766C162.915 130.702 163.804 131.533 164.976 131.669C166.186 131.809 167.264 131.159 167.406 130.203L170.996 106.085C171.306 104.003 169.831 102.079 167.741 101.837Z" fill="#F4B99F"/>
<path d="M163.86 127.853L145.82 143.655L147.424 145.778L166.655 131.439C167.338 130.929 167.276 129.698 166.516 128.693C165.733 127.656 164.522 127.273 163.86 127.853Z" fill="#F4B99F"/>
<path d="M172.925 90.9725L173.605 98.8169H181.988L182.669 81.6256L172.925 90.9725Z" fill="#F4B99F"/>
<path d="M182.023 97.9457C190.465 100.208 194.132 103.397 194.132 103.397C179.179 111.655 164.379 103.397 164.379 103.397C166.383 101.58 173.475 97.9457 173.475 97.9457H182.023Z" fill="#F4B99F"/>
<path d="M165.129 116.126C166.21 118.971 167.508 119.07 169.13 122.626C170.026 124.593 170.437 126.334 170.642 127.455C177.004 127.455 183.367 127.455 189.729 127.455C189.628 125.45 189.631 123.276 189.799 120.96C190.318 113.773 192.228 107.811 194.133 103.396C192.904 102.558 191.452 101.675 189.777 100.835C188.029 99.96 186.386 99.3076 184.93 98.8169C184.93 98.8169 177.635 106.014 171.82 98.8169C171.82 98.8169 166.789 100.938 165.539 102.506C165.162 103.801 164.733 105.621 164.537 107.831C164.289 110.617 164.052 113.289 165.129 116.126Z" fill="#AD4328"/>
<path d="M170.642 127.455C170.642 127.455 164.129 166.397 155.128 183.314C155.128 183.314 162.153 186.506 170.642 183.314C170.642 183.314 184.881 188.741 194.132 182.995C194.132 182.995 204.634 183.314 208.384 180.441C208.384 180.441 201.823 156.355 189.729 127.455H170.642V127.455Z" fill="#0E538C"/>
<path d="M145.966 143.6C145.966 143.6 142.964 144.216 141.664 146.986C140.364 149.755 143.196 149.002 144.27 147.061C145.344 145.12 147.494 147.345 148.13 145.322C148.13 145.322 148.271 143.929 145.966 143.6Z" fill="#F4B99F"/>
<path d="M120.615 228.307C122.367 228.307 123.788 226.886 123.788 225.134C123.788 223.381 122.367 221.96 120.615 221.96C118.862 221.96 117.441 223.381 117.441 225.134C117.441 226.886 118.862 228.307 120.615 228.307Z" fill="#AD4328"/>
<path d="M120.615 228.307C122.367 228.307 123.788 226.886 123.788 225.134C123.788 223.381 122.367 221.96 120.615 221.96C118.862 221.96 117.441 223.381 117.441 225.134C117.441 226.886 118.862 228.307 120.615 228.307Z" fill="#AD4328"/>
<path opacity="0.1" d="M120.615 227.378C121.854 227.378 122.859 226.373 122.859 225.134C122.859 223.894 121.854 222.89 120.615 222.89C119.376 222.89 118.371 223.894 118.371 225.134C118.371 226.373 119.376 227.378 120.615 227.378Z" fill="black"/>
<path opacity="0.11" d="M120.615 228.307C122.367 228.307 123.788 226.886 123.788 225.134C123.788 223.381 122.367 221.96 120.615 221.96C118.862 221.96 117.441 223.381 117.441 225.134C117.441 226.886 118.862 228.307 120.615 228.307Z" fill="black"/>
<path d="M92.9248 228.307C94.6775 228.307 96.0984 226.886 96.0984 225.134C96.0984 223.381 94.6775 221.96 92.9248 221.96C91.1721 221.96 89.7512 223.381 89.7512 225.134C89.7512 226.886 91.1721 228.307 92.9248 228.307Z" fill="#AD4328"/>
<path d="M92.9248 228.307C94.6775 228.307 96.0984 226.886 96.0984 225.134C96.0984 223.381 94.6775 221.96 92.9248 221.96C91.1721 221.96 89.7512 223.381 89.7512 225.134C89.7512 226.886 91.1721 228.307 92.9248 228.307Z" fill="#AD4328"/>
<path opacity="0.1" d="M92.9247 227.378C94.164 227.378 95.1686 226.373 95.1686 225.134C95.1686 223.894 94.164 222.89 92.9247 222.89C91.6853 222.89 90.6807 223.894 90.6807 225.134C90.6807 226.373 91.6853 227.378 92.9247 227.378Z" fill="black"/>
<path opacity="0.11" d="M92.9248 228.307C94.6775 228.307 96.0984 226.886 96.0984 225.134C96.0984 223.381 94.6775 221.96 92.9248 221.96C91.1721 221.96 89.7512 223.381 89.7512 225.134C89.7512 226.886 91.1721 228.307 92.9248 228.307Z" fill="black"/>
<path d="M147.349 228.307C149.102 228.307 150.523 226.886 150.523 225.134C150.523 223.381 149.102 221.96 147.349 221.96C145.597 221.96 144.176 223.381 144.176 225.134C144.176 226.886 145.597 228.307 147.349 228.307Z" fill="#AD4328"/>
<path d="M121.236 198.627C123.786 192.836 126.336 187.044 128.886 181.253C132.929 172.071 136.972 162.889 141.015 153.706C141.949 151.586 142.882 149.465 143.816 147.345C143.609 147.464 143.402 147.582 143.195 147.701C150.506 147.701 157.818 147.701 165.129 147.701C166.177 147.701 167.224 147.701 168.272 147.701C168.04 147.398 167.809 147.094 167.578 146.791C165.433 152.559 163.288 158.328 161.143 164.097C157.721 173.299 154.299 182.501 150.877 191.704C150.088 193.827 149.298 195.95 148.509 198.073C148.74 197.897 148.971 197.721 149.203 197.545C140.854 197.545 132.505 197.545 124.157 197.545C122.976 197.545 121.796 197.545 120.615 197.545C119.689 197.545 119.688 198.983 120.615 198.983C128.963 198.983 137.312 198.983 145.661 198.983C146.841 198.983 148.022 198.983 149.203 198.983C149.542 198.983 149.784 198.756 149.896 198.455C152.041 192.686 154.186 186.918 156.331 181.149C159.753 171.947 163.175 162.744 166.597 153.542C167.386 151.419 168.176 149.296 168.965 147.173C169.131 146.727 168.706 146.263 168.272 146.263C160.96 146.263 153.649 146.263 146.338 146.263C145.29 146.263 144.243 146.263 143.195 146.263C142.964 146.263 142.672 146.395 142.574 146.619C140.024 152.41 137.474 158.201 134.924 163.993C130.881 173.175 126.838 182.357 122.795 191.539C121.861 193.66 120.927 195.78 119.993 197.901C119.624 198.74 120.863 199.473 121.236 198.627Z" fill="#AD4328"/>
<path d="M148.995 221.241C140.736 221.241 132.478 221.241 124.218 221.241C123.017 221.241 121.816 221.241 120.615 221.241C120.854 221.481 121.094 221.721 121.334 221.961C121.334 214.158 121.334 206.355 121.334 198.552C121.094 198.792 120.854 199.031 120.615 199.271C128.874 199.271 137.133 199.271 145.392 199.271C146.593 199.271 147.794 199.271 148.995 199.271C148.756 199.031 148.516 198.792 148.276 198.552C148.276 206.355 148.276 214.158 148.276 221.961C148.276 222.886 149.715 222.888 149.715 221.961C149.715 214.158 149.715 206.355 149.715 198.552C149.715 198.163 149.385 197.833 148.995 197.833C140.736 197.833 132.477 197.833 124.218 197.833C123.017 197.833 121.816 197.833 120.614 197.833C120.226 197.833 119.895 198.162 119.895 198.552C119.895 206.355 119.895 214.158 119.895 221.961C119.895 222.349 120.224 222.68 120.614 222.68C128.873 222.68 137.132 222.68 145.391 222.68C146.593 222.68 147.794 222.68 148.995 222.68C149.921 222.68 149.923 221.241 148.995 221.241Z" fill="#AD4328"/>
<path d="M148.995 221.529C141.966 221.529 134.937 221.529 127.907 221.529C116.757 221.529 105.608 221.529 94.4579 221.529C91.8868 221.529 89.3157 221.529 86.7446 221.529C85.819 221.529 85.8174 222.967 86.7446 222.967C93.774 222.967 100.803 222.967 107.833 222.967C118.983 222.967 130.132 222.967 141.282 222.967C143.853 222.967 146.424 222.967 148.995 222.967C149.921 222.967 149.923 221.529 148.995 221.529Z" fill="#AD4328"/>
<path d="M135.298 163.543C128.198 163.543 121.098 163.543 113.998 163.543C102.729 163.543 91.46 163.543 80.1912 163.543C77.5841 163.543 74.9771 163.543 72.3703 163.543C71.8112 163.543 71.4925 164.15 71.7492 164.625C77.1112 174.551 82.4734 184.477 87.8354 194.403C88.5961 195.811 89.3565 197.219 90.1172 198.627C90.2364 198.848 90.4914 198.983 90.7383 198.983C99.1836 198.983 107.629 198.983 116.074 198.983C122.939 198.983 129.803 198.983 136.667 198.983C140.681 198.983 144.694 198.983 148.708 198.983C149.052 198.983 149.284 198.755 149.402 198.455C153.29 188.524 157.179 178.594 161.068 168.663C161.617 167.26 162.166 165.857 162.716 164.454C162.89 164.009 162.45 163.543 162.022 163.543C154.231 163.543 146.44 163.543 138.649 163.543C137.532 163.543 136.415 163.543 135.298 163.543C134.373 163.543 134.371 164.981 135.298 164.981C143.089 164.981 150.88 164.981 158.671 164.981C159.788 164.981 160.905 164.981 162.022 164.981C161.791 164.678 161.559 164.374 161.328 164.071C157.439 174.002 153.551 183.932 149.662 193.863C149.113 195.266 148.563 196.669 148.014 198.072C148.245 197.897 148.476 197.72 148.708 197.544C140.256 197.544 131.804 197.544 123.352 197.544C116.37 197.544 109.387 197.544 102.404 197.544C98.5153 197.544 94.6268 197.544 90.7381 197.544C90.945 197.663 91.1522 197.782 91.3592 197.901C85.9972 187.975 80.635 178.049 75.273 168.122C74.5123 166.715 73.7519 165.307 72.9912 163.899C72.7842 164.259 72.577 164.62 72.3701 164.981C79.4702 164.981 86.5703 164.981 93.6706 164.981C104.939 164.981 116.209 164.981 127.477 164.981C130.084 164.981 132.691 164.981 135.298 164.981C136.224 164.981 136.226 163.543 135.298 163.543Z" fill="#AD4328"/>
<path d="M80.1015 164.534C85.4635 174.46 90.8257 184.386 96.1877 194.312C96.9484 195.72 97.7088 197.128 98.4695 198.536C98.7996 199.147 99.7316 198.603 99.4012 197.992C94.0392 188.066 88.6769 178.14 83.3149 168.213C82.5543 166.805 81.7938 165.398 81.0332 163.99C80.703 163.379 79.7713 163.923 80.1015 164.534Z" fill="#AD4328"/>
<path d="M90.9411 164.534C96.3031 174.46 101.665 184.386 107.027 194.312C107.788 195.72 108.548 197.128 109.309 198.536C109.639 199.147 110.571 198.603 110.241 197.992C104.879 188.066 99.5166 178.14 94.1546 168.213C93.3939 166.805 92.6335 165.398 91.8728 163.99C91.5424 163.379 90.6107 163.923 90.9411 164.534Z" fill="#AD4328"/>
<path d="M100.125 164.534C105.487 174.46 110.849 184.386 116.211 194.312C116.972 195.72 117.733 197.128 118.493 198.536C118.823 199.147 119.755 198.603 119.425 197.992C114.063 188.066 108.701 178.14 103.339 168.213C102.578 166.805 101.818 165.398 101.057 163.99C100.727 163.379 99.7948 163.923 100.125 164.534Z" fill="#AD4328"/>
<path d="M156.067 163.99C150.705 173.916 145.343 183.842 139.981 193.768C139.22 195.176 138.46 196.584 137.699 197.992C137.369 198.603 138.3 199.148 138.631 198.536C143.993 188.61 149.355 178.684 154.717 168.758C155.478 167.35 156.238 165.942 156.999 164.534C157.329 163.923 156.397 163.378 156.067 163.99Z" fill="#AD4328"/>
<path d="M145.455 163.99C140.093 173.916 134.731 183.842 129.369 193.768C128.608 195.176 127.848 196.584 127.087 197.992C126.757 198.603 127.688 199.148 128.019 198.536C133.381 188.61 138.743 178.684 144.105 168.758C144.866 167.35 145.626 165.942 146.387 164.534C146.717 163.923 145.786 163.378 145.455 163.99Z" fill="#AD4328"/>
<path d="M121.962 163.99C116.6 173.916 111.238 183.842 105.876 193.768C105.115 195.176 104.355 196.584 103.594 197.992C103.264 198.603 104.195 199.148 104.526 198.536C109.888 188.61 115.25 178.684 120.612 168.758C121.373 167.35 122.133 165.942 122.894 164.534C123.224 163.923 122.293 163.378 121.962 163.99Z" fill="#AD4328"/>
<path d="M124.627 164.262C124.627 174.202 124.627 184.142 124.627 194.082C124.627 195.476 124.627 196.87 124.627 198.264C124.627 198.958 125.706 198.959 125.706 198.264C125.706 188.324 125.706 178.384 125.706 168.444C125.706 167.05 125.706 165.656 125.706 164.262C125.706 163.568 124.627 163.567 124.627 164.262Z" fill="#AD4328"/>
<path d="M83.202 184.416C93.38 184.416 103.558 184.416 113.736 184.416C117.586 184.416 121.449 184.318 125.298 184.416C129.364 184.519 133.439 184.867 137.5 185.093C142.884 185.393 148.269 185.694 153.654 185.994C154.116 186.019 154.115 185.3 153.654 185.274C144.248 184.75 134.827 183.991 125.412 183.7C115.673 183.399 105.879 183.696 96.1354 183.696C91.8243 183.696 87.513 183.696 83.202 183.696C82.739 183.696 82.7383 184.416 83.202 184.416Z" fill="#AD4328"/>
<path d="M78.8111 176.544C90.0013 176.544 101.191 176.544 112.381 176.544C116.68 176.544 120.994 176.438 125.292 176.544C129.784 176.655 134.285 177.043 138.771 177.293C144.672 177.622 150.574 177.951 156.475 178.28C156.938 178.305 156.936 177.586 156.475 177.56C146.133 176.984 135.774 176.153 125.421 175.829C121.884 175.718 118.326 175.825 114.787 175.825C107.514 175.825 100.24 175.825 92.9669 175.825C88.2482 175.825 83.5298 175.825 78.8111 175.825C78.3482 175.825 78.3475 176.544 78.8111 176.544Z" fill="#AD4328"/>
<path d="M147.349 228.307C149.102 228.307 150.523 226.886 150.523 225.134C150.523 223.381 149.102 221.96 147.349 221.96C145.597 221.96 144.176 223.381 144.176 225.134C144.176 226.886 145.597 228.307 147.349 228.307Z" fill="#AD4328"/>
<path opacity="0.1" d="M147.349 227.378C148.589 227.378 149.593 226.373 149.593 225.134C149.593 223.894 148.589 222.89 147.349 222.89C146.11 222.89 145.105 223.894 145.105 225.134C145.105 226.373 146.11 227.378 147.349 227.378Z" fill="black"/>
<path d="M104.9 228.307C106.653 228.307 108.074 226.886 108.074 225.134C108.074 223.381 106.653 221.96 104.9 221.96C103.147 221.96 101.727 223.381 101.727 225.134C101.727 226.886 103.147 228.307 104.9 228.307Z" fill="#AD4328"/>
<path d="M104.9 228.307C106.653 228.307 108.074 226.886 108.074 225.134C108.074 223.381 106.653 221.96 104.9 221.96C103.147 221.96 101.727 223.381 101.727 225.134C101.727 226.886 103.147 228.307 104.9 228.307Z" fill="#AD4328"/>
<path opacity="0.1" d="M104.9 227.378C106.14 227.378 107.144 226.373 107.144 225.134C107.144 223.894 106.14 222.89 104.9 222.89C103.661 222.89 102.656 223.894 102.656 225.134C102.656 226.373 103.661 227.378 104.9 227.378Z" fill="black"/>
<path d="M171.621 223.14C171.621 223.14 168.975 224.379 166.906 226.012C166.63 226.23 166.721 226.678 167.064 226.756C168.197 227.017 170.89 226.868 176.413 223.14C175.797 222.996 174.997 222.867 174.059 222.864C173.083 222.86 172.253 222.992 171.621 223.14Z" fill="#F4B99F"/>
<path d="M188.828 223.14C188.952 223.747 189.037 224.688 188.564 225.533C188.043 226.464 187.173 226.694 184.69 227.499C181.179 228.637 180.258 228.967 178.768 228.946C177.882 228.934 176.374 228.875 176.135 228.157C175.943 227.577 176.621 226.692 177.759 225.963C179.628 225.022 182.167 224.081 184.036 223.14" fill="#0E538C"/>
<path d="M184.036 223.14C184.036 223.14 181.39 224.379 179.321 226.012C179.045 226.23 179.136 226.678 179.479 226.757C180.612 227.017 183.305 226.869 188.828 223.14C188.245 223.002 187.513 222.883 186.667 222.864C185.609 222.84 184.711 222.981 184.036 223.14Z" fill="#F4B99F"/>
<path d="M191.573 101.803C189.263 101.536 187.222 103.306 187.16 105.63L186.47 131.491C186.443 132.486 187.388 133.37 188.633 133.514C189.92 133.663 191.066 132.972 191.217 131.956L195.033 106.319C195.362 104.106 193.795 102.061 191.573 101.803Z" fill="#F4B99F"/>
<path d="M187.448 129.458L168.271 146.255L169.976 148.511L190.419 133.269C191.144 132.728 191.078 131.419 190.271 130.351C189.438 129.248 188.151 128.841 187.448 129.458Z" fill="#F4B99F"/>
<path d="M168.367 145.78C168.367 145.78 164.82 145.604 162.56 148.338C160.3 151.071 163.697 151.043 165.463 149.174C167.23 147.305 169.001 150.424 170.299 148.338C170.299 148.338 170.859 146.815 168.367 145.78Z" fill="#F4B99F"/>
<path d="M173.239 94.6003C173.953 94.5847 174.977 94.5166 176.184 94.2713C177.312 94.042 178.351 93.8308 179.366 93.2444C179.961 92.9003 181.39 91.9408 182.349 89.6926C182.103 90.7272 181.711 91.5131 181.39 92.0435C181.062 92.5864 179.96 94.2632 177.842 95.2035C177.133 95.518 176.444 95.8239 175.511 95.7215C174.34 95.5927 173.549 94.9041 173.239 94.6003Z" fill="#E5A691"/>
<path d="M184.289 80.5371C184.344 80.0454 184.82 74.9756 180.598 71.8634C179.941 71.3794 176.857 69.2349 172.888 69.8796C172.112 70.0056 170.417 70.3084 168.874 71.5365C163.942 75.4639 166.125 84.4606 166.497 85.8792C167.336 89.0747 168.682 90.7816 169.066 91.248C169.869 92.224 172.34 95.2245 175.542 94.9424C176.837 94.8283 177.73 94.2235 178.794 93.5034C181.476 91.6881 182.667 89.1949 183.108 88.2476C184.555 85.1368 184.505 82.2698 184.289 80.5371Z" fill="#F4B99F"/>
<path d="M183.909 79.716C184.759 79.3312 186.28 80.3733 186.525 81.8017C186.874 83.8408 184.443 85.6167 183.563 85.1554C182.515 84.6064 182.575 80.3196 183.909 79.716Z" fill="#F4B99F"/>
<path d="M171.182 76.205C171.182 76.205 174.962 81.7049 183.126 82.4322C183.126 82.4322 182.738 80.0881 184.698 79.6959C184.698 79.6959 186.399 69.1749 175.2 68.7969C175.2 68.7969 163.925 68.1921 165.21 79.6821C165.211 79.6823 167.705 79.3043 171.182 76.205Z" fill="#0E538C"/>
<path d="M181.312 82.2141C181.312 82.2141 184.943 88.0658 182.943 93.7006C182.943 93.7006 184.922 87.2928 183.526 82.5316C182.13 77.7705 181.312 82.2141 181.312 82.2141Z" fill="#0E538C"/>
<path d="M100.292 130.202L101.727 126.443L103.162 130.202L105.785 131.289L103.162 132.377L101.727 136.136L100.292 132.377L97.6689 131.289L100.292 130.202Z" fill="#AD4328"/>
<path d="M136.34 98.1024L137.006 96.3575L137.672 98.1024L138.89 98.6071L137.672 99.112L137.006 100.857L136.34 99.112L135.123 98.6071L136.34 98.1024Z" fill="#AD4328"/>
<path d="M209.627 149.991L210.293 148.246L210.959 149.991L212.176 150.496L210.959 151L210.293 152.745L209.627 151L208.409 150.496L209.627 149.991Z" fill="#AD4328"/>
<path d="M73.1778 195.106L73.543 194.15L73.9079 195.106L74.5755 195.383L73.9079 195.66L73.543 196.616L73.1778 195.66L72.5103 195.383L73.1778 195.106Z" fill="#AD4328"/>
<path d="M71.0062 145.283L71.6591 143.572L72.312 145.283L73.5057 145.778L72.312 146.273L71.6591 147.983L71.0062 146.273L69.8125 145.778L71.0062 145.283Z" fill="#AD4328"/>
<path d="M136.977 130.795L137.63 129.084L138.283 130.795L139.476 131.289L138.283 131.785L137.63 133.495L136.977 131.785L135.783 131.289L136.977 130.795Z" fill="#AD4328"/>
<path d="M208.963 99.8484L210.293 96.3627L211.623 99.8484L214.056 100.857L211.623 101.866L210.293 105.351L208.963 101.866L206.53 100.857L208.963 99.8484Z" fill="#AD4328"/>
<path d="M217.235 127.013L217.819 125.483L218.402 127.013L219.47 127.455L218.402 127.898L217.819 129.427L217.235 127.898L216.167 127.455L217.235 127.013Z" fill="#AD4328"/>
</svg>