<svg width="62" height="62" viewBox="0 0 62 62" fill="none" xmlns="http://www.w3.org/2000/svg">
<g filter="url(#filter0_d_11_106-176563)">
<circle cx="31" cy="27" r="16" fill="white"/>
</g>
<path d="M34.7384 34.0575L34.4869 35.0856C33.7324 35.3834 33.1297 35.6101 32.6809 35.7659C32.2316 35.9222 31.7096 36 31.1148 36C30.2014 36 29.4909 35.7762 28.9842 35.3318C28.4774 34.8856 28.224 34.3201 28.224 33.6342C28.224 33.3687 28.2424 33.0955 28.2806 32.8172C28.3192 32.5386 28.3805 32.2249 28.4644 31.8741L29.4073 28.5367C29.4912 28.2171 29.5625 27.9143 29.6196 27.628C29.6775 27.3434 29.7054 27.0815 29.7054 26.8459C29.7054 26.4196 29.6172 26.1215 29.4415 25.9539C29.2658 25.7868 28.9306 25.7019 28.4329 25.7019C28.1892 25.7019 27.9386 25.7409 27.6833 25.8164C27.4267 25.8923 27.2075 25.9655 27.0234 26.0336L27.2756 25.0047C27.8933 24.7532 28.4837 24.5378 29.0485 24.3591C29.6133 24.1798 30.147 24.0901 30.6518 24.0901C31.5589 24.0901 32.2589 24.3094 32.7504 24.7478C33.242 25.1866 33.4877 25.7555 33.4877 26.4564C33.4877 26.6014 33.4715 26.857 33.4369 27.2222C33.403 27.5883 33.3399 27.9237 33.2479 28.2287L32.309 31.5528C32.2321 31.8198 32.1629 32.125 32.1027 32.4685C32.0406 32.8097 32.0109 33.0704 32.0109 33.2452C32.0109 33.6866 32.1093 33.988 32.3066 34.1482C32.5054 34.3084 32.8477 34.3881 33.3339 34.3881C33.5622 34.3881 33.8219 34.3476 34.1105 34.268C34.3983 34.1885 34.6082 34.1186 34.7384 34.0575ZM34.9765 20.102C34.9765 20.6812 34.7583 21.1758 34.3196 21.5825C33.8821 21.9907 33.3549 22.1949 32.7382 22.1949C32.1195 22.1949 31.591 21.9907 31.1485 21.5825C30.7068 21.1757 30.4854 20.6812 30.4854 20.102C30.4854 19.524 30.7068 19.0286 31.1485 18.6167C31.5902 18.2055 32.1196 18 32.7382 18C33.3547 18 33.8821 18.206 34.3196 18.6167C34.7586 19.0286 34.9765 19.5242 34.9765 20.102Z" fill="#374A59"/>
<defs>
<filter id="filter0_d_11_106-176563" x="0" y="0" width="62" height="62" filterUnits="userSpaceOnUse" color-interpolation-filters="sRGB">
<feFlood flood-opacity="0" result="BackgroundImageFix"/>
<feColorMatrix in="SourceAlpha" type="matrix" values="0 0 0 0 0 0 0 0 0 0 0 0 0 0 0 0 0 0 127 0" result="hardAlpha"/>
<feOffset dy="4"/>
<feGaussianBlur stdDeviation="7.5"/>
<feColorMatrix type="matrix" values="0 0 0 0 0 0 0 0 0 0 0 0 0 0 0 0 0 0 0.1 0"/>
<feBlend mode="normal" in2="BackgroundImageFix" result="effect1_dropShadow_11_106"/>
<feBlend mode="normal" in="SourceGraphic" in2="effect1_dropShadow_11_106" result="shape"/>
</filter>
</defs>
</svg>