<svg width="210" height="188" viewBox="0 0 210 188" fill="none" xmlns="http://www.w3.org/2000/svg">
<path d="M174.469 78.9021C176.293 95.5459 163.111 108.236 160.832 110.43C151.252 119.652 144.702 117.697 130.403 124.63C101.338 138.723 103.047 159.093 83.3393 161.956C68.0884 164.172 50.1411 154.433 44.7961 141.67C39.8516 129.865 49.0951 123.6 44.3905 109.619C39.2538 94.354 26.268 95.9771 20.0474 80.8127C14.2276 66.6252 19.2295 49.6888 26.9447 38.6179C28.5805 36.2706 41.432 18.3823 60.6193 17.9263C78.3382 17.5052 80.7257 32.4436 106.871 40.2408C126.161 45.9936 130.207 39.4565 145.82 46.7323C150.491 48.9092 172.296 59.0698 174.469 78.9021Z" fill="#C5E7FC"/>
<g opacity="0.44">
<g opacity="0.44">
<g opacity="0.44">
<path opacity="0.44" d="M182.516 164.814C182.516 165.32 182.106 165.729 181.606 165.729H166.224C165.724 165.729 165.314 165.32 165.314 164.814V158.31C165.314 157.804 165.724 157.392 166.224 157.392H181.606C182.106 157.392 182.516 157.804 182.516 158.31V164.814Z" fill="#F1F2F2"/>
</g>
<g opacity="0.44">
<path opacity="0.44" d="M164.177 164.814C164.177 165.32 163.77 165.729 163.267 165.729H147.888C147.385 165.729 146.979 165.32 146.979 164.814V158.31C146.979 157.804 147.385 157.392 147.888 157.392H163.267C163.771 157.392 164.177 157.804 164.177 158.31V164.814Z" fill="#F1F2F2"/>
</g>
<g opacity="0.44">
<path opacity="0.44" d="M145.839 164.814C145.839 165.32 145.433 165.729 144.93 165.729H129.55C129.048 165.729 128.641 165.32 128.641 164.814V158.31C128.641 157.804 129.048 157.392 129.55 157.392H144.93C145.433 157.392 145.839 157.804 145.839 158.31V164.814Z" fill="#F1F2F2"/>
</g>
<g opacity="0.44">
<path opacity="0.44" d="M127.503 164.814C127.503 165.32 127.095 165.729 126.592 165.729H111.212C110.709 165.729 110.303 165.32 110.303 164.814V158.31C110.303 157.804 110.709 157.392 111.212 157.392H126.592C127.095 157.392 127.503 157.804 127.503 158.31V164.814Z" fill="#F1F2F2"/>
</g>
<g opacity="0.44">
<path opacity="0.44" d="M109.165 164.814C109.165 165.32 108.757 165.729 108.256 165.729H92.8749C92.3733 165.729 91.9656 165.32 91.9656 164.814V158.31C91.9656 157.804 92.3735 157.392 92.8749 157.392H108.256C108.758 157.392 109.165 157.804 109.165 158.31V164.814Z" fill="#F1F2F2"/>
</g>
<g opacity="0.44">
<path opacity="0.44" d="M90.8279 164.814C90.8279 165.32 90.4198 165.729 89.9186 165.729H74.5373C74.0356 165.729 73.6279 165.32 73.6279 164.814V158.31C73.6279 157.804 74.0358 157.392 74.5373 157.392H89.9186C90.4198 157.392 90.8279 157.804 90.8279 158.31V164.814Z" fill="#F1F2F2"/>
</g>
<g opacity="0.44">
<path opacity="0.44" d="M72.4898 164.814C72.4898 165.32 72.0836 165.729 71.5805 165.729H56.1994C55.6978 165.729 55.29 165.32 55.29 164.814V158.31C55.29 157.804 55.698 157.392 56.1994 157.392H71.5805C72.0836 157.392 72.4898 157.804 72.4898 158.31V164.814Z" fill="#F1F2F2"/>
</g>
<g opacity="0.44">
<path opacity="0.44" d="M54.1524 164.814C54.1524 165.32 53.7459 165.729 53.243 165.729H37.8632C37.3605 165.729 36.9539 165.32 36.9539 164.814V158.31C36.9539 157.804 37.3605 157.392 37.8632 157.392H53.243C53.7461 157.392 54.1524 157.804 54.1524 158.31V164.814Z" fill="#F1F2F2"/>
</g>
<g opacity="0.44">
<path opacity="0.44" d="M35.8148 164.814C35.8148 165.32 35.4081 165.729 34.9054 165.729H19.5256C19.0225 165.729 18.6162 165.32 18.6162 164.814V158.31C18.6162 157.804 19.0227 157.392 19.5256 157.392H34.9054C35.4081 157.392 35.8148 157.804 35.8148 158.31V164.814Z" fill="#F1F2F2"/>
</g>
<g opacity="0.44">
<path opacity="0.44" d="M17.4772 164.814C17.4772 165.32 17.0707 165.729 16.5678 165.729H1.18843C0.685302 165.729 0.279053 165.32 0.279053 164.814V158.31C0.279053 157.804 0.685302 157.392 1.18843 157.392H16.5678C17.0709 157.392 17.4772 157.804 17.4772 158.31V164.814Z" fill="#F1F2F2"/>
</g>
<g opacity="0.44">
<path opacity="0.44" d="M182.516 145.901C182.516 146.407 182.106 146.82 181.606 146.82H166.224C165.724 146.82 165.314 146.407 165.314 145.901V139.397C165.314 138.891 165.724 138.482 166.224 138.482H181.606C182.106 138.482 182.516 138.891 182.516 139.397V145.901Z" fill="#F1F2F2"/>
</g>
<g opacity="0.44">
<path opacity="0.44" d="M164.177 145.901C164.177 146.407 163.77 146.82 163.267 146.82H147.888C147.385 146.82 146.979 146.407 146.979 145.901V139.397C146.979 138.891 147.385 138.482 147.888 138.482H163.267C163.771 138.482 164.177 138.891 164.177 139.397V145.901Z" fill="#F1F2F2"/>
</g>
<g opacity="0.44">
<path opacity="0.44" d="M145.839 145.901C145.839 146.407 145.433 146.82 144.93 146.82H129.55C129.048 146.82 128.641 146.407 128.641 145.901V139.397C128.641 138.891 129.048 138.482 129.55 138.482H144.93C145.433 138.482 145.839 138.891 145.839 139.397V145.901Z" fill="#F1F2F2"/>
</g>
<g opacity="0.44">
<path opacity="0.44" d="M127.503 145.901C127.503 146.407 127.095 146.82 126.592 146.82H111.212C110.709 146.82 110.303 146.407 110.303 145.901V139.397C110.303 138.891 110.709 138.482 111.212 138.482H126.592C127.095 138.482 127.503 138.891 127.503 139.397V145.901Z" fill="#F1F2F2"/>
</g>
<g opacity="0.44">
<path opacity="0.44" d="M109.165 145.901C109.165 146.407 108.757 146.82 108.256 146.82H92.8749C92.3733 146.82 91.9656 146.407 91.9656 145.901V139.397C91.9656 138.891 92.3735 138.482 92.8749 138.482H108.256C108.758 138.482 109.165 138.891 109.165 139.397V145.901Z" fill="#F1F2F2"/>
</g>
<g opacity="0.44">
<path opacity="0.44" d="M90.8279 145.901C90.8279 146.407 90.4198 146.82 89.9186 146.82H74.5373C74.0356 146.82 73.6279 146.407 73.6279 145.901V139.397C73.6279 138.891 74.0358 138.482 74.5373 138.482H89.9186C90.4198 138.482 90.8279 138.891 90.8279 139.397V145.901Z" fill="#F1F2F2"/>
</g>
<g opacity="0.44">
<path opacity="0.44" d="M72.4898 145.901C72.4898 146.407 72.0836 146.82 71.5805 146.82H56.1994C55.6978 146.82 55.29 146.407 55.29 145.901V139.397C55.29 138.891 55.698 138.482 56.1994 138.482H71.5805C72.0836 138.482 72.4898 138.891 72.4898 139.397V145.901Z" fill="#F1F2F2"/>
</g>
<g opacity="0.44">
<path opacity="0.44" d="M54.1524 145.901C54.1524 146.407 53.7459 146.82 53.243 146.82H37.8632C37.3605 146.82 36.9539 146.407 36.9539 145.901V139.397C36.9539 138.891 37.3605 138.482 37.8632 138.482H53.243C53.7461 138.482 54.1524 138.891 54.1524 139.397V145.901Z" fill="#F1F2F2"/>
</g>
<g opacity="0.44">
<path opacity="0.44" d="M35.8148 145.901C35.8148 146.407 35.4081 146.82 34.9054 146.82H19.5256C19.0225 146.82 18.6162 146.407 18.6162 145.901V139.397C18.6162 138.891 19.0227 138.482 19.5256 138.482H34.9054C35.4081 138.482 35.8148 138.891 35.8148 139.397V145.901Z" fill="#F1F2F2"/>
</g>
<g opacity="0.44">
<path opacity="0.44" d="M17.4772 145.901C17.4772 146.407 17.0707 146.82 16.5678 146.82H1.18843C0.685302 146.82 0.279053 146.407 0.279053 145.901V139.397C0.279053 138.891 0.685302 138.482 1.18843 138.482H16.5678C17.0709 138.482 17.4772 138.891 17.4772 139.397V145.901Z" fill="#F1F2F2"/>
</g>
<g opacity="0.44">
<path opacity="0.44" d="M182.516 126.992C182.516 127.498 182.106 127.908 181.606 127.908H166.224C165.724 127.908 165.314 127.498 165.314 126.992V120.488C165.314 119.982 165.724 119.57 166.224 119.57H181.606C182.106 119.57 182.516 119.982 182.516 120.488V126.992Z" fill="#F1F2F2"/>
</g>
<g opacity="0.44">
<path opacity="0.44" d="M164.177 126.992C164.177 127.498 163.77 127.908 163.267 127.908H147.888C147.385 127.908 146.979 127.498 146.979 126.992V120.488C146.979 119.982 147.385 119.57 147.888 119.57H163.267C163.771 119.57 164.177 119.982 164.177 120.488V126.992Z" fill="#F1F2F2"/>
</g>
<g opacity="0.44">
<path opacity="0.44" d="M145.839 126.992C145.839 127.498 145.433 127.908 144.93 127.908H129.55C129.048 127.908 128.641 127.498 128.641 126.992V120.488C128.641 119.982 129.048 119.57 129.55 119.57H144.93C145.433 119.57 145.839 119.982 145.839 120.488V126.992Z" fill="#F1F2F2"/>
</g>
<g opacity="0.44">
<path opacity="0.44" d="M127.503 126.992C127.503 127.498 127.095 127.908 126.592 127.908H111.212C110.709 127.908 110.303 127.498 110.303 126.992V120.488C110.303 119.982 110.709 119.57 111.212 119.57H126.592C127.095 119.57 127.503 119.982 127.503 120.488V126.992Z" fill="#F1F2F2"/>
</g>
<g opacity="0.44">
<path opacity="0.44" d="M109.165 126.992C109.165 127.498 108.757 127.908 108.256 127.908H92.8749C92.3733 127.908 91.9656 127.498 91.9656 126.992V120.488C91.9656 119.982 92.3735 119.57 92.8749 119.57H108.256C108.758 119.57 109.165 119.982 109.165 120.488V126.992Z" fill="#F1F2F2"/>
</g>
<g opacity="0.44">
<path opacity="0.44" d="M90.8279 126.992C90.8279 127.498 90.4198 127.908 89.9186 127.908H74.5373C74.0356 127.908 73.6279 127.498 73.6279 126.992V120.488C73.6279 119.982 74.0358 119.57 74.5373 119.57H89.9186C90.4198 119.57 90.8279 119.982 90.8279 120.488V126.992Z" fill="#F1F2F2"/>
</g>
<g opacity="0.44">
<path opacity="0.44" d="M72.4898 126.992C72.4898 127.498 72.0836 127.908 71.5805 127.908H56.1994C55.6978 127.908 55.29 127.498 55.29 126.992V120.488C55.29 119.982 55.698 119.57 56.1994 119.57H71.5805C72.0836 119.57 72.4898 119.982 72.4898 120.488V126.992Z" fill="#F1F2F2"/>
</g>
<g opacity="0.44">
<path opacity="0.44" d="M54.1524 126.992C54.1524 127.498 53.7459 127.908 53.243 127.908H37.8632C37.3605 127.908 36.9539 127.498 36.9539 126.992V120.488C36.9539 119.982 37.3605 119.57 37.8632 119.57H53.243C53.7461 119.57 54.1524 119.982 54.1524 120.488V126.992Z" fill="#F1F2F2"/>
</g>
<g opacity="0.44">
<path opacity="0.44" d="M35.8148 126.992C35.8148 127.498 35.4081 127.908 34.9054 127.908H19.5256C19.0225 127.908 18.6162 127.498 18.6162 126.992V120.488C18.6162 119.982 19.0227 119.57 19.5256 119.57H34.9054C35.4081 119.57 35.8148 119.982 35.8148 120.488V126.992Z" fill="#F1F2F2"/>
</g>
<g opacity="0.44">
<path opacity="0.44" d="M17.4772 126.992C17.4772 127.498 17.0707 127.908 16.5678 127.908H1.18843C0.685302 127.908 0.279053 127.498 0.279053 126.992V120.488C0.279053 119.982 0.685302 119.57 1.18843 119.57H16.5678C17.0709 119.57 17.4772 119.982 17.4772 120.488V126.992Z" fill="#F1F2F2"/>
</g>
<g opacity="0.44">
<path opacity="0.44" d="M182.516 108.08C182.516 108.586 182.106 108.998 181.606 108.998H166.224C165.724 108.998 165.314 108.586 165.314 108.08V101.576C165.314 101.07 165.724 100.66 166.224 100.66H181.606C182.106 100.66 182.516 101.07 182.516 101.576V108.08Z" fill="#F1F2F2"/>
</g>
<g opacity="0.44">
<path opacity="0.44" d="M164.177 108.08C164.177 108.586 163.77 108.998 163.267 108.998H147.888C147.385 108.998 146.979 108.586 146.979 108.08V101.576C146.979 101.07 147.385 100.66 147.888 100.66H163.267C163.771 100.66 164.177 101.07 164.177 101.576V108.08Z" fill="#F1F2F2"/>
</g>
<g opacity="0.44">
<path opacity="0.44" d="M145.839 108.08C145.839 108.586 145.433 108.998 144.93 108.998H129.55C129.048 108.998 128.641 108.586 128.641 108.08V101.576C128.641 101.07 129.048 100.66 129.55 100.66H144.93C145.433 100.66 145.839 101.07 145.839 101.576V108.08Z" fill="#F1F2F2"/>
</g>
<g opacity="0.44">
<path opacity="0.44" d="M127.503 108.08C127.503 108.586 127.095 108.998 126.592 108.998H111.212C110.709 108.998 110.303 108.586 110.303 108.08V101.576C110.303 101.07 110.709 100.66 111.212 100.66H126.592C127.095 100.66 127.503 101.07 127.503 101.576V108.08Z" fill="#F1F2F2"/>
</g>
<g opacity="0.44">
<path opacity="0.44" d="M109.165 108.08C109.165 108.586 108.757 108.998 108.256 108.998H92.8749C92.3733 108.998 91.9656 108.586 91.9656 108.08V101.576C91.9656 101.07 92.3735 100.66 92.8749 100.66H108.256C108.758 100.66 109.165 101.07 109.165 101.576V108.08Z" fill="#F1F2F2"/>
</g>
<g opacity="0.44">
<path opacity="0.44" d="M90.8279 108.08C90.8279 108.586 90.4198 108.998 89.9186 108.998H74.5373C74.0356 108.998 73.6279 108.586 73.6279 108.08V101.576C73.6279 101.07 74.0358 100.66 74.5373 100.66H89.9186C90.4198 100.66 90.8279 101.07 90.8279 101.576V108.08Z" fill="#F1F2F2"/>
</g>
<g opacity="0.44">
<path opacity="0.44" d="M72.4898 108.08C72.4898 108.586 72.0836 108.998 71.5805 108.998H56.1994C55.6978 108.998 55.29 108.586 55.29 108.08V101.576C55.29 101.07 55.698 100.66 56.1994 100.66H71.5805C72.0836 100.66 72.4898 101.07 72.4898 101.576V108.08Z" fill="#F1F2F2"/>
</g>
<g opacity="0.44">
<path opacity="0.44" d="M54.1524 108.08C54.1524 108.586 53.7459 108.998 53.243 108.998H37.8632C37.3605 108.998 36.9539 108.586 36.9539 108.08V101.576C36.9539 101.07 37.3605 100.66 37.8632 100.66H53.243C53.7461 100.66 54.1524 101.07 54.1524 101.576V108.08Z" fill="#F1F2F2"/>
</g>
<g opacity="0.44">
<path opacity="0.44" d="M35.8148 108.08C35.8148 108.586 35.4081 108.998 34.9054 108.998H19.5256C19.0225 108.998 18.6162 108.586 18.6162 108.08V101.576C18.6162 101.07 19.0227 100.66 19.5256 100.66H34.9054C35.4081 100.66 35.8148 101.07 35.8148 101.576V108.08Z" fill="#F1F2F2"/>
</g>
<g opacity="0.44">
<path opacity="0.44" d="M17.4772 108.08C17.4772 108.586 17.0707 108.998 16.5678 108.998H1.18843C0.685302 108.998 0.279053 108.586 0.279053 108.08V101.576C0.279053 101.07 0.685302 100.66 1.18843 100.66H16.5678C17.0709 100.66 17.4772 101.07 17.4772 101.576V108.08Z" fill="#F1F2F2"/>
</g>
<g opacity="0.44">
<path opacity="0.44" d="M182.516 89.1704C182.516 89.6764 182.106 90.0858 181.606 90.0858H166.224C165.724 90.0858 165.314 89.6764 165.314 89.1704V82.6664C165.314 82.1606 165.724 81.7483 166.224 81.7483H181.606C182.106 81.7483 182.516 82.1606 182.516 82.6664V89.1704Z" fill="#F1F2F2"/>
</g>
<g opacity="0.44">
<path opacity="0.44" d="M164.177 89.1704C164.177 89.6764 163.77 90.0858 163.267 90.0858H147.888C147.385 90.0858 146.979 89.6764 146.979 89.1704V82.6664C146.979 82.1606 147.385 81.7483 147.888 81.7483H163.267C163.771 81.7483 164.177 82.1606 164.177 82.6664V89.1704Z" fill="#F1F2F2"/>
</g>
<g opacity="0.44">
<path opacity="0.44" d="M145.839 89.1704C145.839 89.6764 145.433 90.0858 144.93 90.0858H129.55C129.048 90.0858 128.641 89.6764 128.641 89.1704V82.6664C128.641 82.1606 129.048 81.7483 129.55 81.7483H144.93C145.433 81.7483 145.839 82.1606 145.839 82.6664V89.1704Z" fill="#F1F2F2"/>
</g>
<g opacity="0.44">
<path opacity="0.44" d="M127.503 89.1704C127.503 89.6764 127.095 90.0858 126.592 90.0858H111.212C110.709 90.0858 110.303 89.6764 110.303 89.1704V82.6664C110.303 82.1606 110.709 81.7483 111.212 81.7483H126.592C127.095 81.7483 127.503 82.1606 127.503 82.6664V89.1704Z" fill="#F1F2F2"/>
</g>
<g opacity="0.44">
<path opacity="0.44" d="M109.165 89.1704C109.165 89.6764 108.757 90.0858 108.256 90.0858H92.8749C92.3733 90.0858 91.9656 89.6764 91.9656 89.1704V82.6664C91.9656 82.1606 92.3735 81.7483 92.8749 81.7483H108.256C108.758 81.7483 109.165 82.1606 109.165 82.6664V89.1704Z" fill="#F1F2F2"/>
</g>
<g opacity="0.44">
<path opacity="0.44" d="M90.8279 89.1704C90.8279 89.6764 90.4198 90.0858 89.9186 90.0858H74.5373C74.0356 90.0858 73.6279 89.6764 73.6279 89.1704V82.6664C73.6279 82.1606 74.0358 81.7483 74.5373 81.7483H89.9186C90.4198 81.7483 90.8279 82.1606 90.8279 82.6664V89.1704Z" fill="#F1F2F2"/>
</g>
<g opacity="0.44">
<path opacity="0.44" d="M72.4898 89.1704C72.4898 89.6764 72.0836 90.0858 71.5805 90.0858H56.1994C55.6978 90.0858 55.29 89.6764 55.29 89.1704V82.6664C55.29 82.1606 55.698 81.7483 56.1994 81.7483H71.5805C72.0836 81.7483 72.4898 82.1606 72.4898 82.6664V89.1704Z" fill="#F1F2F2"/>
</g>
<g opacity="0.44">
<path opacity="0.44" d="M54.1524 89.1704C54.1524 89.6764 53.7459 90.0858 53.243 90.0858H37.8632C37.3605 90.0858 36.9539 89.6764 36.9539 89.1704V82.6664C36.9539 82.1606 37.3605 81.7483 37.8632 81.7483H53.243C53.7461 81.7483 54.1524 82.1606 54.1524 82.6664V89.1704Z" fill="#F1F2F2"/>
</g>
<g opacity="0.44">
<path opacity="0.44" d="M35.8148 89.1704C35.8148 89.6764 35.4081 90.0858 34.9054 90.0858H19.5256C19.0225 90.0858 18.6162 89.6764 18.6162 89.1704V82.6664C18.6162 82.1606 19.0227 81.7483 19.5256 81.7483H34.9054C35.4081 81.7483 35.8148 82.1606 35.8148 82.6664V89.1704Z" fill="#F1F2F2"/>
</g>
<g opacity="0.44">
<path opacity="0.44" d="M17.4772 89.1704C17.4772 89.6764 17.0707 90.0858 16.5678 90.0858H1.18843C0.685302 90.0858 0.279053 89.6764 0.279053 89.1704V82.6664C0.279053 82.1606 0.685302 81.7483 1.18843 81.7483H16.5678C17.0709 81.7483 17.4772 82.1606 17.4772 82.6664V89.1704Z" fill="#F1F2F2"/>
</g>
<g opacity="0.44">
<path opacity="0.44" d="M182.516 70.2581C182.516 70.764 182.106 71.1762 181.606 71.1762H166.224C165.724 71.1762 165.314 70.764 165.314 70.2581V63.7542C165.314 63.2483 165.724 62.8387 166.224 62.8387H181.606C182.106 62.8387 182.516 63.2483 182.516 63.7542V70.2581Z" fill="#F1F2F2"/>
</g>
<g opacity="0.44">
<path opacity="0.44" d="M164.177 70.2581C164.177 70.764 163.77 71.1762 163.267 71.1762H147.888C147.385 71.1762 146.979 70.764 146.979 70.2581V63.7542C146.979 63.2483 147.385 62.8387 147.888 62.8387H163.267C163.771 62.8387 164.177 63.2483 164.177 63.7542V70.2581Z" fill="#F1F2F2"/>
</g>
<g opacity="0.44">
<path opacity="0.44" d="M145.839 70.2581C145.839 70.764 145.433 71.1762 144.93 71.1762H129.55C129.048 71.1762 128.641 70.764 128.641 70.2581V63.7542C128.641 63.2483 129.048 62.8387 129.55 62.8387H144.93C145.433 62.8387 145.839 63.2483 145.839 63.7542V70.2581Z" fill="#F1F2F2"/>
</g>
<g opacity="0.44">
<path opacity="0.44" d="M127.503 70.2581C127.503 70.764 127.095 71.1762 126.592 71.1762H111.212C110.709 71.1762 110.303 70.764 110.303 70.2581V63.7542C110.303 63.2483 110.709 62.8387 111.212 62.8387H126.592C127.095 62.8387 127.503 63.2483 127.503 63.7542V70.2581Z" fill="#F1F2F2"/>
</g>
<g opacity="0.44">
<path opacity="0.44" d="M109.165 70.2581C109.165 70.764 108.757 71.1762 108.256 71.1762H92.8749C92.3733 71.1762 91.9656 70.764 91.9656 70.2581V63.7542C91.9656 63.2483 92.3735 62.8387 92.8749 62.8387H108.256C108.758 62.8387 109.165 63.2483 109.165 63.7542V70.2581Z" fill="#F1F2F2"/>
</g>
<g opacity="0.44">
<path opacity="0.44" d="M90.8279 70.2581C90.8279 70.764 90.4198 71.1762 89.9186 71.1762H74.5373C74.0356 71.1762 73.6279 70.764 73.6279 70.2581V63.7542C73.6279 63.2483 74.0358 62.8387 74.5373 62.8387H89.9186C90.4198 62.8387 90.8279 63.2483 90.8279 63.7542V70.2581Z" fill="#F1F2F2"/>
</g>
<g opacity="0.44">
<path opacity="0.44" d="M72.4898 70.2581C72.4898 70.764 72.0836 71.1762 71.5805 71.1762H56.1994C55.6978 71.1762 55.29 70.764 55.29 70.2581V63.7542C55.29 63.2483 55.698 62.8387 56.1994 62.8387H71.5805C72.0836 62.8387 72.4898 63.2483 72.4898 63.7542V70.2581Z" fill="#F1F2F2"/>
</g>
<g opacity="0.44">
<path opacity="0.44" d="M54.1524 70.2581C54.1524 70.764 53.7459 71.1762 53.243 71.1762H37.8632C37.3605 71.1762 36.9539 70.764 36.9539 70.2581V63.7542C36.9539 63.2483 37.3605 62.8387 37.8632 62.8387H53.243C53.7461 62.8387 54.1524 63.2483 54.1524 63.7542V70.2581Z" fill="#F1F2F2"/>
</g>
<g opacity="0.44">
<path opacity="0.44" d="M35.8148 70.2581C35.8148 70.764 35.4081 71.1762 34.9054 71.1762H19.5256C19.0225 71.1762 18.6162 70.764 18.6162 70.2581V63.7542C18.6162 63.2483 19.0227 62.8387 19.5256 62.8387H34.9054C35.4081 62.8387 35.8148 63.2483 35.8148 63.7542V70.2581Z" fill="#F1F2F2"/>
</g>
<g opacity="0.44">
<path opacity="0.44" d="M17.4772 70.2581C17.4772 70.764 17.0707 71.1762 16.5678 71.1762H1.18843C0.685302 71.1762 0.279053 70.764 0.279053 70.2581V63.7542C0.279053 63.2483 0.685302 62.8387 1.18843 62.8387H16.5678C17.0709 62.8387 17.4772 63.2483 17.4772 63.7542V70.2581Z" fill="#F1F2F2"/>
</g>
<g opacity="0.44">
<path opacity="0.44" d="M182.516 51.3487C182.516 51.8548 182.106 52.2641 181.606 52.2641H166.224C165.724 52.2641 165.314 51.8548 165.314 51.3487V44.8448C165.314 44.3389 165.724 43.9266 166.224 43.9266H181.606C182.106 43.9266 182.516 44.3389 182.516 44.8448V51.3487Z" fill="#F1F2F2"/>
</g>
<g opacity="0.44">
<path opacity="0.44" d="M164.177 51.3487C164.177 51.8548 163.77 52.2641 163.267 52.2641H147.888C147.385 52.2641 146.979 51.8548 146.979 51.3487V44.8448C146.979 44.3389 147.385 43.9266 147.888 43.9266H163.267C163.771 43.9266 164.177 44.3389 164.177 44.8448V51.3487Z" fill="#F1F2F2"/>
</g>
<g opacity="0.44">
<path opacity="0.44" d="M145.839 51.3487C145.839 51.8548 145.433 52.2641 144.93 52.2641H129.55C129.048 52.2641 128.641 51.8548 128.641 51.3487V44.8448C128.641 44.3389 129.048 43.9266 129.55 43.9266H144.93C145.433 43.9266 145.839 44.3389 145.839 44.8448V51.3487Z" fill="#F1F2F2"/>
</g>
<g opacity="0.44">
<path opacity="0.44" d="M127.503 51.3487C127.503 51.8548 127.095 52.2641 126.592 52.2641H111.212C110.709 52.2641 110.303 51.8548 110.303 51.3487V44.8448C110.303 44.3389 110.709 43.9266 111.212 43.9266H126.592C127.095 43.9266 127.503 44.3389 127.503 44.8448V51.3487Z" fill="#F1F2F2"/>
</g>
<g opacity="0.44">
<path opacity="0.44" d="M109.165 51.3487C109.165 51.8548 108.757 52.2641 108.256 52.2641H92.8749C92.3733 52.2641 91.9656 51.8548 91.9656 51.3487V44.8448C91.9656 44.3389 92.3735 43.9266 92.8749 43.9266H108.256C108.758 43.9266 109.165 44.3389 109.165 44.8448V51.3487Z" fill="#F1F2F2"/>
</g>
<g opacity="0.44">
<path opacity="0.44" d="M90.8279 51.3487C90.8279 51.8548 90.4198 52.2641 89.9186 52.2641H74.5373C74.0356 52.2641 73.6279 51.8548 73.6279 51.3487V44.8448C73.6279 44.3389 74.0358 43.9266 74.5373 43.9266H89.9186C90.4198 43.9266 90.8279 44.3389 90.8279 44.8448V51.3487Z" fill="#F1F2F2"/>
</g>
<g opacity="0.44">
<path opacity="0.44" d="M72.4898 51.3487C72.4898 51.8548 72.0836 52.2641 71.5805 52.2641H56.1994C55.6978 52.2641 55.29 51.8548 55.29 51.3487V44.8448C55.29 44.3389 55.698 43.9266 56.1994 43.9266H71.5805C72.0836 43.9266 72.4898 44.3389 72.4898 44.8448V51.3487Z" fill="#F1F2F2"/>
</g>
<g opacity="0.44">
<path opacity="0.44" d="M54.1524 51.3487C54.1524 51.8548 53.7459 52.2641 53.243 52.2641H37.8632C37.3605 52.2641 36.9539 51.8548 36.9539 51.3487V44.8448C36.9539 44.3389 37.3605 43.9266 37.8632 43.9266H53.243C53.7461 43.9266 54.1524 44.3389 54.1524 44.8448V51.3487Z" fill="#F1F2F2"/>
</g>
<g opacity="0.44">
<path opacity="0.44" d="M35.8148 51.3487C35.8148 51.8548 35.4081 52.2641 34.9054 52.2641H19.5256C19.0225 52.2641 18.6162 51.8548 18.6162 51.3487V44.8448C18.6162 44.3389 19.0227 43.9266 19.5256 43.9266H34.9054C35.4081 43.9266 35.8148 44.3389 35.8148 44.8448V51.3487Z" fill="#F1F2F2"/>
</g>
<g opacity="0.44">
<path opacity="0.44" d="M17.4772 51.3487C17.4772 51.8548 17.0707 52.2641 16.5678 52.2641H1.18843C0.685302 52.2641 0.279053 51.8548 0.279053 51.3487V44.8448C0.279053 44.3389 0.685302 43.9266 1.18843 43.9266H16.5678C17.0709 43.9266 17.4772 44.3389 17.4772 44.8448V51.3487Z" fill="#F1F2F2"/>
</g>
<g opacity="0.44">
<path opacity="0.44" d="M182.516 32.4364C182.516 32.9423 182.106 33.3546 181.606 33.3546H166.224C165.724 33.3546 165.314 32.9423 165.314 32.4364V25.9325C165.314 25.4266 165.724 25.0173 166.224 25.0173H181.606C182.106 25.0173 182.516 25.4266 182.516 25.9325V32.4364Z" fill="#F1F2F2"/>
</g>
<g opacity="0.44">
<path opacity="0.44" d="M164.177 32.4364C164.177 32.9423 163.77 33.3546 163.267 33.3546H147.888C147.385 33.3546 146.979 32.9423 146.979 32.4364V25.9325C146.979 25.4266 147.385 25.0173 147.888 25.0173H163.267C163.771 25.0173 164.177 25.4266 164.177 25.9325V32.4364Z" fill="#F1F2F2"/>
</g>
<g opacity="0.44">
<path opacity="0.44" d="M145.839 32.4364C145.839 32.9423 145.433 33.3546 144.93 33.3546H129.55C129.048 33.3546 128.641 32.9423 128.641 32.4364V25.9325C128.641 25.4266 129.048 25.0173 129.55 25.0173H144.93C145.433 25.0173 145.839 25.4266 145.839 25.9325V32.4364Z" fill="#F1F2F2"/>
</g>
<g opacity="0.44">
<path opacity="0.44" d="M127.503 32.4364C127.503 32.9423 127.095 33.3546 126.592 33.3546H111.212C110.709 33.3546 110.303 32.9423 110.303 32.4364V25.9325C110.303 25.4266 110.709 25.0173 111.212 25.0173H126.592C127.095 25.0173 127.503 25.4266 127.503 25.9325V32.4364Z" fill="#F1F2F2"/>
</g>
<g opacity="0.44">
<path opacity="0.44" d="M109.165 32.4364C109.165 32.9423 108.757 33.3546 108.256 33.3546H92.8749C92.3733 33.3546 91.9656 32.9423 91.9656 32.4364V25.9325C91.9656 25.4266 92.3735 25.0173 92.8749 25.0173H108.256C108.758 25.0173 109.165 25.4266 109.165 25.9325V32.4364Z" fill="#F1F2F2"/>
</g>
<g opacity="0.44">
<path opacity="0.44" d="M90.8279 32.4364C90.8279 32.9423 90.4198 33.3546 89.9186 33.3546H74.5373C74.0356 33.3546 73.6279 32.9423 73.6279 32.4364V25.9325C73.6279 25.4266 74.0358 25.0173 74.5373 25.0173H89.9186C90.4198 25.0173 90.8279 25.4266 90.8279 25.9325V32.4364Z" fill="#F1F2F2"/>
</g>
<g opacity="0.44">
<path opacity="0.44" d="M72.4898 32.4364C72.4898 32.9423 72.0836 33.3546 71.5805 33.3546H56.1994C55.6978 33.3546 55.29 32.9423 55.29 32.4364V25.9325C55.29 25.4266 55.698 25.0173 56.1994 25.0173H71.5805C72.0836 25.0173 72.4898 25.4266 72.4898 25.9325V32.4364Z" fill="#F1F2F2"/>
</g>
<g opacity="0.44">
<path opacity="0.44" d="M54.1524 32.4364C54.1524 32.9423 53.7459 33.3546 53.243 33.3546H37.8632C37.3605 33.3546 36.9539 32.9423 36.9539 32.4364V25.9325C36.9539 25.4266 37.3605 25.0173 37.8632 25.0173H53.243C53.7461 25.0173 54.1524 25.4266 54.1524 25.9325V32.4364Z" fill="#F1F2F2"/>
</g>
<g opacity="0.44">
<path opacity="0.44" d="M35.8148 32.4364C35.8148 32.9423 35.4081 33.3546 34.9054 33.3546H19.5256C19.0225 33.3546 18.6162 32.9423 18.6162 32.4364V25.9325C18.6162 25.4266 19.0227 25.0173 19.5256 25.0173H34.9054C35.4081 25.0173 35.8148 25.4266 35.8148 25.9325V32.4364Z" fill="#F1F2F2"/>
</g>
<g opacity="0.44">
<path opacity="0.44" d="M17.4772 32.4364C17.4772 32.9423 17.0707 33.3546 16.5678 33.3546H1.18843C0.685302 33.3546 0.279053 32.9423 0.279053 32.4364V25.9325C0.279053 25.4266 0.685302 25.0173 1.18843 25.0173H16.5678C17.0709 25.0173 17.4772 25.4266 17.4772 25.9325V32.4364Z" fill="#F1F2F2"/>
</g>
<g opacity="0.44">
<path opacity="0.44" d="M182.516 13.5258C182.516 14.0317 182.106 14.4425 181.606 14.4425H166.224C165.724 14.4425 165.314 14.0317 165.314 13.5258V7.02186C165.314 6.51582 165.724 6.10645 166.224 6.10645H181.606C182.106 6.10645 182.516 6.51582 182.516 7.02186V13.5258Z" fill="#F1F2F2"/>
</g>
<g opacity="0.44">
<path opacity="0.44" d="M164.177 13.5258C164.177 14.0317 163.77 14.4425 163.267 14.4425H147.888C147.385 14.4425 146.979 14.0317 146.979 13.5258V7.02186C146.979 6.51582 147.385 6.10645 147.888 6.10645H163.267C163.771 6.10645 164.177 6.51582 164.177 7.02186V13.5258Z" fill="#F1F2F2"/>
</g>
<g opacity="0.44">
<path opacity="0.44" d="M145.839 13.5258C145.839 14.0317 145.433 14.4425 144.93 14.4425H129.55C129.048 14.4425 128.641 14.0317 128.641 13.5258V7.02186C128.641 6.51582 129.048 6.10645 129.55 6.10645H144.93C145.433 6.10645 145.839 6.51582 145.839 7.02186V13.5258Z" fill="#F1F2F2"/>
</g>
<g opacity="0.44">
<path opacity="0.44" d="M127.503 13.5258C127.503 14.0317 127.095 14.4425 126.592 14.4425H111.212C110.709 14.4425 110.303 14.0317 110.303 13.5258V7.02186C110.303 6.51582 110.709 6.10645 111.212 6.10645H126.592C127.095 6.10645 127.503 6.51582 127.503 7.02186V13.5258Z" fill="#F1F2F2"/>
</g>
<g opacity="0.44">
<path opacity="0.44" d="M109.165 13.5258C109.165 14.0317 108.757 14.4425 108.256 14.4425H92.8749C92.3733 14.4425 91.9656 14.0317 91.9656 13.5258V7.02186C91.9656 6.51582 92.3735 6.10645 92.8749 6.10645H108.256C108.758 6.10645 109.165 6.51582 109.165 7.02186V13.5258Z" fill="#F1F2F2"/>
</g>
<g opacity="0.44">
<path opacity="0.44" d="M90.8279 13.5258C90.8279 14.0317 90.4198 14.4425 89.9186 14.4425H74.5373C74.0356 14.4425 73.6279 14.0317 73.6279 13.5258V7.02186C73.6279 6.51582 74.0358 6.10645 74.5373 6.10645H89.9186C90.4198 6.10645 90.8279 6.51582 90.8279 7.02186V13.5258Z" fill="#F1F2F2"/>
</g>
<g opacity="0.44">
<path opacity="0.44" d="M72.4898 13.5258C72.4898 14.0317 72.0836 14.4425 71.5805 14.4425H56.1994C55.6978 14.4425 55.29 14.0317 55.29 13.5258V7.02186C55.29 6.51582 55.698 6.10645 56.1994 6.10645H71.5805C72.0836 6.10645 72.4898 6.51582 72.4898 7.02186V13.5258Z" fill="#F1F2F2"/>
</g>
<g opacity="0.44">
<path opacity="0.44" d="M54.1524 13.5258C54.1524 14.0317 53.7459 14.4425 53.243 14.4425H37.8632C37.3605 14.4425 36.9539 14.0317 36.9539 13.5258V7.02186C36.9539 6.51582 37.3605 6.10645 37.8632 6.10645H53.243C53.7461 6.10645 54.1524 6.51582 54.1524 7.02186V13.5258Z" fill="#F1F2F2"/>
</g>
<g opacity="0.44">
<path opacity="0.44" d="M35.8148 13.5258C35.8148 14.0317 35.4081 14.4425 34.9054 14.4425H19.5256C19.0225 14.4425 18.6162 14.0317 18.6162 13.5258V7.02186C18.6162 6.51582 19.0227 6.10645 19.5256 6.10645H34.9054C35.4081 6.10645 35.8148 6.51582 35.8148 7.02186V13.5258Z" fill="#F1F2F2"/>
</g>
<g opacity="0.44">
<path opacity="0.44" d="M17.4772 13.5258C17.4772 14.0317 17.0707 14.4425 16.5678 14.4425H1.18843C0.685302 14.4425 0.279053 14.0317 0.279053 13.5258V7.02186C0.279053 6.51582 0.685302 6.10645 1.18843 6.10645H16.5678C17.0709 6.10645 17.4772 6.51582 17.4772 7.02186V13.5258Z" fill="#F1F2F2"/>
</g>
<g opacity="0.44">
<path opacity="0.44" d="M191.684 174.066C191.684 174.572 191.277 174.982 190.775 174.982H175.392C174.892 174.982 174.485 174.572 174.485 174.066V167.562C174.485 167.057 174.892 166.644 175.392 166.644H190.775C191.277 166.644 191.684 167.057 191.684 167.562V174.066H191.684Z" fill="#F1F2F2"/>
</g>
<g opacity="0.44">
<path opacity="0.44" d="M173.345 174.066C173.345 174.572 172.938 174.982 172.435 174.982H157.056C156.553 174.982 156.146 174.572 156.146 174.066V167.562C156.146 167.057 156.553 166.644 157.056 166.644H172.435C172.938 166.644 173.345 167.057 173.345 167.562V174.066Z" fill="#F1F2F2"/>
</g>
<g opacity="0.44">
<path opacity="0.44" d="M155.009 174.066C155.009 174.572 154.602 174.982 154.099 174.982H138.718C138.217 174.982 137.808 174.572 137.808 174.066V167.562C137.808 167.057 138.216 166.644 138.718 166.644H154.099C154.602 166.644 155.009 167.057 155.009 167.562V174.066Z" fill="#F1F2F2"/>
</g>
<g opacity="0.44">
<path opacity="0.44" d="M136.671 174.066C136.671 174.572 136.263 174.982 135.762 174.982H120.381C119.879 174.982 119.471 174.572 119.471 174.066V167.562C119.471 167.057 119.879 166.644 120.381 166.644H135.762C136.263 166.644 136.671 167.057 136.671 167.562V174.066Z" fill="#F1F2F2"/>
</g>
<g opacity="0.44">
<path opacity="0.44" d="M118.333 174.066C118.333 174.572 117.927 174.982 117.424 174.982H102.043C101.541 174.982 101.134 174.572 101.134 174.066V167.562C101.134 167.057 101.542 166.644 102.043 166.644H117.424C117.927 166.644 118.333 167.057 118.333 167.562V174.066Z" fill="#F1F2F2"/>
</g>
<g opacity="0.44">
<path opacity="0.44" d="M99.9959 174.066C99.9959 174.572 99.5894 174.982 99.0865 174.982H83.7067C83.204 174.982 82.7974 174.572 82.7974 174.066V167.562C82.7974 167.057 83.204 166.644 83.7067 166.644H99.0865C99.5897 166.644 99.9959 167.057 99.9959 167.562V174.066Z" fill="#F1F2F2"/>
</g>
<g opacity="0.44">
<path opacity="0.44" d="M81.6582 174.066C81.6582 174.572 81.2516 174.982 80.7484 174.982H65.3691C64.866 174.982 64.4597 174.572 64.4597 174.066V167.562C64.4597 167.057 64.8662 166.644 65.3691 166.644H80.7484C81.2516 166.644 81.6582 167.057 81.6582 167.562V174.066Z" fill="#F1F2F2"/>
</g>
<g opacity="0.44">
<path opacity="0.44" d="M63.3219 174.066C63.3219 174.572 62.9139 174.982 62.411 174.982H47.0314C46.5283 174.982 46.1221 174.572 46.1221 174.066V167.562C46.1221 167.057 46.5285 166.644 47.0314 166.644H62.411C62.9142 166.644 63.3219 167.057 63.3219 167.562V174.066Z" fill="#F1F2F2"/>
</g>
<g opacity="0.44">
<path opacity="0.44" d="M44.9844 174.066C44.9844 174.572 44.5763 174.982 44.075 174.982H28.6938C28.1925 174.982 27.7844 174.572 27.7844 174.066V167.562C27.7844 167.057 28.1925 166.644 28.6938 166.644H44.075C44.5763 166.644 44.9844 167.057 44.9844 167.562V174.066Z" fill="#F1F2F2"/>
</g>
<g opacity="0.44">
<path opacity="0.44" d="M26.6466 174.066C26.6466 174.572 26.2387 174.982 25.7372 174.982H10.3562C9.85449 174.982 9.44678 174.572 9.44678 174.066V167.562C9.44678 167.057 9.8547 166.644 10.3562 166.644H25.7372C26.2389 166.644 26.6466 167.057 26.6466 167.562V174.066V174.066Z" fill="#F1F2F2"/>
</g>
<g opacity="0.44">
<path opacity="0.44" d="M191.684 155.154C191.684 155.66 191.277 156.07 190.775 156.07H175.392C174.892 156.07 174.485 155.66 174.485 155.154V148.65C174.485 148.145 174.892 147.735 175.392 147.735H190.775C191.277 147.735 191.684 148.145 191.684 148.65V155.154H191.684Z" fill="#F1F2F2"/>
</g>
<g opacity="0.44">
<path opacity="0.44" d="M173.345 155.154C173.345 155.66 172.938 156.07 172.435 156.07H157.056C156.553 156.07 156.146 155.66 156.146 155.154V148.65C156.146 148.145 156.553 147.735 157.056 147.735H172.435C172.938 147.735 173.345 148.145 173.345 148.65V155.154Z" fill="#F1F2F2"/>
</g>
<g opacity="0.44">
<path opacity="0.44" d="M155.009 155.154C155.009 155.66 154.602 156.07 154.099 156.07H138.718C138.217 156.07 137.808 155.66 137.808 155.154V148.65C137.808 148.145 138.216 147.735 138.718 147.735H154.099C154.602 147.735 155.009 148.145 155.009 148.65V155.154Z" fill="#F1F2F2"/>
</g>
<g opacity="0.44">
<path opacity="0.44" d="M136.671 155.154C136.671 155.66 136.263 156.07 135.762 156.07H120.381C119.879 156.07 119.471 155.66 119.471 155.154V148.65C119.471 148.145 119.879 147.735 120.381 147.735H135.762C136.263 147.735 136.671 148.145 136.671 148.65V155.154Z" fill="#F1F2F2"/>
</g>
<g opacity="0.44">
<path opacity="0.44" d="M118.333 155.154C118.333 155.66 117.927 156.07 117.424 156.07H102.043C101.541 156.07 101.134 155.66 101.134 155.154V148.65C101.134 148.145 101.542 147.735 102.043 147.735H117.424C117.927 147.735 118.333 148.145 118.333 148.65V155.154Z" fill="#F1F2F2"/>
</g>
<g opacity="0.44">
<path opacity="0.44" d="M99.9959 155.154C99.9959 155.66 99.5894 156.07 99.0865 156.07H83.7067C83.204 156.07 82.7974 155.66 82.7974 155.154V148.65C82.7974 148.145 83.204 147.735 83.7067 147.735H99.0865C99.5897 147.735 99.9959 148.145 99.9959 148.65V155.154Z" fill="#F1F2F2"/>
</g>
<g opacity="0.44">
<path opacity="0.44" d="M81.6582 155.154C81.6582 155.66 81.2516 156.07 80.7484 156.07H65.3691C64.866 156.07 64.4597 155.66 64.4597 155.154V148.65C64.4597 148.145 64.8662 147.735 65.3691 147.735H80.7484C81.2516 147.735 81.6582 148.145 81.6582 148.65V155.154Z" fill="#F1F2F2"/>
</g>
<g opacity="0.44">
<path opacity="0.44" d="M63.3219 155.154C63.3219 155.66 62.9139 156.07 62.411 156.07H47.0314C46.5283 156.07 46.1221 155.66 46.1221 155.154V148.65C46.1221 148.145 46.5285 147.735 47.0314 147.735H62.411C62.9142 147.735 63.3219 148.145 63.3219 148.65V155.154Z" fill="#F1F2F2"/>
</g>
<g opacity="0.44">
<path opacity="0.44" d="M44.9844 155.154C44.9844 155.66 44.5763 156.07 44.075 156.07H28.6938C28.1925 156.07 27.7844 155.66 27.7844 155.154V148.65C27.7844 148.145 28.1925 147.735 28.6938 147.735H44.075C44.5763 147.735 44.9844 148.145 44.9844 148.65V155.154Z" fill="#F1F2F2"/>
</g>
<g opacity="0.44">
<path opacity="0.44" d="M26.6466 155.154C26.6466 155.66 26.2387 156.07 25.7372 156.07H10.3562C9.85449 156.07 9.44678 155.66 9.44678 155.154V148.65C9.44678 148.145 9.8547 147.735 10.3562 147.735H25.7372C26.2389 147.735 26.6466 148.145 26.6466 148.65V155.154V155.154Z" fill="#F1F2F2"/>
</g>
<g opacity="0.44">
<path opacity="0.44" d="M191.684 136.245C191.684 136.751 191.277 137.16 190.775 137.16H175.392C174.892 137.16 174.485 136.751 174.485 136.245V129.741C174.485 129.235 174.892 128.823 175.392 128.823H190.775C191.277 128.823 191.684 129.235 191.684 129.741V136.245H191.684Z" fill="#F1F2F2"/>
</g>
<g opacity="0.44">
<path opacity="0.44" d="M173.345 136.245C173.345 136.751 172.938 137.16 172.435 137.16H157.056C156.553 137.16 156.146 136.751 156.146 136.245V129.741C156.146 129.235 156.553 128.823 157.056 128.823H172.435C172.938 128.823 173.345 129.235 173.345 129.741V136.245Z" fill="#F1F2F2"/>
</g>
<g opacity="0.44">
<path opacity="0.44" d="M155.009 136.245C155.009 136.751 154.602 137.16 154.099 137.16H138.718C138.217 137.16 137.808 136.751 137.808 136.245V129.741C137.808 129.235 138.216 128.823 138.718 128.823H154.099C154.602 128.823 155.009 129.235 155.009 129.741V136.245Z" fill="#F1F2F2"/>
</g>
<g opacity="0.44">
<path opacity="0.44" d="M136.671 136.245C136.671 136.751 136.263 137.16 135.762 137.16H120.381C119.879 137.16 119.471 136.751 119.471 136.245V129.741C119.471 129.235 119.879 128.823 120.381 128.823H135.762C136.263 128.823 136.671 129.235 136.671 129.741V136.245Z" fill="#F1F2F2"/>
</g>
<g opacity="0.44">
<path opacity="0.44" d="M118.333 136.245C118.333 136.751 117.927 137.16 117.424 137.16H102.043C101.541 137.16 101.134 136.751 101.134 136.245V129.741C101.134 129.235 101.542 128.823 102.043 128.823H117.424C117.927 128.823 118.333 129.235 118.333 129.741V136.245Z" fill="#F1F2F2"/>
</g>
<g opacity="0.44">
<path opacity="0.44" d="M99.9959 136.245C99.9959 136.751 99.5894 137.16 99.0865 137.16H83.7067C83.204 137.16 82.7974 136.751 82.7974 136.245V129.741C82.7974 129.235 83.204 128.823 83.7067 128.823H99.0865C99.5897 128.823 99.9959 129.235 99.9959 129.741V136.245Z" fill="#F1F2F2"/>
</g>
<g opacity="0.44">
<path opacity="0.44" d="M81.6582 136.245C81.6582 136.751 81.2516 137.16 80.7484 137.16H65.3691C64.866 137.16 64.4597 136.751 64.4597 136.245V129.741C64.4597 129.235 64.8662 128.823 65.3691 128.823H80.7484C81.2516 128.823 81.6582 129.235 81.6582 129.741V136.245Z" fill="#F1F2F2"/>
</g>
<g opacity="0.44">
<path opacity="0.44" d="M63.3219 136.245C63.3219 136.751 62.9139 137.16 62.411 137.16H47.0314C46.5283 137.16 46.1221 136.751 46.1221 136.245V129.741C46.1221 129.235 46.5285 128.823 47.0314 128.823H62.411C62.9142 128.823 63.3219 129.235 63.3219 129.741V136.245Z" fill="#F1F2F2"/>
</g>
<g opacity="0.44">
<path opacity="0.44" d="M44.9844 136.245C44.9844 136.751 44.5763 137.16 44.075 137.16H28.6938C28.1925 137.16 27.7844 136.751 27.7844 136.245V129.741C27.7844 129.235 28.1925 128.823 28.6938 128.823H44.075C44.5763 128.823 44.9844 129.235 44.9844 129.741V136.245Z" fill="#F1F2F2"/>
</g>
<g opacity="0.44">
<path opacity="0.44" d="M26.6466 136.245C26.6466 136.751 26.2387 137.16 25.7372 137.16H10.3562C9.85449 137.16 9.44678 136.751 9.44678 136.245V129.741C9.44678 129.235 9.8547 128.823 10.3562 128.823H25.7372C26.2389 128.823 26.6466 129.235 26.6466 129.741V136.245V136.245Z" fill="#F1F2F2"/>
</g>
<g opacity="0.44">
<path opacity="0.44" d="M191.684 117.333C191.684 117.838 191.277 118.251 190.775 118.251H175.392C174.892 118.251 174.485 117.838 174.485 117.333V110.829C174.485 110.323 174.892 109.913 175.392 109.913H190.775C191.277 109.913 191.684 110.323 191.684 110.829V117.333H191.684Z" fill="#F1F2F2"/>
</g>
<g opacity="0.44">
<path opacity="0.44" d="M173.345 117.333C173.345 117.838 172.938 118.251 172.435 118.251H157.056C156.553 118.251 156.146 117.838 156.146 117.333V110.829C156.146 110.323 156.553 109.913 157.056 109.913H172.435C172.938 109.913 173.345 110.323 173.345 110.829V117.333Z" fill="#F1F2F2"/>
</g>
<g opacity="0.44">
<path opacity="0.44" d="M155.009 117.333C155.009 117.838 154.602 118.251 154.099 118.251H138.718C138.217 118.251 137.808 117.838 137.808 117.333V110.829C137.808 110.323 138.216 109.913 138.718 109.913H154.099C154.602 109.913 155.009 110.323 155.009 110.829V117.333Z" fill="#F1F2F2"/>
</g>
<g opacity="0.44">
<path opacity="0.44" d="M136.671 117.333C136.671 117.838 136.263 118.251 135.762 118.251H120.381C119.879 118.251 119.471 117.838 119.471 117.333V110.829C119.471 110.323 119.879 109.913 120.381 109.913H135.762C136.263 109.913 136.671 110.323 136.671 110.829V117.333Z" fill="#F1F2F2"/>
</g>
<g opacity="0.44">
<path opacity="0.44" d="M118.333 117.333C118.333 117.838 117.927 118.251 117.424 118.251H102.043C101.541 118.251 101.134 117.838 101.134 117.333V110.829C101.134 110.323 101.542 109.913 102.043 109.913H117.424C117.927 109.913 118.333 110.323 118.333 110.829V117.333Z" fill="#F1F2F2"/>
</g>
<g opacity="0.44">
<path opacity="0.44" d="M99.9959 117.333C99.9959 117.838 99.5894 118.251 99.0865 118.251H83.7067C83.204 118.251 82.7974 117.838 82.7974 117.333V110.829C82.7974 110.323 83.204 109.913 83.7067 109.913H99.0865C99.5897 109.913 99.9959 110.323 99.9959 110.829V117.333Z" fill="#F1F2F2"/>
</g>
<g opacity="0.44">
<path opacity="0.44" d="M81.6582 117.333C81.6582 117.838 81.2516 118.251 80.7484 118.251H65.3691C64.866 118.251 64.4597 117.838 64.4597 117.333V110.829C64.4597 110.323 64.8662 109.913 65.3691 109.913H80.7484C81.2516 109.913 81.6582 110.323 81.6582 110.829V117.333Z" fill="#F1F2F2"/>
</g>
<g opacity="0.44">
<path opacity="0.44" d="M63.3219 117.333C63.3219 117.838 62.9139 118.251 62.411 118.251H47.0314C46.5283 118.251 46.1221 117.838 46.1221 117.333V110.829C46.1221 110.323 46.5285 109.913 47.0314 109.913H62.411C62.9142 109.913 63.3219 110.323 63.3219 110.829V117.333Z" fill="#F1F2F2"/>
</g>
<g opacity="0.44">
<path opacity="0.44" d="M44.9844 117.333C44.9844 117.838 44.5763 118.251 44.075 118.251H28.6938C28.1925 118.251 27.7844 117.838 27.7844 117.333V110.829C27.7844 110.323 28.1925 109.913 28.6938 109.913H44.075C44.5763 109.913 44.9844 110.323 44.9844 110.829V117.333Z" fill="#F1F2F2"/>
</g>
<g opacity="0.44">
<path opacity="0.44" d="M26.6466 117.333C26.6466 117.838 26.2387 118.251 25.7372 118.251H10.3562C9.85449 118.251 9.44678 117.838 9.44678 117.333V110.829C9.44678 110.323 9.8547 109.913 10.3562 109.913H25.7372C26.2389 109.913 26.6466 110.323 26.6466 110.829V117.333V117.333Z" fill="#F1F2F2"/>
</g>
<g opacity="0.44">
<path opacity="0.44" d="M191.684 98.4232C191.684 98.9291 191.277 99.3384 190.775 99.3384H175.392C174.892 99.3384 174.485 98.9291 174.485 98.4232V91.9193C174.485 91.4133 174.892 91.0008 175.392 91.0008H190.775C191.277 91.0008 191.684 91.4131 191.684 91.9193V98.4232H191.684Z" fill="#F1F2F2"/>
</g>
<g opacity="0.44">
<path opacity="0.44" d="M173.345 98.4232C173.345 98.9291 172.938 99.3384 172.435 99.3384H157.056C156.553 99.3384 156.146 98.9291 156.146 98.4232V91.9193C156.146 91.4133 156.553 91.0008 157.056 91.0008H172.435C172.938 91.0008 173.345 91.4131 173.345 91.9193V98.4232Z" fill="#F1F2F2"/>
</g>
<g opacity="0.44">
<path opacity="0.44" d="M155.009 98.4232C155.009 98.9291 154.602 99.3384 154.099 99.3384H138.718C138.217 99.3384 137.808 98.9291 137.808 98.4232V91.9193C137.808 91.4133 138.216 91.0008 138.718 91.0008H154.099C154.602 91.0008 155.009 91.4131 155.009 91.9193V98.4232Z" fill="#F1F2F2"/>
</g>
<g opacity="0.44">
<path opacity="0.44" d="M136.671 98.4232C136.671 98.9291 136.263 99.3384 135.762 99.3384H120.381C119.879 99.3384 119.471 98.9291 119.471 98.4232V91.9193C119.471 91.4133 119.879 91.0008 120.381 91.0008H135.762C136.263 91.0008 136.671 91.4131 136.671 91.9193V98.4232Z" fill="#F1F2F2"/>
</g>
<g opacity="0.44">
<path opacity="0.44" d="M118.333 98.4232C118.333 98.9291 117.927 99.3384 117.424 99.3384H102.043C101.541 99.3384 101.134 98.9291 101.134 98.4232V91.9193C101.134 91.4133 101.542 91.0008 102.043 91.0008H117.424C117.927 91.0008 118.333 91.4131 118.333 91.9193V98.4232Z" fill="#F1F2F2"/>
</g>
<g opacity="0.44">
<path opacity="0.44" d="M99.9959 98.4232C99.9959 98.9291 99.5894 99.3384 99.0865 99.3384H83.7067C83.204 99.3384 82.7974 98.9291 82.7974 98.4232V91.9193C82.7974 91.4133 83.204 91.0008 83.7067 91.0008H99.0865C99.5897 91.0008 99.9959 91.4131 99.9959 91.9193V98.4232Z" fill="#F1F2F2"/>
</g>
<g opacity="0.44">
<path opacity="0.44" d="M81.6582 98.4232C81.6582 98.9291 81.2516 99.3384 80.7484 99.3384H65.3691C64.866 99.3384 64.4597 98.9291 64.4597 98.4232V91.9193C64.4597 91.4133 64.8662 91.0008 65.3691 91.0008H80.7484C81.2516 91.0008 81.6582 91.4131 81.6582 91.9193V98.4232Z" fill="#F1F2F2"/>
</g>
<g opacity="0.44">
<path opacity="0.44" d="M63.3219 98.4232C63.3219 98.9291 62.9139 99.3384 62.411 99.3384H47.0314C46.5283 99.3384 46.1221 98.9291 46.1221 98.4232V91.9193C46.1221 91.4133 46.5285 91.0008 47.0314 91.0008H62.411C62.9142 91.0008 63.3219 91.4131 63.3219 91.9193V98.4232Z" fill="#F1F2F2"/>
</g>
<g opacity="0.44">
<path opacity="0.44" d="M44.9844 98.4232C44.9844 98.9291 44.5763 99.3384 44.075 99.3384H28.6938C28.1925 99.3384 27.7844 98.9291 27.7844 98.4232V91.9193C27.7844 91.4133 28.1925 91.0008 28.6938 91.0008H44.075C44.5763 91.0008 44.9844 91.4131 44.9844 91.9193V98.4232Z" fill="#F1F2F2"/>
</g>
<g opacity="0.44">
<path opacity="0.44" d="M26.6466 98.4232C26.6466 98.9291 26.2387 99.3384 25.7372 99.3384H10.3562C9.85449 99.3384 9.44678 98.9291 9.44678 98.4232V91.9193C9.44678 91.4133 9.8547 91.0008 10.3562 91.0008H25.7372C26.2389 91.0008 26.6466 91.4131 26.6466 91.9193V98.4232V98.4232Z" fill="#F1F2F2"/>
</g>
<g opacity="0.44">
<path opacity="0.44" d="M191.684 79.5108C191.684 80.0169 191.277 80.4294 190.775 80.4294H175.392C174.892 80.4294 174.485 80.0171 174.485 79.5108V73.0069C174.485 72.5011 174.892 72.0917 175.392 72.0917H190.775C191.277 72.0917 191.684 72.5011 191.684 73.0069V79.5108H191.684Z" fill="#F1F2F2"/>
</g>
<g opacity="0.44">
<path opacity="0.44" d="M173.345 79.5108C173.345 80.0169 172.938 80.4294 172.435 80.4294H157.056C156.553 80.4294 156.146 80.0171 156.146 79.5108V73.0069C156.146 72.5011 156.553 72.0917 157.056 72.0917H172.435C172.938 72.0917 173.345 72.5011 173.345 73.0069V79.5108Z" fill="#F1F2F2"/>
</g>
<g opacity="0.44">
<path opacity="0.44" d="M155.009 79.5108C155.009 80.0169 154.602 80.4294 154.099 80.4294H138.718C138.217 80.4294 137.808 80.0171 137.808 79.5108V73.0069C137.808 72.5011 138.216 72.0917 138.718 72.0917H154.099C154.602 72.0917 155.009 72.5011 155.009 73.0069V79.5108Z" fill="#F1F2F2"/>
</g>
<g opacity="0.44">
<path opacity="0.44" d="M136.671 79.5108C136.671 80.0169 136.263 80.4294 135.762 80.4294H120.381C119.879 80.4294 119.471 80.0171 119.471 79.5108V73.0069C119.471 72.5011 119.879 72.0917 120.381 72.0917H135.762C136.263 72.0917 136.671 72.5011 136.671 73.0069V79.5108Z" fill="#F1F2F2"/>
</g>
<g opacity="0.44">
<path opacity="0.44" d="M118.333 79.5108C118.333 80.0169 117.927 80.4294 117.424 80.4294H102.043C101.541 80.4294 101.134 80.0171 101.134 79.5108V73.0069C101.134 72.5011 101.542 72.0917 102.043 72.0917H117.424C117.927 72.0917 118.333 72.5011 118.333 73.0069V79.5108Z" fill="#F1F2F2"/>
</g>
<g opacity="0.44">
<path opacity="0.44" d="M99.9959 79.5108C99.9959 80.0169 99.5894 80.4294 99.0865 80.4294H83.7067C83.204 80.4294 82.7974 80.0171 82.7974 79.5108V73.0069C82.7974 72.5011 83.204 72.0917 83.7067 72.0917H99.0865C99.5897 72.0917 99.9959 72.5011 99.9959 73.0069V79.5108Z" fill="#F1F2F2"/>
</g>
<g opacity="0.44">
<path opacity="0.44" d="M81.6582 79.5108C81.6582 80.0169 81.2516 80.4294 80.7484 80.4294H65.3691C64.866 80.4294 64.4597 80.0171 64.4597 79.5108V73.0069C64.4597 72.5011 64.8662 72.0917 65.3691 72.0917H80.7484C81.2516 72.0917 81.6582 72.5011 81.6582 73.0069V79.5108Z" fill="#F1F2F2"/>
</g>
<g opacity="0.44">
<path opacity="0.44" d="M63.3219 79.5108C63.3219 80.0169 62.9139 80.4294 62.411 80.4294H47.0314C46.5283 80.4294 46.1221 80.0171 46.1221 79.5108V73.0069C46.1221 72.5011 46.5285 72.0917 47.0314 72.0917H62.411C62.9142 72.0917 63.3219 72.5011 63.3219 73.0069V79.5108Z" fill="#F1F2F2"/>
</g>
<g opacity="0.44">
<path opacity="0.44" d="M44.9844 79.5108C44.9844 80.0169 44.5763 80.4294 44.075 80.4294H28.6938C28.1925 80.4294 27.7844 80.0171 27.7844 79.5108V73.0069C27.7844 72.5011 28.1925 72.0917 28.6938 72.0917H44.075C44.5763 72.0917 44.9844 72.5011 44.9844 73.0069V79.5108Z" fill="#F1F2F2"/>
</g>
<g opacity="0.44">
<path opacity="0.44" d="M26.6466 79.5108C26.6466 80.0169 26.2387 80.4294 25.7372 80.4294H10.3562C9.85449 80.4294 9.44678 80.0171 9.44678 79.5108V73.0069C9.44678 72.5011 9.8547 72.0917 10.3562 72.0917H25.7372C26.2389 72.0917 26.6466 72.5011 26.6466 73.0069V79.5108V79.5108Z" fill="#F1F2F2"/>
</g>
<g opacity="0.44">
<path opacity="0.44" d="M191.684 60.6016C191.684 61.1075 191.277 61.5168 190.775 61.5168H175.392C174.892 61.5168 174.485 61.1075 174.485 60.6016V54.0977C174.485 53.5917 174.892 53.1796 175.392 53.1796H190.775C191.277 53.1796 191.684 53.5917 191.684 54.0977V60.6016H191.684Z" fill="#F1F2F2"/>
</g>
<g opacity="0.44">
<path opacity="0.44" d="M173.345 60.6016C173.345 61.1075 172.938 61.5168 172.435 61.5168H157.056C156.553 61.5168 156.146 61.1075 156.146 60.6016V54.0977C156.146 53.5917 156.553 53.1796 157.056 53.1796H172.435C172.938 53.1796 173.345 53.5917 173.345 54.0977V60.6016Z" fill="#F1F2F2"/>
</g>
<g opacity="0.44">
<path opacity="0.44" d="M155.009 60.6016C155.009 61.1075 154.602 61.5168 154.099 61.5168H138.718C138.217 61.5168 137.808 61.1075 137.808 60.6016V54.0977C137.808 53.5917 138.216 53.1796 138.718 53.1796H154.099C154.602 53.1796 155.009 53.5917 155.009 54.0977V60.6016Z" fill="#F1F2F2"/>
</g>
<g opacity="0.44">
<path opacity="0.44" d="M136.671 60.6016C136.671 61.1075 136.263 61.5168 135.762 61.5168H120.381C119.879 61.5168 119.471 61.1075 119.471 60.6016V54.0977C119.471 53.5917 119.879 53.1796 120.381 53.1796H135.762C136.263 53.1796 136.671 53.5917 136.671 54.0977V60.6016Z" fill="#F1F2F2"/>
</g>
<g opacity="0.44">
<path opacity="0.44" d="M118.333 60.6016C118.333 61.1075 117.927 61.5168 117.424 61.5168H102.043C101.541 61.5168 101.134 61.1075 101.134 60.6016V54.0977C101.134 53.5917 101.542 53.1796 102.043 53.1796H117.424C117.927 53.1796 118.333 53.5917 118.333 54.0977V60.6016Z" fill="#F1F2F2"/>
</g>
<g opacity="0.44">
<path opacity="0.44" d="M99.9959 60.6016C99.9959 61.1075 99.5894 61.5168 99.0865 61.5168H83.7067C83.204 61.5168 82.7974 61.1075 82.7974 60.6016V54.0977C82.7974 53.5917 83.204 53.1796 83.7067 53.1796H99.0865C99.5897 53.1796 99.9959 53.5917 99.9959 54.0977V60.6016Z" fill="#F1F2F2"/>
</g>
<g opacity="0.44">
<path opacity="0.44" d="M81.6582 60.6016C81.6582 61.1075 81.2516 61.5168 80.7484 61.5168H65.3691C64.866 61.5168 64.4597 61.1075 64.4597 60.6016V54.0977C64.4597 53.5917 64.8662 53.1796 65.3691 53.1796H80.7484C81.2516 53.1796 81.6582 53.5917 81.6582 54.0977V60.6016Z" fill="#F1F2F2"/>
</g>
<g opacity="0.44">
<path opacity="0.44" d="M63.3219 60.6016C63.3219 61.1075 62.9139 61.5168 62.411 61.5168H47.0314C46.5283 61.5168 46.1221 61.1075 46.1221 60.6016V54.0977C46.1221 53.5917 46.5285 53.1796 47.0314 53.1796H62.411C62.9142 53.1796 63.3219 53.5917 63.3219 54.0977V60.6016Z" fill="#F1F2F2"/>
</g>
<g opacity="0.44">
<path opacity="0.44" d="M44.9844 60.6016C44.9844 61.1075 44.5763 61.5168 44.075 61.5168H28.6938C28.1925 61.5168 27.7844 61.1075 27.7844 60.6016V54.0977C27.7844 53.5917 28.1925 53.1796 28.6938 53.1796H44.075C44.5763 53.1796 44.9844 53.5917 44.9844 54.0977V60.6016Z" fill="#F1F2F2"/>
</g>
<g opacity="0.44">
<path opacity="0.44" d="M26.6466 60.6016C26.6466 61.1075 26.2387 61.5168 25.7372 61.5168H10.3562C9.85449 61.5168 9.44678 61.1075 9.44678 60.6016V54.0977C9.44678 53.5917 9.8547 53.1796 10.3562 53.1796H25.7372C26.2389 53.1796 26.6466 53.5917 26.6466 54.0977V60.6016V60.6016Z" fill="#F1F2F2"/>
</g>
<g opacity="0.44">
<path opacity="0.44" d="M191.684 41.6891C191.684 42.1952 191.277 42.6077 190.775 42.6077H175.392C174.892 42.6077 174.485 42.1954 174.485 41.6891V35.1854C174.485 34.6793 174.892 34.27 175.392 34.27H190.775C191.277 34.27 191.684 34.6793 191.684 35.1854V41.6891H191.684Z" fill="#F1F2F2"/>
</g>
<g opacity="0.44">
<path opacity="0.44" d="M173.345 41.6891C173.345 42.1952 172.938 42.6077 172.435 42.6077H157.056C156.553 42.6077 156.146 42.1954 156.146 41.6891V35.1854C156.146 34.6793 156.553 34.27 157.056 34.27H172.435C172.938 34.27 173.345 34.6793 173.345 35.1854V41.6891Z" fill="#F1F2F2"/>
</g>
<g opacity="0.44">
<path opacity="0.44" d="M155.009 41.6891C155.009 42.1952 154.602 42.6077 154.099 42.6077H138.718C138.217 42.6077 137.808 42.1954 137.808 41.6891V35.1854C137.808 34.6793 138.216 34.27 138.718 34.27H154.099C154.602 34.27 155.009 34.6793 155.009 35.1854V41.6891Z" fill="#F1F2F2"/>
</g>
<g opacity="0.44">
<path opacity="0.44" d="M136.671 41.6891C136.671 42.1952 136.263 42.6077 135.762 42.6077H120.381C119.879 42.6077 119.471 42.1954 119.471 41.6891V35.1854C119.471 34.6793 119.879 34.27 120.381 34.27H135.762C136.263 34.27 136.671 34.6793 136.671 35.1854V41.6891Z" fill="#F1F2F2"/>
</g>
<g opacity="0.44">
<path opacity="0.44" d="M118.333 41.6891C118.333 42.1952 117.927 42.6077 117.424 42.6077H102.043C101.541 42.6077 101.134 42.1954 101.134 41.6891V35.1854C101.134 34.6793 101.542 34.27 102.043 34.27H117.424C117.927 34.27 118.333 34.6793 118.333 35.1854V41.6891Z" fill="#F1F2F2"/>
</g>
<g opacity="0.44">
<path opacity="0.44" d="M99.9959 41.6891C99.9959 42.1952 99.5894 42.6077 99.0865 42.6077H83.7067C83.204 42.6077 82.7974 42.1954 82.7974 41.6891V35.1854C82.7974 34.6793 83.204 34.27 83.7067 34.27H99.0865C99.5897 34.27 99.9959 34.6793 99.9959 35.1854V41.6891Z" fill="#F1F2F2"/>
</g>
<g opacity="0.44">
<path opacity="0.44" d="M81.6582 41.6891C81.6582 42.1952 81.2516 42.6077 80.7484 42.6077H65.3691C64.866 42.6077 64.4597 42.1954 64.4597 41.6891V35.1854C64.4597 34.6793 64.8662 34.27 65.3691 34.27H80.7484C81.2516 34.27 81.6582 34.6793 81.6582 35.1854V41.6891Z" fill="#F1F2F2"/>
</g>
<g opacity="0.44">
<path opacity="0.44" d="M63.3219 41.6891C63.3219 42.1952 62.9139 42.6077 62.411 42.6077H47.0314C46.5283 42.6077 46.1221 42.1954 46.1221 41.6891V35.1854C46.1221 34.6793 46.5285 34.27 47.0314 34.27H62.411C62.9142 34.27 63.3219 34.6793 63.3219 35.1854V41.6891Z" fill="#F1F2F2"/>
</g>
<g opacity="0.44">
<path opacity="0.44" d="M44.9844 41.6891C44.9844 42.1952 44.5763 42.6077 44.075 42.6077H28.6938C28.1925 42.6077 27.7844 42.1954 27.7844 41.6891V35.1854C27.7844 34.6793 28.1925 34.27 28.6938 34.27H44.075C44.5763 34.27 44.9844 34.6793 44.9844 35.1854V41.6891Z" fill="#F1F2F2"/>
</g>
<g opacity="0.44">
<path opacity="0.44" d="M26.6466 41.6891C26.6466 42.1952 26.2387 42.6077 25.7372 42.6077H10.3562C9.85449 42.6077 9.44678 42.1954 9.44678 41.6891V35.1854C9.44678 34.6793 9.8547 34.27 10.3562 34.27H25.7372C26.2389 34.27 26.6466 34.6793 26.6466 35.1854V41.6891V41.6891Z" fill="#F1F2F2"/>
</g>
<g opacity="0.44">
<path opacity="0.44" d="M191.684 22.78C191.684 23.2858 191.277 23.6952 190.775 23.6952H175.392C174.892 23.6952 174.485 23.2858 174.485 22.78V16.276C174.485 15.7702 174.892 15.3594 175.392 15.3594H190.775C191.277 15.3594 191.684 15.7702 191.684 16.276V22.78H191.684Z" fill="#F1F2F2"/>
</g>
<g opacity="0.44">
<path opacity="0.44" d="M173.345 22.78C173.345 23.2858 172.938 23.6952 172.435 23.6952H157.056C156.553 23.6952 156.146 23.2858 156.146 22.78V16.276C156.146 15.7702 156.553 15.3594 157.056 15.3594H172.435C172.938 15.3594 173.345 15.7702 173.345 16.276V22.78Z" fill="#F1F2F2"/>
</g>
<g opacity="0.44">
<path opacity="0.44" d="M155.009 22.78C155.009 23.2858 154.602 23.6952 154.099 23.6952H138.718C138.217 23.6952 137.808 23.2858 137.808 22.78V16.276C137.808 15.7702 138.216 15.3594 138.718 15.3594H154.099C154.602 15.3594 155.009 15.7702 155.009 16.276V22.78Z" fill="#F1F2F2"/>
</g>
<g opacity="0.44">
<path opacity="0.44" d="M136.671 22.78C136.671 23.2858 136.263 23.6952 135.762 23.6952H120.381C119.879 23.6952 119.471 23.2858 119.471 22.78V16.276C119.471 15.7702 119.879 15.3594 120.381 15.3594H135.762C136.263 15.3594 136.671 15.7702 136.671 16.276V22.78Z" fill="#F1F2F2"/>
</g>
<g opacity="0.44">
<path opacity="0.44" d="M118.333 22.78C118.333 23.2858 117.927 23.6952 117.424 23.6952H102.043C101.541 23.6952 101.134 23.2858 101.134 22.78V16.276C101.134 15.7702 101.542 15.3594 102.043 15.3594H117.424C117.927 15.3594 118.333 15.7702 118.333 16.276V22.78Z" fill="#F1F2F2"/>
</g>
<g opacity="0.44">
<path opacity="0.44" d="M99.9959 22.78C99.9959 23.2858 99.5894 23.6952 99.0865 23.6952H83.7067C83.204 23.6952 82.7974 23.2858 82.7974 22.78V16.276C82.7974 15.7702 83.204 15.3594 83.7067 15.3594H99.0865C99.5897 15.3594 99.9959 15.7702 99.9959 16.276V22.78Z" fill="#F1F2F2"/>
</g>
<g opacity="0.44">
<path opacity="0.44" d="M81.6582 22.78C81.6582 23.2858 81.2516 23.6952 80.7484 23.6952H65.3691C64.866 23.6952 64.4597 23.2858 64.4597 22.78V16.276C64.4597 15.7702 64.8662 15.3594 65.3691 15.3594H80.7484C81.2516 15.3594 81.6582 15.7702 81.6582 16.276V22.78Z" fill="#F1F2F2"/>
</g>
<g opacity="0.44">
<path opacity="0.44" d="M63.3219 22.78C63.3219 23.2858 62.9139 23.6952 62.411 23.6952H47.0314C46.5283 23.6952 46.1221 23.2858 46.1221 22.78V16.276C46.1221 15.7702 46.5285 15.3594 47.0314 15.3594H62.411C62.9142 15.3594 63.3219 15.7702 63.3219 16.276V22.78Z" fill="#F1F2F2"/>
</g>
<g opacity="0.44">
<path opacity="0.44" d="M44.9844 22.78C44.9844 23.2858 44.5763 23.6952 44.075 23.6952H28.6938C28.1925 23.6952 27.7844 23.2858 27.7844 22.78V16.276C27.7844 15.7702 28.1925 15.3594 28.6938 15.3594H44.075C44.5763 15.3594 44.9844 15.7702 44.9844 16.276V22.78Z" fill="#F1F2F2"/>
</g>
<g opacity="0.44">
<path opacity="0.44" d="M26.6466 22.78C26.6466 23.2858 26.2387 23.6952 25.7372 23.6952H10.3562C9.85449 23.6952 9.44678 23.2858 9.44678 22.78V16.276C9.44678 15.7702 9.8547 15.3594 10.3562 15.3594H25.7372C26.2389 15.3594 26.6466 15.7702 26.6466 16.276V22.78V22.78Z" fill="#F1F2F2"/>
</g>
</g>
</g>
<path d="M88.5882 46.0067C87.4497 47.3786 87.5522 49.3798 87.5655 49.598C87.6455 50.8952 88.1853 51.8773 88.5722 52.4744C92.3574 58.3165 98.277 61.5975 98.2772 61.5975C100.587 63.5023 103.111 65.4523 105.854 67.4019C109.317 69.8627 112.674 71.9977 115.845 73.8486C116.43 70.6642 117.015 67.4798 117.601 64.2954C112.8 60.3705 108.912 57.1582 105.937 54.8034C104.25 53.4682 102.385 51.9402 100.598 49.3486C99.4684 47.7103 99.7605 47.6069 99.0368 46.8398C96.4199 44.0661 90.7272 43.4296 88.5882 46.0067Z" fill="#AD4328"/>
<path opacity="0.12" d="M88.5882 46.0067C87.4497 47.3786 87.5522 49.3798 87.5655 49.598C87.6455 50.8952 88.1853 51.8773 88.5722 52.4744C92.3574 58.3165 98.277 61.5975 98.2772 61.5975C100.587 63.5023 103.111 65.4523 105.854 67.4019C109.317 69.8627 112.674 71.9977 115.845 73.8486C116.43 70.6642 117.015 67.4798 117.601 64.2954C112.8 60.3705 108.912 57.1582 105.937 54.8034C104.25 53.4682 102.385 51.9402 100.598 49.3486C99.4684 47.7103 99.7605 47.6069 99.0368 46.8398C96.4199 44.0661 90.7272 43.4296 88.5882 46.0067Z" fill="black"/>
<path d="M73.1235 19.3477C75.9399 19.3477 78.2229 17.0647 78.2229 14.2484C78.2229 11.4321 75.9399 9.14899 73.1235 9.14899C70.3072 9.14899 68.0242 11.4321 68.0242 14.2484C68.0242 17.0647 70.3072 19.3477 73.1235 19.3477Z" fill="#0B4870"/>
<path d="M78.2229 17.5827C81.0392 17.5827 83.3223 15.2997 83.3223 12.4833C83.3223 9.66704 81.0392 7.38397 78.2229 7.38397C75.4066 7.38397 73.1235 9.66704 73.1235 12.4833C73.1235 15.2997 75.4066 17.5827 78.2229 17.5827Z" fill="#0B4870"/>
<path d="M83.3222 20.5246C86.1385 20.5246 88.4216 18.2415 88.4216 15.4252C88.4216 12.6089 86.1385 10.3259 83.3222 10.3259C80.5059 10.3259 78.2229 12.6089 78.2229 15.4252C78.2229 18.2415 80.5059 20.5246 83.3222 20.5246Z" fill="#0B4870"/>
<path d="M88.4217 24.4471C91.238 24.4471 93.521 22.164 93.521 19.3477C93.521 16.5314 91.238 14.2484 88.4217 14.2484C85.6053 14.2484 83.3223 16.5314 83.3223 19.3477C83.3223 22.164 85.6053 24.4471 88.4217 24.4471Z" fill="#0B4870"/>
<path d="M92.1482 30.7233C94.9645 30.7233 97.2476 28.4403 97.2476 25.624C97.2476 22.8077 94.9645 20.5246 92.1482 20.5246C89.3319 20.5246 87.0488 22.8077 87.0488 25.624C87.0488 28.4403 89.3319 30.7233 92.1482 30.7233Z" fill="#0B4870"/>
<path d="M90.7752 34.6458C93.5915 34.6458 95.8745 32.3628 95.8745 29.5465C95.8745 26.7301 93.5915 24.4471 90.7752 24.4471C87.9588 24.4471 85.6758 26.7301 85.6758 29.5465C85.6758 32.3628 87.9588 34.6458 90.7752 34.6458Z" fill="#0B4870"/>
<path d="M88.4217 39.7452C91.238 39.7452 93.521 37.4621 93.521 34.6458C93.521 31.8295 91.238 29.5464 88.4217 29.5464C85.6053 29.5464 83.3223 31.8295 83.3223 34.6458C83.3223 37.4621 85.6053 39.7452 88.4217 39.7452Z" fill="#0B4870"/>
<path d="M83.3222 43.4777C86.1385 43.4777 88.4216 41.1947 88.4216 38.3784C88.4216 35.5621 86.1385 33.279 83.3222 33.279C80.5059 33.279 78.2229 35.5621 78.2229 38.3784C78.2229 41.1947 80.5059 43.4777 83.3222 43.4777Z" fill="#0B4870"/>
<path d="M79.596 44.8446C82.4123 44.8446 84.6954 42.5616 84.6954 39.7452C84.6954 36.9289 82.4123 34.6459 79.596 34.6459C76.7797 34.6459 74.4966 36.9289 74.4966 39.7452C74.4966 42.5616 76.7797 44.8446 79.596 44.8446Z" fill="#0B4870"/>
<path d="M77.0464 44.8446C79.8627 44.8446 82.1457 42.5616 82.1457 39.7452C82.1457 36.9289 79.8627 34.6459 77.0464 34.6459C74.2301 34.6459 71.947 36.9289 71.947 39.7452C71.947 42.5616 74.2301 44.8446 77.0464 44.8446Z" fill="#0B4870"/>
<path d="M78.8114 39.7452C85.4189 39.7452 90.7753 34.3887 90.7753 27.7812C90.7753 21.1737 85.4189 15.8173 78.8114 15.8173C72.2039 15.8173 66.8474 21.1737 66.8474 27.7812C66.8474 34.3887 72.2039 39.7452 78.8114 39.7452Z" fill="#0B4870"/>
<path d="M68.0244 24.4471C70.8407 24.4471 73.1238 22.164 73.1238 19.3477C73.1238 16.5314 70.8407 14.2484 68.0244 14.2484C65.2081 14.2484 62.925 16.5314 62.925 19.3477C62.925 22.164 65.2081 24.4471 68.0244 24.4471Z" fill="#0B4870"/>
<path d="M65.6707 29.5465C68.487 29.5465 70.7701 27.2634 70.7701 24.4471C70.7701 21.6308 68.487 19.3477 65.6707 19.3477C62.8544 19.3477 60.5713 21.6308 60.5713 24.4471C60.5713 27.2634 62.8544 29.5465 65.6707 29.5465Z" fill="#0B4870"/>
<path d="M64.8863 34.6458C67.7026 34.6458 69.9856 32.3628 69.9856 29.5465C69.9856 26.7301 67.7026 24.4471 64.8863 24.4471C62.0699 24.4471 59.7869 26.7301 59.7869 29.5465C59.7869 32.3628 62.0699 34.6458 64.8863 34.6458Z" fill="#0B4870"/>
<path d="M65.6707 41.3142C68.487 41.3142 70.7701 39.0311 70.7701 36.2148C70.7701 33.3985 68.487 31.1154 65.6707 31.1154C62.8544 31.1154 60.5713 33.3985 60.5713 36.2148C60.5713 39.0311 62.8544 41.3142 65.6707 41.3142Z" fill="#0B4870"/>
<path d="M69.9856 44.8446C72.8019 44.8446 75.085 42.5616 75.085 39.7452C75.085 36.9289 72.8019 34.6459 69.9856 34.6459C67.1693 34.6459 64.8862 36.9289 64.8862 39.7452C64.8862 42.5616 67.1693 44.8446 69.9856 44.8446Z" fill="#0B4870"/>
<path d="M74.6477 37.5071C77.5377 43.315 85.8589 42.0348 85.8589 42.0348Z" fill="#EFB68F"/>
<path d="M76.4071 47.1827C76.4071 47.1827 66.9161 52.5984 65.0769 54.3336C65.0769 54.3336 81.7261 66.2761 99.0723 47.28C97.2701 46.5931 96.9746 46.6094 94.6067 46.0733C91.5511 45.3817 87.2519 44.4836 84.9111 44.379L76.4071 47.1827Z" fill="#EFB68F"/>
<path d="M85.3561 42.0917L85.5196 46.4262L76.6175 47.7733L73.1221 37.0958L75.2394 36.6896L85.3561 42.0917Z" fill="#EFB68F"/>
<path d="M70.4046 34.9736C70.964 35.995 71.9381 36.7557 73.1221 37.0961C76.4762 38.0294 76.4414 34.004 74.7796 32.4884C72.8017 30.6811 68.9098 32.2288 70.4046 34.9736Z" fill="#EFB68F"/>
<path d="M74.8568 48.2911C76.8337 51.1032 80.3977 52.2353 83.4371 51.1061C86.0421 50.1382 87.8741 47.6525 88.1137 44.7644C89.1873 44.455 91.2056 44.0248 93.6956 44.4234C96.2071 44.8253 98.0021 45.8786 98.9252 46.5115L107.168 95.2186L78.1479 99.7379L64.8208 54.5559C65.9108 53.6421 67.1221 52.2236 68.6385 51.2877C70.9029 49.8902 73.0471 48.9427 74.8568 48.2911Z" fill="#AD4328"/>
<path d="M114.696 107.904C113.027 111.082 107.812 112.283 106.475 112.873C106.063 113.055 104.691 113.348 101.957 113.978C99.8514 114.463 97.652 114.928 95.3287 115.369C93.9852 115.624 92.6635 115.859 91.3647 116.076C88.0389 116.631 88.2041 116.06 86.7845 116.157C84.7912 116.293 84.8641 116.999 80.3179 114.342C76.8656 110.321 77.3939 99.8256 76.6104 94.5256L106.057 88.6537C108.5 93.2154 110.511 101.975 114.696 107.904Z" fill="#0B4870"/>
<path d="M112.965 179.662L117.075 164.954L111.283 163.18L107.168 177.867L112.965 179.662Z" fill="#AD4328"/>
<path d="M106.433 178.092L105.366 182.82H124.151V182.682C124.151 181.593 123.525 180.601 122.542 180.133L113.824 176.654C113.51 176.505 113.108 176.511 112.869 176.763C111.742 177.953 110.505 179.889 107.065 177.788C106.816 177.636 106.489 177.805 106.433 178.092Z" fill="#0B4870"/>
<path d="M124.151 182.82H105.366V184.06H124.151V182.82Z" fill="#AD4328"/>
<path d="M121.11 130.605C124.16 128.627 125.064 124.572 123.144 121.485L111.313 102.465C109.08 98.8752 104.129 97.4242 100.311 99.2406C99.43 100.095 97.9713 101.734 97.0096 104.224C95.9286 107.024 96.0223 109.484 96.1565 110.736C101.589 116.956 107.023 123.177 112.455 129.397C114.638 131.897 118.326 132.411 121.11 130.605Z" fill="#0B4870"/>
<path d="M101.177 182.82L117.075 177.952L124.328 124.199C123.882 120.541 120.537 117.95 116.884 118.433C113.178 118.923 110.611 122.38 111.213 126.069L101.177 182.82Z" fill="#0B4870"/>
<path d="M51.3445 178.26L58.8584 164.965L64.2041 167.815L56.7084 181.099L51.3445 178.26Z" fill="#AD4328"/>
<path d="M80.9063 136.453L69.7473 131.881L80.2446 103.81C81.7494 99.8931 86.1756 97.9741 90.0627 99.5533C90.2794 99.6412 91.0402 99.9633 91.889 100.636C91.889 100.636 93.5027 101.927 94.2446 103.825C95.0654 105.925 94.5494 108.103 93.9721 109.797C92.5656 113.925 87.8694 123.765 80.9063 136.453Z" fill="#0B4870"/>
<path d="M64.8861 186.224L48.969 176.555L73.3925 122.243C74.7453 118.815 78.6346 117.15 82.0484 118.537C85.5115 119.944 87.1257 123.936 85.614 127.354L64.8861 186.224Z" fill="#0B4870"/>
<path d="M59.5687 181.413L58.9802 186.224L41.2937 179.893L41.3402 179.763C41.707 178.738 42.631 178.015 43.7141 177.906L53.0945 177.569C53.4402 177.534 53.8175 177.676 53.9575 177.994C54.6175 179.493 55.1298 181.733 59.0762 180.914C59.3625 180.854 59.6131 181.124 59.5687 181.413Z" fill="#0B4870"/>
<path d="M40.8779 181.062L58.5642 187.393L58.9823 186.225L41.296 179.894L40.8779 181.062Z" fill="#AD4328"/>
<path d="M85.356 42.0919C85.1108 42.649 84.7139 43.2623 84.0525 43.5831C81.9756 44.5906 78.8779 41.9444 77.6327 40.8808C76.3106 39.7515 75.3462 38.5554 74.6475 37.5075C75.2745 38.1894 76.0666 38.9185 85.356 42.0919Z" fill="#E0A882"/>
<path d="M70.6119 23.4157C73.1409 18.7363 80.3571 16.5971 84.6207 19.085C86.5552 20.214 87.3604 21.9915 88.5481 24.6138C88.9113 25.4155 91.5392 31.4394 89.5129 37.8413C88.7288 40.319 87.7911 41.1354 87.104 41.5338C85.7186 42.3367 84.2015 42.0829 82.8073 41.8802C79.9819 41.4692 78.0396 40.1063 77.3261 39.5932C73.9163 37.1421 67.2857 29.57 70.6119 23.4157Z" fill="#EFB68F"/>
<path d="M70.3666 33.1786C71.0447 33.1786 71.5943 32.6289 71.5943 31.9509C71.5943 31.2728 71.0447 30.7231 70.3666 30.7231C69.6886 30.7231 69.1389 31.2728 69.1389 31.9509C69.1389 32.6289 69.6886 33.1786 70.3666 33.1786Z" fill="#0B4870"/>
<path d="M71.6398 33.5707C72.1483 33.5707 72.5605 33.1585 72.5605 32.6501C72.5605 32.1416 72.1483 31.7294 71.6398 31.7294C71.1314 31.7294 70.7192 32.1416 70.7192 32.6501C70.7192 33.1585 71.1314 33.5707 71.6398 33.5707Z" fill="#0B4870"/>
<path d="M72.5608 34.1847C72.8997 34.1847 73.1745 33.9099 73.1745 33.5709C73.1745 33.2319 72.8997 32.9572 72.5608 32.9572C72.2218 32.9572 71.947 33.2319 71.947 33.5709C71.947 33.9099 72.2218 34.1847 72.5608 34.1847Z" fill="#0B4870"/>
<path d="M69.9857 31.434C70.7439 31.434 71.3586 30.8193 71.3586 30.0611C71.3586 29.3028 70.7439 28.6882 69.9857 28.6882C69.2275 28.6882 68.6128 29.3028 68.6128 30.0611C68.6128 30.8193 69.2275 31.434 69.9857 31.434Z" fill="#0B4870"/>
<path d="M69.7037 29.1542C70.462 29.1542 71.0766 28.5395 71.0766 27.7813C71.0766 27.0231 70.462 26.4084 69.7037 26.4084C68.9455 26.4084 68.3308 27.0231 68.3308 27.7813C68.3308 28.5395 68.9455 29.1542 69.7037 29.1542Z" fill="#0B4870"/>
<path d="M70.0707 26.9969C70.8289 26.9969 71.4436 26.3823 71.4436 25.624C71.4436 24.8658 70.8289 24.2511 70.0707 24.2511C69.3124 24.2511 68.6978 24.8658 68.6978 25.624C68.6978 26.3823 69.3124 26.9969 70.0707 26.9969Z" fill="#0B4870"/>
<path d="M70.7701 25.1915C71.5284 25.1915 72.143 24.5768 72.143 23.8186C72.143 23.0604 71.5284 22.4457 70.7701 22.4457C70.0119 22.4457 69.3972 23.0604 69.3972 23.8186C69.3972 24.5768 70.0119 25.1915 70.7701 25.1915Z" fill="#0B4870"/>
<path d="M71.9469 23.2705C72.7051 23.2705 73.3198 22.6558 73.3198 21.8976C73.3198 21.1393 72.7051 20.5247 71.9469 20.5247C71.1887 20.5247 70.574 21.1393 70.574 21.8976C70.574 22.6558 71.1887 23.2705 71.9469 23.2705Z" fill="#0B4870"/>
<path d="M73.3199 21.8976C74.0782 21.8976 74.6928 21.2829 74.6928 20.5247C74.6928 19.7664 74.0782 19.1517 73.3199 19.1517C72.5617 19.1517 71.947 19.7664 71.947 20.5247C71.947 21.2829 72.5617 21.8976 73.3199 21.8976Z" fill="#0B4870"/>
<path d="M74.871 20.7207C75.6292 20.7207 76.2439 20.106 76.2439 19.3478C76.2439 18.5895 75.6292 17.9749 74.871 17.9749C74.1127 17.9749 73.498 18.5895 73.498 19.3478C73.498 20.106 74.1127 20.7207 74.871 20.7207Z" fill="#0B4870"/>
<path d="M76.244 19.3477C77.0023 19.3477 77.617 18.7331 77.617 17.9748C77.617 17.2166 77.0023 16.6019 76.244 16.6019C75.4858 16.6019 74.8711 17.2166 74.8711 17.9748C74.8711 18.7331 75.4858 19.3477 76.244 19.3477Z" fill="#0B4870"/>
<path d="M78.8114 18.9557C79.5696 18.9557 80.1843 18.341 80.1843 17.5828C80.1843 16.8245 79.5696 16.2098 78.8114 16.2098C78.0531 16.2098 77.4385 16.8245 77.4385 17.5828C77.4385 18.341 78.0531 18.9557 78.8114 18.9557Z" fill="#0B4870"/>
<path d="M80.9686 19.3477C81.7268 19.3477 82.3415 18.7331 82.3415 17.9748C82.3415 17.2166 81.7268 16.6019 80.9686 16.6019C80.2104 16.6019 79.5957 17.2166 79.5957 17.9748C79.5957 18.7331 80.2104 19.3477 80.9686 19.3477Z" fill="#0B4870"/>
<path d="M82.9266 19.8484C83.6849 19.8484 84.2995 19.2337 84.2995 18.4755C84.2995 17.7172 83.6849 17.1025 82.9266 17.1025C82.1684 17.1025 81.5537 17.7172 81.5537 18.4755C81.5537 19.2337 82.1684 19.8484 82.9266 19.8484Z" fill="#0B4870"/>
<path d="M84.9908 19.8484C85.7491 19.8484 86.3637 19.2337 86.3637 18.4755C86.3637 17.7172 85.7491 17.1025 84.9908 17.1025C84.2326 17.1025 83.6179 17.7172 83.6179 18.4755C83.6179 19.2337 84.2326 19.8484 84.9908 19.8484Z" fill="#0B4870"/>
<path d="M86.8746 21.2213C87.6329 21.2213 88.2475 20.6066 88.2475 19.8484C88.2475 19.0901 87.6329 18.4755 86.8746 18.4755C86.1164 18.4755 85.5017 19.0901 85.5017 19.8484C85.5017 20.6066 86.1164 21.2213 86.8746 21.2213Z" fill="#0B4870"/>
<path d="M89.7916 25.1896L74.6952 31.6327H74.691L74.0693 31.1231L89.7153 24.4475L89.7916 25.1896Z" fill="#AD4328"/>
<path opacity="0.06" d="M89.7916 25.1896L74.6952 31.6327H74.691L74.0693 31.1231L89.7153 24.4475L89.7916 25.1896Z" fill="#191919"/>
<path d="M90.273 29.8956L85.9865 31.9508L84.2992 31.1152L83.3205 33.2775L78.6226 34.8342L74.6951 31.6327L89.7915 25.1896L90.273 29.8956Z" fill="#AD4328"/>
<path opacity="0.14" d="M78.6578 29.9415L78.6226 34.8342L82.0746 33.6902V28.4529L78.6578 29.9415Z" fill="white"/>
<path opacity="0.14" d="M85.9866 26.8038V31.9508L89.1278 30.4446V25.4975L85.9866 26.8038Z" fill="white"/>
<path d="M71.7595 33.5223L75.5518 32.3313L74.0691 31.1234L70.3662 32.6502C70.4354 32.6486 70.7708 32.6481 71.0522 32.9086C71.3102 33.1473 71.7516 33.4463 71.7595 33.5223Z" fill="#AD4328"/>
<path opacity="0.15" d="M71.7595 33.5223L75.5518 32.3313L74.0691 31.1234L70.3662 32.6502C70.4354 32.6486 70.7708 32.6481 71.0522 32.9086C71.3102 33.1473 71.7516 33.4463 71.7595 33.5223Z" fill="#191919"/>
<path d="M85.1885 37.0888L95.1893 40.1781L122.847 84.6211C126.537 90.5509 134.592 91.9003 140.013 87.4965L165.554 66.75L143.452 48.1813L130.506 72.888L100.837 37.1615C99.5301 35.5883 97.4768 34.8423 95.4654 35.21L85.1885 37.0888Z" fill="#AD4328"/>
<path d="M112.237 60.6711C111.942 61.5058 112.12 61.9835 112.12 61.9835C111.437 62.4498 111.336 63.3323 111.899 63.9156L112.298 64.3287C112.819 64.8683 113.722 64.9535 114.354 64.5229L114.391 64.4981C114.833 64.4369 117.245 64.0606 118.462 62.0127C119.236 60.7094 119.582 58.6348 118.749 58.0867C118.03 57.6134 116.435 58.2811 115.041 59.8606L115.535 58.4173C115.598 58.2342 115.52 58.0354 115.342 57.9267C115.15 57.8096 114.894 57.8267 114.725 57.9677L113.389 59.0844C112.865 59.5217 112.452 60.0611 112.237 60.6711Z" fill="#F7C6A4"/>
<path d="M111.609 62.6273L91.2828 74.1542C89.5316 75.1627 89.1888 77.3173 90.5549 78.729C91.7891 80.0042 93.9422 80.1644 95.3868 79.0884L113.606 64.7884L111.609 62.6273Z" fill="#F7C6A4"/>
<path d="M68.8077 65.4369C72.7739 68.4648 76.9189 72.5578 87.8846 78.6311C89.046 79.2744 91.2471 80.4571 93.4602 79.908C94.4873 79.6532 95.205 79.1028 95.65 78.6763C95.5714 78.0707 95.3598 77.1167 94.7281 76.0746C93.9225 74.7453 92.8383 73.9407 92.2248 73.5465C85.8444 68.1025 79.4639 62.6588 73.0835 57.2148C71.1823 55.7102 68.2766 55.8752 66.7352 57.5754C65.3004 59.1581 67.0098 64.0642 68.8077 65.4369Z" fill="#F7C6A4"/>
<path d="M92.2249 73.5465C88.1486 70.3448 85.208 67.3835 83.2684 65.2598C81.1265 62.9148 78.9288 60.194 74.988 56.4979C70.763 52.5354 68.9419 51.5858 67.5178 52.096C66.5363 52.4475 64.8821 53.7873 64.1071 55.6871C64.0434 55.8433 63.9988 55.9654 63.9717 56.0396C62.5948 59.8131 67.063 63.9 68.2192 65.204C72.7748 70.3427 89.3715 79.9746 91.3563 80.569C91.3563 80.569 93.2636 81.219 96.0771 79.3413C98.8907 77.4638 114.696 70.6756 114.696 70.6756C114.696 70.6756 113.953 64.6675 110.863 63.05L92.2249 73.5465Z" fill="#AD4328"/>
<path d="M76.1409 46.3173L72.4607 49.373L82.0749 53.7469L82.8592 51.209L76.1409 46.3173Z" fill="#AD4328"/>
<path d="M82.8591 51.209L85.356 44.4067L88.1135 44.7646L86.0727 52.4782L82.8591 51.209Z" fill="#AD4328"/>
<path opacity="0.18" d="M92.2249 73.5465C88.1486 70.3448 85.208 67.3835 83.2684 65.2598C81.1265 62.9148 78.9288 60.194 74.988 56.4979C70.763 52.5354 68.9419 51.5858 67.5178 52.096C66.5363 52.4475 64.8821 53.7873 64.1071 55.6871C64.0434 55.8433 63.9988 55.9654 63.9717 56.0396C62.5948 59.8131 67.063 63.9 68.2192 65.204C72.7748 70.3427 89.3715 79.9746 91.3563 80.569C91.3563 80.569 93.2636 81.219 96.0771 79.3413C98.8907 77.4638 114.696 70.6756 114.696 70.6756C114.696 70.6756 113.953 64.6675 110.863 63.05L92.2249 73.5465Z" fill="#F9F9F9"/>
<path opacity="0.1" d="M76.1409 46.3173L72.4607 49.373L82.0749 53.7469L82.8592 51.209L76.1409 46.3173Z" fill="#141414"/>
<path opacity="0.1" d="M82.8591 51.209L85.356 44.4067L88.1135 44.7646L86.0727 52.4782L82.8591 51.209Z" fill="#141414"/>
<path opacity="0.12" d="M143.452 48.1815C143.452 48.1815 144.19 68.9627 165.554 66.7502L143.452 48.1815Z" fill="black"/>
<path opacity="0.12" d="M104.285 41.3142L102.579 42.7294L105.462 46.3173L107.168 44.7853L104.285 41.3142Z" fill="black"/>
<path opacity="0.12" d="M109.526 47.5305L107.82 48.9457L110.703 52.5336L112.409 51.0017L109.526 47.5305Z" fill="black"/>
<path opacity="0.12" d="M114.108 53.0358L112.401 54.4511L115.284 58.039L116.99 56.5069L114.108 53.0358Z" fill="black"/>
<path opacity="0.11" d="M127.126 85.6239C127.126 85.6239 133.625 89.8123 138.969 84.6129C144.313 79.4135 152.834 69.015 152.834 69.015L162.366 68.1172C157.072 71.475 153.278 74.7802 150.74 77.247C149.83 78.1314 144.129 83.7216 137.669 87.5012C136.813 88.0023 135.214 88.8979 133.12 88.801C130.125 88.6627 127.992 86.5823 127.126 85.6239Z" fill="white"/>
<path d="M150.896 60.8838C150.968 57.983 151.273 55.0619 152.099 52.2521C152.517 50.8521 153.073 49.484 153.822 48.2161C154.57 46.9509 155.521 45.7909 156.67 44.8565C157.243 44.3896 157.862 43.9794 158.515 43.6284C159.17 43.2811 159.863 43.0088 160.574 42.8021C161.998 42.3888 163.482 42.2605 164.941 42.2667C166.403 42.2692 167.851 42.3842 169.292 42.4596C170.732 42.5344 172.17 42.5742 173.592 42.445C176.441 42.2415 179.181 41.184 181.513 39.5448L182.373 38.9071C182.65 38.6817 182.916 38.4425 183.188 38.2109C183.321 38.0923 183.462 37.9815 183.59 37.8569L183.97 37.4782C184.221 37.2234 184.482 36.9784 184.726 36.7157L185.433 35.9067L185.787 35.5017L186.114 35.0746L186.769 34.2203C186.882 34.0805 186.981 33.9311 187.081 33.7815L187.382 33.3346C188.996 30.9557 190.312 28.379 191.462 25.7367L192.292 23.7388C192.559 23.0686 192.796 22.3863 193.049 21.7107L193.423 20.6946L193.759 19.6648L194.431 17.605L194.785 17.7119L194.132 19.7873L193.806 20.8252L193.441 21.8507C193.193 22.5327 192.962 23.2211 192.701 23.8982L191.886 25.9186C190.738 28.5863 189.419 31.1923 187.79 33.6121L187.486 34.0665C187.386 34.2186 187.285 34.3705 187.171 34.5132L186.508 35.3844L186.177 35.82L185.818 36.2344L185.099 37.0619C184.852 37.3309 184.586 37.583 184.33 37.8444L183.942 38.2332C183.811 38.3611 183.668 38.4757 183.531 38.5977C183.253 38.8365 182.981 39.0823 182.698 39.3148L181.816 39.9738C180.615 40.8173 179.314 41.5261 177.935 42.0409C176.561 42.5705 175.101 42.8755 173.64 42.9986C170.705 43.2555 167.804 42.8102 164.94 42.7913C163.508 42.7798 162.077 42.9013 160.715 43.2913C160.036 43.4863 159.374 43.7432 158.748 44.0719C158.125 44.4044 157.531 44.7948 156.981 45.2394C155.879 46.129 154.961 47.2384 154.233 48.4605C153.503 49.6846 152.958 51.0165 152.54 52.3857C151.702 55.13 151.367 58.0167 151.266 60.8948L150.896 60.8838Z" fill="#E2E2E2"/>
<path d="M153.407 62.762C153.469 61.2491 153.606 59.7358 153.857 58.236C154.107 56.7368 154.464 55.2485 154.985 53.8075C155.512 52.371 156.212 50.9818 157.142 49.7412C157.259 49.5873 157.37 49.4277 157.493 49.2785L157.882 48.8441C158.014 48.7023 158.134 48.5481 158.278 48.4164L158.707 48.0204L158.923 47.8225C158.993 47.7546 159.067 47.691 159.147 47.6352L159.615 47.2843C159.922 47.0418 160.255 46.8366 160.591 46.6368C161.942 45.8421 163.489 45.3925 165.035 45.2427C166.585 45.0852 168.127 45.1852 169.638 45.331C171.151 45.4785 172.641 45.6825 174.128 45.7818C175.614 45.8854 177.098 45.8773 178.548 45.6604C179.998 45.4321 181.421 45.0227 182.774 44.4448L183.776 43.9769C184.107 43.8152 184.42 43.6183 184.744 43.441L185.226 43.1683L185.687 42.86L186.609 42.2425C189.005 40.4904 191.073 38.305 192.933 35.9656L193.619 35.0769L193.962 34.6323C194.075 34.4831 194.177 34.3254 194.285 34.1723L195.564 32.3221C196.352 31.0448 197.175 29.7869 197.889 28.4629L198.449 27.4833L198.728 26.9933L198.989 26.4929L200.029 24.4885C200.387 23.8258 200.691 23.1367 201.018 22.4579L201.995 20.4189L202.271 20.5387C201.094 23.3219 199.857 26.0871 198.411 28.751C197.719 30.1 196.91 31.3841 196.137 32.69L194.876 34.5873C194.769 34.7444 194.669 34.906 194.557 35.0594L194.217 35.5173L193.536 36.4333C191.698 38.8558 189.583 41.1008 187.122 42.9456L186.168 43.5946L185.689 43.9162L185.187 44.2031C184.85 44.3898 184.523 44.5954 184.177 44.7658L183.128 45.2598C181.708 45.8712 180.213 46.3085 178.681 46.5525C177.144 46.7777 175.591 46.7785 174.067 46.6677C172.542 46.5585 171.04 46.3552 169.55 46.1954C168.062 46.0371 166.575 45.9304 165.116 46.0654C163.661 46.1991 162.236 46.5871 160.966 47.2998C160.651 47.48 160.336 47.6654 160.047 47.8871L159.603 48.2064C159.527 48.257 159.457 48.3152 159.39 48.3777L159.186 48.5596L158.776 48.9231C158.639 49.0437 158.524 49.1877 158.396 49.3189L158.022 49.7212C157.903 49.86 157.796 50.0098 157.682 50.1535C156.778 51.3123 156.083 52.635 155.541 54.0175C154.446 56.7902 153.966 59.7881 153.708 62.7795L153.407 62.762Z" fill="#E2E2E2"/>
<path d="M156.033 64.6531C156.084 63.8631 156.142 63.0718 156.238 62.2839L156.312 61.6929L156.403 61.1041C156.458 60.7102 156.538 60.3206 156.612 59.9291C156.921 58.3675 157.371 56.8231 158.027 55.3508C158.686 53.8837 159.562 52.4881 160.706 51.31C161.846 50.1312 163.271 49.2006 164.855 48.6804C165.644 48.4187 166.465 48.2583 167.287 48.1814C168.109 48.1048 168.932 48.1162 169.742 48.1716C171.365 48.286 172.941 48.5821 174.496 48.8466C176.051 49.1129 177.589 49.3741 179.126 49.4512C179.894 49.4871 180.659 49.4989 181.418 49.415C181.797 49.3839 182.178 49.3637 182.553 49.2869L183.117 49.1927C183.304 49.1566 183.495 49.1419 183.679 49.0858L184.79 48.8069C184.978 48.7677 185.157 48.6987 185.338 48.6371L185.881 48.45L186.424 48.2633C186.606 48.2008 186.777 48.1119 186.954 48.0375L188.008 47.5714C188.354 47.4016 188.687 47.2064 189.028 47.0254C189.363 46.8354 189.714 46.6727 190.031 46.4489L191.004 45.8162C191.166 45.7096 191.331 45.6083 191.49 45.4975L191.956 45.1481C194.468 43.3196 196.709 41.1125 198.797 38.7729C202.908 34.0212 206.407 28.7325 209.658 23.3004C208.934 24.7079 208.224 26.1256 207.466 27.5185L206.284 29.5833L205.691 30.6154C205.491 30.9581 205.272 31.2894 205.063 31.6269L203.784 33.6379C203.578 33.9777 203.338 34.2958 203.114 34.6237L202.43 35.6019L201.744 36.5792C201.518 36.9062 201.259 37.2104 201.018 37.5273C200.524 38.1529 200.042 38.7881 199.538 39.4067L197.966 41.2152C197.711 41.5235 197.418 41.7981 197.14 42.0854L196.296 42.9404L195.874 43.3679C195.732 43.5096 195.577 43.6377 195.429 43.7733L194.531 44.5762C193.948 45.1296 193.29 45.5994 192.659 46.1002L192.182 46.4714C192.018 46.5898 191.846 46.696 191.678 46.8087L190.665 47.4758C190.336 47.7102 189.967 47.886 189.616 48.0877C189.259 48.2806 188.909 48.4869 188.546 48.6683L187.433 49.1694C187.246 49.2494 187.065 49.3435 186.872 49.4116L186.295 49.615L185.717 49.8177C185.524 49.8846 185.333 49.9583 185.133 50.0025L183.943 50.3071C183.747 50.3646 183.541 50.3812 183.339 50.4187L182.732 50.5162C182.329 50.5948 181.919 50.6158 181.51 50.6466C180.693 50.7304 179.871 50.7133 179.059 50.67C177.433 50.5729 175.843 50.3064 174.286 50.0085C172.728 49.7129 171.191 49.3969 169.656 49.261C168.126 49.1273 166.591 49.1769 165.148 49.6073C164.427 49.82 163.735 50.1273 163.085 50.5141L162.612 50.8287L162.375 50.9858C162.295 51.0364 162.217 51.0904 162.146 51.1537L161.705 51.5139L161.483 51.6935C161.412 51.7566 161.347 51.8262 161.278 51.8923C160.167 52.9396 159.28 54.2279 158.578 55.6133C157.865 56.9973 157.353 58.4887 156.948 60.0079C156.849 60.3889 156.745 60.7691 156.665 61.155L156.536 61.7323L156.423 62.3133C156.266 63.0873 156.147 63.8693 156.033 64.6531Z" fill="#E2E2E2"/>
<path d="M32.7845 120.768C31.9176 120.095 30.4774 119.818 29.4241 119.767C28.8706 119.74 28.8022 119.854 28.5293 119.452C28.2758 119.079 28.2687 118.19 28.1756 117.742C27.9399 116.606 27.7041 115.47 27.4685 114.334C29.9693 112.789 31.8435 110.26 32.5943 107.418C33.3451 104.576 32.9645 101.451 31.5531 98.8725C31.1033 98.0504 30.3839 97.1946 29.4483 97.2464C28.7483 97.2852 28.1876 97.8306 27.7608 98.3867C26.4074 100.15 25.6991 102.349 25.4849 104.562C25.2708 106.774 25.5281 109.008 25.9556 111.189C25.9964 111.397 26.0381 111.616 25.9687 111.817C25.8937 112.034 25.7033 112.187 25.5216 112.327C22.886 114.361 20.0493 116.412 18.6556 119.436C17.8285 121.23 17.5808 123.286 17.9578 125.225C18.3464 127.224 19.4445 129.136 21.1643 130.225C22.291 130.939 23.6168 131.271 24.9339 131.48C26.6012 131.746 28.326 131.831 29.9643 131.424C30.1526 132.42 30.3131 133.423 30.4368 134.43C30.5345 135.224 30.6333 136.033 30.6695 136.838C30.6812 137.096 30.6608 137.346 30.6608 137.602C30.6091 138.128 30.4039 138.646 30.121 139.089C29.9949 139.286 29.8504 139.472 29.6897 139.642C29.2026 140.157 28.5895 140.538 27.9433 140.821C27.4831 141.022 26.987 141.146 26.4847 141.17C26.2322 141.182 25.9785 141.169 25.7289 141.128C25.7087 141.124 25.6851 141.12 25.6639 141.117C26.6624 140.577 27.3487 139.534 27.3487 138.32C27.3487 136.557 25.9199 135.129 24.1576 135.129C22.3953 135.129 20.9666 136.557 20.9666 138.32C20.9666 138.854 21.1103 139.35 21.3424 139.792L21.3239 139.787C21.3691 139.874 21.4226 139.949 21.4718 140.031C21.4916 140.062 21.5081 140.095 21.5289 140.125C23.201 142.766 26.8678 142.622 26.8678 142.622C27.3145 142.642 27.7883 142.547 28.217 142.437C29.1754 142.191 30.0749 141.711 30.7691 141C31.1004 140.661 31.382 140.275 31.611 139.861C31.7989 139.521 31.9651 139.164 32.0528 138.784C32.1747 138.257 32.1364 137.718 32.0853 137.184C31.967 135.946 31.7374 134.721 31.4929 133.498C31.4349 133.209 31.3772 132.919 31.3193 132.63C31.216 132.114 31.1126 131.597 31.0093 131.08C31.0041 131.054 30.9989 131.028 30.9937 131.002C30.9937 131.002 34.0639 130.106 34.7035 127.42C34.7035 127.42 35.9187 123.198 32.7845 120.768ZM27.2833 101.615C28.536 99.9262 31.2418 100.676 31.4351 102.769C31.4351 102.769 31.8162 105.77 29.2026 108.743C28.7778 109.322 27.8743 110.205 26.821 111.154L26.5066 109.662C26.4839 109.552 26.4689 109.274 26.4518 109.163C26.1739 107.374 26.1272 104.809 26.296 103.815C26.5195 102.497 27.2833 101.615 27.2833 101.615ZM22.2139 129.092C20.9076 127.984 19.9566 126.388 19.8745 124.677C19.7801 122.711 20.8089 120.861 22.0416 119.326C23.2943 117.767 24.7912 116.406 26.4612 115.305C26.7478 116.546 27.0345 117.787 27.321 119.027C27.3814 119.289 27.4397 119.573 27.3276 119.816C27.2053 120.082 26.9185 120.221 26.6616 120.361C24.776 121.389 23.6203 123.451 23.5818 125.58C23.5672 126.383 23.6881 127.215 24.116 127.895C24.5437 128.575 25.3274 129.071 26.1262 128.985C25.7828 129.022 25.2335 127.539 25.1572 127.286C24.9445 126.582 24.901 125.823 25.0356 125.099C25.3212 123.564 26.4833 122.511 28.0533 122.364C28.6176 124.907 29.272 127.927 29.8035 130.575C29.8062 130.588 29.8087 130.601 29.8112 130.614C27.2422 131.432 24.2697 130.837 22.2139 129.092ZM30.7881 130.136L30.5676 128.978C30.5624 128.946 30.5626 128.914 30.556 128.882L29.1749 122.326C30.0537 122.373 32.5131 122.802 33.1503 126.095C33.1503 126.095 33.6976 128.572 30.7881 130.136Z" fill="#AD4328"/>
<path d="M150.378 127.027V108.954C150.378 108.873 150.313 108.808 150.232 108.808H149.586C149.505 108.808 149.439 108.873 149.439 108.954V125.558C148.484 125.083 147.025 125.17 145.65 125.885C143.74 126.878 142.722 128.702 143.375 129.959C144.029 131.215 146.107 131.429 148.017 130.436C149.611 129.607 150.386 128.196 150.378 127.027Z" fill="#AD4328"/>
<path d="M180.122 39.4792V53.1508C180.122 53.2121 180.172 53.2617 180.233 53.2617H180.722C180.783 53.2617 180.833 53.2121 180.833 53.1508V40.59C181.555 40.9494 182.659 40.884 183.699 40.3433C185.144 39.5921 185.914 38.2123 185.42 37.2615C184.926 36.3106 183.354 36.149 181.909 36.9002C180.703 37.5271 180.117 38.5948 180.122 39.4792Z" fill="#AD4328"/>
<path d="M166.647 35.5829V35.5892L160.585 36.8242C160.538 36.8338 160.504 36.8754 160.504 36.9238V37.7211V38.53V44.5638C160.06 44.3434 159.383 44.3834 158.745 44.7152C157.859 45.1761 157.387 46.0223 157.69 46.6056C157.993 47.1888 158.958 47.2881 159.844 46.8273C160.583 46.4427 161.069 45.7879 161.066 45.2454V38.4894C161.066 38.4469 161.096 38.4102 161.137 38.4017L166.54 37.3054C166.595 37.2942 166.647 37.3365 166.647 37.3931V43.0284C166.204 42.8079 165.527 42.8479 164.889 43.1798C164.003 43.6406 163.53 44.4869 163.833 45.0702C164.137 45.6536 165.101 45.7527 165.987 45.2919C166.727 44.9073 167.176 44.2546 167.129 43.7098H167.134V35.6133C167.134 35.5496 167.075 35.5015 167.013 35.5133L166.647 35.5829Z" fill="#AD4328"/>
<path d="M199.84 5.86064C199.038 5.46855 198.517 4.7123 198.231 3.88647C198.113 3.54397 198.031 3.18897 197.979 2.83043C197.955 2.67001 197.945 1.58397 197.935 1.42209C197.927 1.28918 197.938 1.13147 197.892 1.00522C197.804 0.765012 197.298 0.625219 197.061 0.693969C196.878 0.747303 196.877 0.983344 196.888 1.13709C196.904 1.37251 196.905 2.52897 196.905 2.76564C196.903 3.24168 196.901 3.71793 196.9 4.19418C196.898 4.81709 196.896 5.44001 196.893 6.06293C196.891 6.78063 196.889 7.49834 196.886 8.21626C196.884 8.97688 196.881 9.73772 196.878 10.4983C196.876 11.25 196.873 12.0019 196.871 12.7536C196.868 13.4446 196.866 14.1354 196.864 14.8265C196.862 15.4046 196.86 15.9829 196.858 16.5611C196.856 16.9746 196.855 17.3883 196.854 17.8019C196.853 17.999 196.852 18.196 196.851 18.3931C196.851 18.3952 196.849 18.4202 196.851 18.4213C195.84 17.9181 194.294 18.0094 192.838 18.7667C190.815 19.8188 189.736 21.7508 190.428 23.0821C191.12 24.4135 192.87 24.7046 194.893 23.6527C196.582 22.7746 197.69 21.2796 197.683 20.0413V7.89938C200.152 7.82397 202.441 10.8121 202.441 10.8121C204.746 14.8708 201.008 18.9146 201.008 18.9146C200.761 19.6813 201.267 19.5194 201.267 19.5194C202.589 18.7229 204.124 16.2092 204.124 16.2092C207.659 10.3023 199.84 5.86064 199.84 5.86064Z" fill="#AD4328"/>
<path d="M35.5324 53.2609H34.0022H25.1799V54.8584V55.1804V65.3985C24.4878 65.0544 23.4305 65.1169 22.4343 65.635C21.0503 66.3546 20.3124 67.6762 20.7859 68.5871C21.2595 69.4979 22.7653 69.6527 24.1493 68.9331C25.3043 68.3325 26.0624 67.3098 26.0572 66.4627V55.4915H34.0024H34.7732V65.3737C34.0812 65.0296 33.0239 65.0921 32.0276 65.6102C30.6437 66.3298 29.9057 67.6514 30.3793 68.5623C30.8528 69.4731 32.3587 69.6279 33.7426 68.9083C34.8976 68.3077 35.5997 67.2883 35.5259 66.4379H35.5326V55.4917H44.8634V65.399C44.1714 65.0548 43.1141 65.1173 42.1178 65.6354C40.7339 66.355 39.9959 67.6766 40.4695 68.5875C40.943 69.4983 42.4489 69.6531 43.8328 68.9335C44.9878 68.3329 45.7459 67.3102 45.7407 66.4631V55.4919V53.9179V53.2617H35.5324V53.2609Z" fill="#AD4328"/>
<path d="M127.097 25.4458C127.06 25.3289 127.015 25.2139 126.968 25.1002C127.36 24.0948 127.149 23.2856 127.149 23.2856C127.104 23.145 127.049 23.0073 126.989 22.871C127.352 21.8912 127.149 21.1112 127.149 21.1112C126.647 19.5433 125.194 18.2421 123.796 17.3748C122.647 16.6614 122.128 16.4767 121.788 15.3908C121.778 15.3117 121.762 15.23 121.736 15.1579C121.73 15.1425 121.72 15.1294 121.71 15.116C121.71 15.1142 121.709 15.1125 121.709 15.1106C121.709 15.1114 121.708 15.1121 121.708 15.1131C121.604 14.9714 121.299 14.9344 121.138 14.9812C121.001 15.021 121.008 15.1825 121.008 15.3125C121.008 15.3408 121.009 15.3706 121.009 15.3996L120.982 28.2144C120.226 27.8383 119.07 27.9421 117.981 28.5083C116.469 29.2948 115.662 30.7391 116.18 31.7346C116.697 32.73 118.343 32.8993 119.855 32.1129C121.118 31.4564 121.609 30.3725 121.603 29.4466V21.9979C121.96 22.2079 121.995 22.2498 122.553 22.5054C124.552 23.4206 126.885 25.8683 126.071 28.0769C125.963 28.3708 125.629 28.9244 125.483 29.2004C125.15 29.8277 126.009 29.6585 126.353 29.1523C127.121 28.0223 127.509 26.731 127.097 25.4458ZM122.605 18.1708C124.694 18.8562 126.091 19.7292 126.408 21.8216C126.408 21.8216 126.408 21.8402 126.41 21.8719C125.725 20.9316 124.748 20.1396 123.797 19.5487C122.857 18.9654 122.302 18.6821 121.941 17.9981C122.094 18.0435 122.289 18.0673 122.605 18.1708ZM123.745 21.7092C123.01 21.2531 122.259 20.6881 121.697 20.0494C121.907 20.2169 122.104 20.1808 122.605 20.3452C124.694 21.0306 126.091 21.9035 126.408 23.996C126.408 23.996 126.409 24.0396 126.414 24.11C125.726 23.1358 124.723 22.316 123.745 21.7092Z" fill="#AD4328"/>
<path d="M137.348 82.3909L137.826 86.3863L140.539 86.6959L137.826 87.0057L137.348 91.0011L136.869 87.0057L134.156 86.6959L136.869 86.3863L137.348 82.3909Z" fill="white"/>
<path d="M112.887 46.3868L113.365 50.3823L116.078 50.6919L113.365 51.0016L112.887 54.9969L112.408 51.0016L109.695 50.6919L112.408 50.3823L112.887 46.3868Z" fill="white"/>
<path d="M162.243 67.1617L161.345 71.0842L163.794 72.2915L161.136 71.6671L159.337 75.2665L160.235 71.3442L157.786 70.1369L160.444 70.7613L162.243 67.1617Z" fill="white"/>
<path opacity="0.67" d="M77.4031 27.5212L78.0408 30.8283L80.3245 30.9252L78.0776 31.3456L77.9166 34.7096L77.2789 31.4025L74.9951 31.3058L77.242 30.8854L77.4031 27.5212Z" fill="white"/>
</svg>