<svg width="193" height="188" viewBox="0 0 193 188" fill="none" xmlns="http://www.w3.org/2000/svg">
<path d="M71.5879 46.0067C70.4493 47.3786 70.5518 49.3798 70.5651 49.598C70.6451 50.8953 71.1849 51.8773 71.5718 52.4744C75.357 58.3165 81.2766 61.5975 81.2768 61.5975C83.5868 63.5023 86.1102 65.4523 88.8539 67.4019C92.317 69.8627 95.6733 71.9977 98.8445 73.8486C99.4298 70.6642 100.015 67.4798 100.6 64.2955C95.8 60.3705 91.9112 57.1582 88.9362 54.8034C87.2493 53.4682 85.3845 51.9403 83.5977 49.3486C82.4681 47.7103 82.7602 47.6069 82.0364 46.8398C79.4195 44.0661 73.7268 43.4296 71.5879 46.0067Z" fill="#FFB600"/>
<path opacity="0.12" d="M71.5879 46.0067C70.4493 47.3786 70.5518 49.3798 70.5651 49.598C70.6451 50.8953 71.1849 51.8773 71.5718 52.4744C75.357 58.3165 81.2766 61.5975 81.2768 61.5975C83.5868 63.5023 86.1102 65.4523 88.8539 67.4019C92.317 69.8627 95.6733 71.9977 98.8445 73.8486C99.4298 70.6642 100.015 67.4798 100.6 64.2955C95.8 60.3705 91.9112 57.1582 88.9362 54.8034C87.2493 53.4682 85.3845 51.9403 83.5977 49.3486C82.4681 47.7103 82.7602 47.6069 82.0364 46.8398C79.4195 44.0661 73.7268 43.4296 71.5879 46.0067Z" fill="black"/>
<path d="M56.1233 19.3477C58.9396 19.3477 61.2227 17.0647 61.2227 14.2484C61.2227 11.4321 58.9396 9.14899 56.1233 9.14899C53.307 9.14899 51.0239 11.4321 51.0239 14.2484C51.0239 17.0647 53.307 19.3477 56.1233 19.3477Z" fill="#0B4870"/>
<path d="M61.2227 17.5827C64.039 17.5827 66.322 15.2997 66.322 12.4833C66.322 9.66704 64.039 7.38397 61.2227 7.38397C58.4064 7.38397 56.1233 9.66704 56.1233 12.4833C56.1233 15.2997 58.4064 17.5827 61.2227 17.5827Z" fill="#0B4870"/>
<path d="M66.322 20.5246C69.1383 20.5246 71.4214 18.2415 71.4214 15.4252C71.4214 12.6089 69.1383 10.3259 66.322 10.3259C63.5057 10.3259 61.2227 12.6089 61.2227 15.4252C61.2227 18.2415 63.5057 20.5246 66.322 20.5246Z" fill="#0B4870"/>
<path d="M71.4214 24.4471C74.2377 24.4471 76.5208 22.164 76.5208 19.3477C76.5208 16.5314 74.2377 14.2484 71.4214 14.2484C68.6051 14.2484 66.322 16.5314 66.322 19.3477C66.322 22.164 68.6051 24.4471 71.4214 24.4471Z" fill="#0B4870"/>
<path d="M75.1478 30.7233C77.9641 30.7233 80.2472 28.4403 80.2472 25.624C80.2472 22.8077 77.9641 20.5246 75.1478 20.5246C72.3315 20.5246 70.0485 22.8077 70.0485 25.624C70.0485 28.4403 72.3315 30.7233 75.1478 30.7233Z" fill="#0B4870"/>
<path d="M73.775 34.6458C76.5913 34.6458 78.8744 32.3628 78.8744 29.5465C78.8744 26.7301 76.5913 24.4471 73.775 24.4471C70.9587 24.4471 68.6757 26.7301 68.6757 29.5465C68.6757 32.3628 70.9587 34.6458 73.775 34.6458Z" fill="#0B4870"/>
<path d="M71.4214 39.7452C74.2377 39.7452 76.5208 37.4621 76.5208 34.6458C76.5208 31.8295 74.2377 29.5464 71.4214 29.5464C68.6051 29.5464 66.322 31.8295 66.322 34.6458C66.322 37.4621 68.6051 39.7452 71.4214 39.7452Z" fill="#0B4870"/>
<path d="M66.322 43.4777C69.1383 43.4777 71.4214 41.1947 71.4214 38.3784C71.4214 35.5621 69.1383 33.279 66.322 33.279C63.5057 33.279 61.2227 35.5621 61.2227 38.3784C61.2227 41.1947 63.5057 43.4777 66.322 43.4777Z" fill="#0B4870"/>
<path d="M62.5956 44.8446C65.4119 44.8446 67.6949 42.5616 67.6949 39.7452C67.6949 36.9289 65.4119 34.6459 62.5956 34.6459C59.7793 34.6459 57.4962 36.9289 57.4962 39.7452C57.4962 42.5616 59.7793 44.8446 62.5956 44.8446Z" fill="#0B4870"/>
<path d="M60.046 44.8446C62.8623 44.8446 65.1454 42.5616 65.1454 39.7452C65.1454 36.9289 62.8623 34.6459 60.046 34.6459C57.2297 34.6459 54.9467 36.9289 54.9467 39.7452C54.9467 42.5616 57.2297 44.8446 60.046 44.8446Z" fill="#0B4870"/>
<path d="M61.8112 39.7452C68.4188 39.7452 73.7752 34.3888 73.7752 27.7813C73.7752 21.1738 68.4188 15.8173 61.8112 15.8173C55.2037 15.8173 49.8473 21.1738 49.8473 27.7813C49.8473 34.3888 55.2037 39.7452 61.8112 39.7452Z" fill="#0B4870"/>
<path d="M51.0242 24.4471C53.8405 24.4471 56.1235 22.164 56.1235 19.3477C56.1235 16.5314 53.8405 14.2484 51.0242 14.2484C48.2079 14.2484 45.9248 16.5314 45.9248 19.3477C45.9248 22.164 48.2079 24.4471 51.0242 24.4471Z" fill="#0B4870"/>
<path d="M48.6706 29.5465C51.4869 29.5465 53.7699 27.2634 53.7699 24.4471C53.7699 21.6308 51.4869 19.3477 48.6706 19.3477C45.8542 19.3477 43.5712 21.6308 43.5712 24.4471C43.5712 27.2634 45.8542 29.5465 48.6706 29.5465Z" fill="#0B4870"/>
<path d="M47.886 34.6458C50.7023 34.6458 52.9854 32.3628 52.9854 29.5465C52.9854 26.7301 50.7023 24.4471 47.886 24.4471C45.0697 24.4471 42.7866 26.7301 42.7866 29.5465C42.7866 32.3628 45.0697 34.6458 47.886 34.6458Z" fill="#0B4870"/>
<path d="M48.6706 41.3142C51.4869 41.3142 53.7699 39.0311 53.7699 36.2148C53.7699 33.3985 51.4869 31.1154 48.6706 31.1154C45.8542 31.1154 43.5712 33.3985 43.5712 36.2148C43.5712 39.0311 45.8542 41.3142 48.6706 41.3142Z" fill="#0B4870"/>
<path d="M52.9855 44.8446C55.8018 44.8446 58.0849 42.5616 58.0849 39.7452C58.0849 36.9289 55.8018 34.6459 52.9855 34.6459C50.1692 34.6459 47.8861 36.9289 47.8861 39.7452C47.8861 42.5616 50.1692 44.8446 52.9855 44.8446Z" fill="#0B4870"/>
<path d="M57.6475 37.5071C60.5375 43.315 68.8587 42.0348 68.8587 42.0348Z" fill="#EFB68F"/>
<path d="M59.4069 47.1827C59.4069 47.1827 49.9158 52.5984 48.0767 54.3336C48.0767 54.3336 64.7258 66.2761 82.0721 47.28C80.2698 46.5931 79.9744 46.6094 77.6065 46.0733C74.5508 45.3817 70.2517 44.4836 67.9108 44.379L59.4069 47.1827Z" fill="#EFB68F"/>
<path d="M68.3558 42.0917L68.5193 46.4262L59.6172 47.7733L56.1218 37.0958L58.2391 36.6896L68.3558 42.0917Z" fill="#EFB68F"/>
<path d="M53.4043 34.9736C53.9637 35.995 54.9379 36.7557 56.1218 37.0961C59.476 38.0294 59.4412 34.004 57.7793 32.4884C55.8014 30.6811 51.9095 32.2288 53.4043 34.9736Z" fill="#EFB68F"/>
<path d="M57.8566 48.2911C59.8335 51.1032 63.3974 52.2353 66.4368 51.1061C69.0418 50.1382 70.8739 47.6525 71.1135 44.7644C72.187 44.455 74.2054 44.0248 76.6954 44.4234C79.2068 44.8253 81.0018 45.8786 81.925 46.5115L90.1677 95.2186L61.1476 99.7379L47.8206 54.5559C48.9106 53.6421 50.1218 52.2236 51.6383 51.2877C53.9026 49.8903 56.0468 48.9427 57.8566 48.2911Z" fill="#FFB600"/>
<path d="M97.6955 107.904C96.0272 111.082 90.8116 112.283 89.4751 112.873C89.0626 113.055 87.6905 113.348 84.957 113.978C82.8512 114.463 80.6518 114.928 78.3285 115.369C76.9849 115.624 75.6632 115.859 74.3645 116.076C71.0387 116.631 71.2039 116.06 69.7843 116.157C67.7909 116.293 67.8639 116.999 63.3176 114.342C59.8653 110.321 60.3936 99.8256 59.6101 94.5256L89.0566 88.6537C91.5001 93.2154 93.5107 101.975 97.6955 107.904Z" fill="#0B4870"/>
<path d="M95.9644 179.662L100.075 164.954L94.2828 163.18L90.1674 177.867L95.9644 179.662Z" fill="#FFB600"/>
<path d="M89.4328 178.092L88.3657 182.82H107.151V182.682C107.151 181.593 106.525 180.601 105.542 180.133L96.8236 176.654C96.5099 176.505 96.1072 176.511 95.8682 176.763C94.7416 177.953 93.5043 179.889 90.0647 177.788C89.8151 177.636 89.4884 177.805 89.4328 178.092Z" fill="#0B4870"/>
<path d="M107.151 182.82H88.3657V184.06H107.151V182.82Z" fill="#FFB600"/>
<path d="M104.11 130.605C107.159 128.627 108.064 124.572 106.144 121.485L94.3124 102.465C92.0792 98.8752 87.1286 97.4242 83.3109 99.2406C82.4297 100.095 80.9709 101.734 80.0092 104.224C78.9282 107.024 79.0219 109.484 79.1561 110.736C84.589 116.956 90.0222 123.177 95.4551 129.397C97.638 131.897 101.326 132.411 104.11 130.605Z" fill="#0B4870"/>
<path d="M84.177 182.82L100.075 177.952L107.328 124.199C106.881 120.541 103.536 117.95 99.8832 118.433C96.1774 118.923 93.6105 122.38 94.213 126.069L84.177 182.82Z" fill="#0B4870"/>
<path d="M34.3442 178.26L41.8582 164.965L47.2038 167.815L39.7082 181.099L34.3442 178.26Z" fill="#FFB600"/>
<path d="M63.9059 136.453L52.7469 131.881L63.2442 103.81C64.749 99.8931 69.1753 97.9741 73.0623 99.5533C73.279 99.6412 74.0399 99.9633 74.8886 100.636C74.8886 100.636 76.5023 101.927 77.2442 103.825C78.0651 105.925 77.549 108.103 76.9717 109.797C75.5653 113.925 70.869 123.765 63.9059 136.453Z" fill="#0B4870"/>
<path d="M47.8859 186.224L31.9689 176.555L56.3924 122.243C57.7451 118.815 61.6345 117.15 65.0482 118.537C68.5114 119.944 70.1255 123.936 68.6139 127.354L47.8859 186.224Z" fill="#0B4870"/>
<path d="M42.5687 181.413L41.9802 186.224L24.2937 179.893L24.3402 179.763C24.707 178.738 25.631 178.015 26.7141 177.906L36.0945 177.569C36.4402 177.534 36.8175 177.676 36.9575 177.994C37.6175 179.493 38.1297 181.733 42.0762 180.914C42.3625 180.854 42.6131 181.124 42.5687 181.413Z" fill="#0B4870"/>
<path d="M23.8776 181.062L41.5638 187.393L41.9819 186.225L24.2957 179.894L23.8776 181.062Z" fill="#FFB600"/>
<path d="M68.3558 42.0919C68.1106 42.649 67.7137 43.2623 67.0522 43.5831C64.9753 44.5906 61.8776 41.9444 60.6324 40.8808C59.3103 39.7515 58.346 38.5554 57.6472 37.5075C58.2743 38.1894 59.0664 38.9185 68.3558 42.0919Z" fill="#E0A882"/>
<path d="M53.6115 23.4157C56.1405 18.7363 63.3568 16.5971 67.6203 19.085C69.5549 20.214 70.3601 21.9915 71.5478 24.6138C71.9109 25.4154 74.5388 31.4394 72.5126 37.8413C71.7284 40.319 70.7907 41.1354 70.1036 41.5338C68.7182 42.3367 67.2011 42.0829 65.807 41.8802C62.9815 41.4692 61.0393 40.1063 60.3257 39.5931C56.9159 37.1421 50.2853 29.57 53.6115 23.4157Z" fill="#EFB68F"/>
<path d="M53.3661 33.1786C54.0442 33.1786 54.5938 32.6289 54.5938 31.9509C54.5938 31.2728 54.0442 30.7231 53.3661 30.7231C52.6881 30.7231 52.1384 31.2728 52.1384 31.9509C52.1384 32.6289 52.6881 33.1786 53.3661 33.1786Z" fill="#0B4870"/>
<path d="M54.6399 33.5707C55.1483 33.5707 55.5605 33.1585 55.5605 32.6501C55.5605 32.1416 55.1483 31.7294 54.6399 31.7294C54.1314 31.7294 53.7192 32.1416 53.7192 32.6501C53.7192 33.1585 54.1314 33.5707 54.6399 33.5707Z" fill="#0B4870"/>
<path d="M55.5603 34.1847C55.8993 34.1847 56.1741 33.9099 56.1741 33.5709C56.1741 33.2319 55.8993 32.9572 55.5603 32.9572C55.2213 32.9572 54.9465 33.2319 54.9465 33.5709C54.9465 33.9099 55.2213 34.1847 55.5603 34.1847Z" fill="#0B4870"/>
<path d="M52.9853 31.434C53.7436 31.434 54.3582 30.8193 54.3582 30.0611C54.3582 29.3028 53.7436 28.6882 52.9853 28.6882C52.2271 28.6882 51.6124 29.3028 51.6124 30.0611C51.6124 30.8193 52.2271 31.434 52.9853 31.434Z" fill="#0B4870"/>
<path d="M52.7035 29.1542C53.4617 29.1542 54.0764 28.5395 54.0764 27.7813C54.0764 27.0231 53.4617 26.4084 52.7035 26.4084C51.9452 26.4084 51.3306 27.0231 51.3306 27.7813C51.3306 28.5395 51.9452 29.1542 52.7035 29.1542Z" fill="#0B4870"/>
<path d="M53.0703 26.9969C53.8286 26.9969 54.4432 26.3823 54.4432 25.624C54.4432 24.8658 53.8286 24.2511 53.0703 24.2511C52.3121 24.2511 51.6974 24.8658 51.6974 25.624C51.6974 26.3823 52.3121 26.9969 53.0703 26.9969Z" fill="#0B4870"/>
<path d="M53.7698 25.1915C54.528 25.1915 55.1427 24.5768 55.1427 23.8186C55.1427 23.0604 54.528 22.4457 53.7698 22.4457C53.0115 22.4457 52.3969 23.0604 52.3969 23.8186C52.3969 24.5768 53.0115 25.1915 53.7698 25.1915Z" fill="#0B4870"/>
<path d="M54.9467 23.2705C55.7049 23.2705 56.3196 22.6558 56.3196 21.8976C56.3196 21.1393 55.7049 20.5247 54.9467 20.5247C54.1884 20.5247 53.5737 21.1393 53.5737 21.8976C53.5737 22.6558 54.1884 23.2705 54.9467 23.2705Z" fill="#0B4870"/>
<path d="M56.3195 21.8976C57.0777 21.8976 57.6924 21.2829 57.6924 20.5247C57.6924 19.7664 57.0777 19.1517 56.3195 19.1517C55.5612 19.1517 54.9465 19.7664 54.9465 20.5247C54.9465 21.2829 55.5612 21.8976 56.3195 21.8976Z" fill="#0B4870"/>
<path d="M57.8708 20.7207C58.6291 20.7207 59.2438 20.106 59.2438 19.3478C59.2438 18.5895 58.6291 17.9749 57.8708 17.9749C57.1126 17.9749 56.4979 18.5895 56.4979 19.3478C56.4979 20.106 57.1126 20.7207 57.8708 20.7207Z" fill="#0B4870"/>
<path d="M59.2438 19.3478C60.002 19.3478 60.6167 18.7331 60.6167 17.9748C60.6167 17.2166 60.002 16.6019 59.2438 16.6019C58.4855 16.6019 57.8708 17.2166 57.8708 17.9748C57.8708 18.7331 58.4855 19.3478 59.2438 19.3478Z" fill="#0B4870"/>
<path d="M61.8111 18.9557C62.5694 18.9557 63.1841 18.341 63.1841 17.5828C63.1841 16.8245 62.5694 16.2098 61.8111 16.2098C61.0529 16.2098 60.4382 16.8245 60.4382 17.5828C60.4382 18.341 61.0529 18.9557 61.8111 18.9557Z" fill="#0B4870"/>
<path d="M63.9685 19.3478C64.7267 19.3478 65.3414 18.7331 65.3414 17.9748C65.3414 17.2166 64.7267 16.6019 63.9685 16.6019C63.2102 16.6019 62.5956 17.2166 62.5956 17.9748C62.5956 18.7331 63.2102 19.3478 63.9685 19.3478Z" fill="#0B4870"/>
<path d="M65.9264 19.8484C66.6846 19.8484 67.2993 19.2337 67.2993 18.4755C67.2993 17.7172 66.6846 17.1025 65.9264 17.1025C65.1681 17.1025 64.5535 17.7172 64.5535 18.4755C64.5535 19.2337 65.1681 19.8484 65.9264 19.8484Z" fill="#0B4870"/>
<path d="M67.9906 19.8484C68.7488 19.8484 69.3635 19.2337 69.3635 18.4755C69.3635 17.7172 68.7488 17.1025 67.9906 17.1025C67.2324 17.1025 66.6177 17.7172 66.6177 18.4755C66.6177 19.2337 67.2324 19.8484 67.9906 19.8484Z" fill="#0B4870"/>
<path d="M69.8745 21.2213C70.6327 21.2213 71.2474 20.6066 71.2474 19.8484C71.2474 19.0901 70.6327 18.4755 69.8745 18.4755C69.1163 18.4755 68.5016 19.0901 68.5016 19.8484C68.5016 20.6066 69.1163 21.2213 69.8745 21.2213Z" fill="#0B4870"/>
<path d="M72.7914 25.1896L57.6949 31.6327H57.6908L57.0691 31.1231L72.7151 24.4475L72.7914 25.1896Z" fill="#FFB600"/>
<path opacity="0.06" d="M72.7914 25.1896L57.6949 31.6327H57.6908L57.0691 31.1231L72.7151 24.4475L72.7914 25.1896Z" fill="#191919"/>
<path d="M73.2727 29.8956L68.9863 31.9508L67.299 31.1152L66.3202 33.2775L61.6223 34.8342L57.6948 31.6327L72.7913 25.1896L73.2727 29.8956Z" fill="#FFB600"/>
<path opacity="0.14" d="M61.6576 29.9415L61.6224 34.8342L65.0745 33.6902V28.4529L61.6576 29.9415Z" fill="white"/>
<path opacity="0.14" d="M68.9863 26.8038V31.9508L72.1276 30.4446V25.4975L68.9863 26.8038Z" fill="white"/>
<path d="M54.7593 33.5223L58.5516 32.3313L57.0689 31.1234L53.366 32.6502C53.4351 32.6486 53.7705 32.6481 54.052 32.9086C54.3099 33.1473 54.7514 33.4463 54.7593 33.5223Z" fill="#FFB600"/>
<path opacity="0.15" d="M54.7593 33.5223L58.5516 32.3313L57.0689 31.1234L53.366 32.6502C53.4351 32.6486 53.7705 32.6481 54.052 32.9086C54.3099 33.1473 54.7514 33.4463 54.7593 33.5223Z" fill="#191919"/>
<path d="M68.1882 37.0887L78.1891 40.1781L105.847 84.6211C109.537 90.5509 117.592 91.9003 123.013 87.4965L148.554 66.75L126.452 48.1813L113.506 72.8879L83.8364 37.1615C82.5299 35.5883 80.4766 34.8423 78.4651 35.21L68.1882 37.0887Z" fill="#FFB600"/>
<path d="M95.2363 60.6711C94.9413 61.5058 95.1194 61.9835 95.1194 61.9835C94.4363 62.4498 94.3355 63.3323 94.8988 63.9156L95.2977 64.3288C95.819 64.8683 96.7215 64.9535 97.354 64.5229L97.3905 64.4981C97.833 64.4369 100.245 64.0606 101.462 62.0127C102.236 60.7094 102.582 58.6348 101.749 58.0867C101.03 57.6134 99.4346 58.2811 98.0405 59.8606L98.5352 58.4173C98.598 58.2342 98.5196 58.0354 98.3417 57.9267C98.1502 57.8096 97.8938 57.8267 97.7252 57.9677L96.3892 59.0844C95.8652 59.5217 95.4519 60.0611 95.2363 60.6711Z" fill="#F7C6A4"/>
<path d="M94.6083 62.6273L74.2824 74.1542C72.5312 75.1627 72.1885 77.3173 73.5545 78.729C74.7887 80.0042 76.9418 80.1644 78.3864 79.0884L96.6054 64.7884L94.6083 62.6273Z" fill="#F7C6A4"/>
<path d="M51.8074 65.4369C55.7737 68.4648 59.9187 72.5577 70.8843 78.6311C72.0458 79.2744 74.2468 80.4571 76.4599 79.908C77.487 79.6532 78.2047 79.1028 78.6497 78.6763C78.5712 78.0707 78.3595 77.1167 77.7278 76.0746C76.9222 74.7452 75.8381 73.9407 75.2245 73.5465C68.8441 68.1025 62.4637 62.6588 56.0833 57.2148C54.182 55.7102 51.2764 55.8752 49.7349 57.5754C48.3001 59.1581 50.0095 64.0642 51.8074 65.4369Z" fill="#F7C6A4"/>
<path d="M75.2247 73.5465C71.1485 70.3448 68.2078 67.3835 66.2683 65.2598C64.1264 62.9148 61.9287 60.194 57.9878 56.4979C53.7628 52.5354 51.9418 51.5858 50.5176 52.096C49.5362 52.4475 47.882 53.7873 47.107 55.6871C47.0433 55.8433 46.9987 55.9654 46.9716 56.0396C45.5947 59.8131 50.0628 63.9 51.2191 65.204C55.7747 70.3427 72.3714 79.9746 74.3562 80.569C74.3562 80.569 76.2635 81.219 79.077 79.3413C81.8906 77.4638 97.6958 70.6756 97.6958 70.6756C97.6958 70.6756 96.9533 64.6675 93.8631 63.05L75.2247 73.5465Z" fill="#FFB600"/>
<path d="M59.1405 46.3173L55.4603 49.373L65.0745 53.7469L65.8589 51.209L59.1405 46.3173Z" fill="#FFB600"/>
<path d="M65.8589 51.209L68.3558 44.4067L71.1133 44.7646L69.0724 52.4782L65.8589 51.209Z" fill="#FFB600"/>
<path opacity="0.18" d="M75.2247 73.5465C71.1485 70.3448 68.2078 67.3835 66.2683 65.2598C64.1264 62.9148 61.9287 60.194 57.9878 56.4979C53.7628 52.5354 51.9418 51.5858 50.5176 52.096C49.5362 52.4475 47.882 53.7873 47.107 55.6871C47.0433 55.8433 46.9987 55.9654 46.9716 56.0396C45.5947 59.8131 50.0628 63.9 51.2191 65.204C55.7747 70.3427 72.3714 79.9746 74.3562 80.569C74.3562 80.569 76.2635 81.219 79.077 79.3413C81.8906 77.4638 97.6958 70.6756 97.6958 70.6756C97.6958 70.6756 96.9533 64.6675 93.8631 63.05L75.2247 73.5465Z" fill="#F9F9F9"/>
<path opacity="0.1" d="M59.1405 46.3173L55.4603 49.373L65.0745 53.7469L65.8589 51.209L59.1405 46.3173Z" fill="#141414"/>
<path opacity="0.1" d="M65.8589 51.209L68.3558 44.4067L71.1133 44.7646L69.0724 52.4782L65.8589 51.209Z" fill="#141414"/>
<path opacity="0.12" d="M126.451 48.1815C126.451 48.1815 127.19 68.9627 148.554 66.7502L126.451 48.1815Z" fill="black"/>
<path opacity="0.12" d="M87.2849 41.3142L85.5786 42.7294L88.4616 46.3173L90.1674 44.7853L87.2849 41.3142Z" fill="black"/>
<path opacity="0.12" d="M92.5257 47.5305L90.8195 48.9457L93.7024 52.5336L95.4082 51.0017L92.5257 47.5305Z" fill="black"/>
<path opacity="0.12" d="M97.1073 53.0358L95.401 54.451L98.2839 58.039L99.99 56.5069L97.1073 53.0358Z" fill="black"/>
<path opacity="0.11" d="M110.126 85.624C110.126 85.624 116.625 89.8123 121.969 84.6129C127.312 79.4136 135.833 69.015 135.833 69.015L145.365 68.1173C140.072 71.475 136.277 74.7802 133.739 77.2471C132.829 78.1315 127.129 83.7217 120.669 87.5013C119.812 88.0023 118.214 88.8979 116.119 88.8011C113.125 88.6627 110.991 86.5823 110.126 85.624Z" fill="white"/>
<path d="M133.896 60.8838C133.968 57.983 134.273 55.0619 135.099 52.2521C135.517 50.8521 136.073 49.484 136.822 48.2161C137.57 46.9509 138.521 45.7909 139.67 44.8565C140.243 44.3896 140.862 43.9794 141.515 43.6284C142.17 43.2811 142.863 43.0088 143.574 42.8021C144.998 42.3888 146.482 42.2605 147.941 42.2667C149.403 42.2692 150.851 42.3842 152.292 42.4596C153.732 42.5344 155.17 42.5742 156.592 42.445C159.441 42.2415 162.181 41.184 164.513 39.5448L165.373 38.9071C165.65 38.6817 165.916 38.4425 166.188 38.2109C166.321 38.0923 166.462 37.9815 166.59 37.8569L166.97 37.4782C167.221 37.2234 167.482 36.9784 167.726 36.7157L168.433 35.9067L168.787 35.5017L169.114 35.0746L169.769 34.2203C169.882 34.0805 169.981 33.9311 170.081 33.7815L170.382 33.3346C171.996 30.9557 173.312 28.379 174.462 25.7367L175.292 23.7388C175.559 23.0686 175.796 22.3863 176.049 21.7107L176.423 20.6946L176.759 19.6648L177.431 17.605L177.785 17.7119L177.132 19.7873L176.806 20.8252L176.441 21.8507C176.193 22.5327 175.962 23.2211 175.701 23.8982L174.886 25.9186C173.738 28.5863 172.419 31.1923 170.79 33.6121L170.486 34.0665C170.386 34.2186 170.285 34.3705 170.171 34.5132L169.508 35.3844L169.177 35.82L168.818 36.2344L168.099 37.0619C167.852 37.3309 167.586 37.583 167.33 37.8444L166.942 38.2332C166.811 38.3611 166.668 38.4757 166.531 38.5977C166.253 38.8365 165.981 39.0823 165.698 39.3148L164.816 39.9738C163.615 40.8173 162.314 41.5261 160.935 42.0409C159.561 42.5705 158.101 42.8755 156.64 42.9986C153.705 43.2555 150.804 42.8102 147.94 42.7913C146.508 42.7798 145.077 42.9013 143.715 43.2913C143.036 43.4863 142.374 43.7432 141.748 44.0719C141.125 44.4044 140.531 44.7948 139.981 45.2394C138.879 46.129 137.961 47.2384 137.233 48.4605C136.503 49.6846 135.958 51.0165 135.54 52.3857C134.702 55.13 134.367 58.0167 134.266 60.8948L133.896 60.8838Z" fill="#E2E2E2"/>
<path d="M136.407 62.7621C136.469 61.2491 136.606 59.7358 136.857 58.236C137.107 56.7369 137.464 55.2485 137.985 53.8075C138.512 52.371 139.212 50.9819 140.142 49.7412C140.259 49.5873 140.37 49.4277 140.493 49.2785L140.882 48.8441C141.014 48.7023 141.134 48.5481 141.278 48.4164L141.707 48.0204L141.923 47.8225C141.993 47.7546 142.067 47.691 142.147 47.6352L142.615 47.2844C142.922 47.0419 143.255 46.8366 143.591 46.6369C144.942 45.8421 146.489 45.3925 148.035 45.2427C149.585 45.0852 151.127 45.1852 152.638 45.331C154.151 45.4785 155.641 45.6825 157.128 45.7819C158.614 45.8854 160.098 45.8773 161.548 45.6604C162.998 45.4321 164.421 45.0227 165.774 44.4448L166.776 43.9769C167.107 43.8152 167.42 43.6183 167.744 43.441L168.226 43.1683L168.687 42.86L169.609 42.2425C172.005 40.4904 174.073 38.305 175.933 35.9656L176.619 35.0769L176.962 34.6323C177.075 34.4831 177.177 34.3254 177.285 34.1723L178.564 32.3221C179.352 31.0448 180.175 29.7869 180.889 28.4629L181.448 27.4833L181.728 26.9933L181.989 26.4929L183.028 24.4885C183.387 23.8258 183.691 23.1367 184.018 22.4579L184.995 20.4189L185.271 20.5387C184.094 23.3219 182.857 26.0871 181.411 28.751C180.719 30.1 179.91 31.3842 179.137 32.69L177.876 34.5873C177.769 34.7444 177.669 34.906 177.557 35.0594L177.217 35.5173L176.536 36.4333C174.698 38.8558 172.583 41.1008 170.122 42.9456L169.168 43.5946L168.689 43.9162L168.187 44.2031C167.85 44.3898 167.523 44.5954 167.177 44.7658L166.128 45.2598C164.708 45.8712 163.213 46.3085 161.681 46.5525C160.144 46.7777 158.591 46.7785 157.067 46.6677C155.542 46.5585 154.04 46.3552 152.55 46.1954C151.062 46.0371 149.575 45.9304 148.116 46.0654C146.661 46.1992 145.236 46.5871 143.966 47.2998C143.651 47.48 143.336 47.6654 143.047 47.8871L142.603 48.2064C142.527 48.2571 142.457 48.3152 142.39 48.3777L142.186 48.5596L141.776 48.9231C141.639 49.0437 141.524 49.1877 141.396 49.3189L141.022 49.7212C140.903 49.86 140.796 50.0098 140.682 50.1535C139.778 51.3123 139.083 52.635 138.541 54.0175C137.446 56.7902 136.966 59.7881 136.708 62.7796L136.407 62.7621Z" fill="#E2E2E2"/>
<path d="M139.033 64.6531C139.084 63.8631 139.142 63.0719 139.238 62.2839L139.312 61.6929L139.403 61.1042C139.459 60.7102 139.538 60.3206 139.612 59.9291C139.921 58.3675 140.371 56.8231 141.027 55.3508C141.686 53.8837 142.562 52.4881 143.706 51.31C144.846 50.1312 146.271 49.2006 147.855 48.6804C148.645 48.4187 149.465 48.2583 150.287 48.1814C151.109 48.1048 151.932 48.1162 152.742 48.1717C154.366 48.286 155.941 48.5821 157.496 48.8467C159.051 49.1129 160.589 49.3742 162.126 49.4512C162.894 49.4871 163.66 49.4989 164.418 49.415C164.797 49.3839 165.179 49.3637 165.553 49.2869L166.117 49.1927C166.304 49.1567 166.496 49.1419 166.679 49.0858L167.79 48.8069C167.978 48.7677 168.157 48.6987 168.338 48.6371L168.881 48.45L169.425 48.2633C169.606 48.2008 169.777 48.1119 169.954 48.0375L171.009 47.5714C171.354 47.4017 171.688 47.2064 172.028 47.0254C172.363 46.8354 172.714 46.6727 173.031 46.4489L174.005 45.8162C174.166 45.7096 174.331 45.6083 174.49 45.4975L174.956 45.1481C177.468 43.3196 179.709 41.1125 181.797 38.7729C185.908 34.0212 189.407 28.7325 192.658 23.3004C191.935 24.7079 191.224 26.1256 190.466 27.5185L189.284 29.5833L188.691 30.6154C188.491 30.9581 188.272 31.2894 188.063 31.6269L186.784 33.6379C186.578 33.9777 186.339 34.2958 186.114 34.6237L185.43 35.6019L184.745 36.5792C184.518 36.9062 184.259 37.2104 184.018 37.5273C183.524 38.1529 183.042 38.7881 182.539 39.4067L180.966 41.2152C180.711 41.5235 180.419 41.7981 180.14 42.0854L179.296 42.9404L178.874 43.3679C178.732 43.5096 178.577 43.6377 178.429 43.7733L177.531 44.5762C176.948 45.1296 176.29 45.5994 175.659 46.1002L175.182 46.4714C175.019 46.5898 174.846 46.696 174.678 46.8087L173.665 47.4758C173.336 47.7102 172.967 47.886 172.616 48.0877C172.259 48.2806 171.909 48.4869 171.546 48.6683L170.433 49.1694C170.246 49.2494 170.065 49.3435 169.872 49.4117L169.295 49.615L168.717 49.8177C168.524 49.8846 168.334 49.9583 168.133 50.0025L166.944 50.3071C166.747 50.3646 166.541 50.3812 166.34 50.4187L165.732 50.5162C165.33 50.5948 164.919 50.6158 164.51 50.6467C163.693 50.7304 162.871 50.7133 162.059 50.67C160.434 50.5729 158.844 50.3064 157.286 50.0085C155.728 49.7129 154.191 49.3969 152.656 49.261C151.126 49.1273 149.591 49.1769 148.148 49.6073C147.427 49.82 146.735 50.1273 146.085 50.5142L145.612 50.8287L145.375 50.9858C145.295 51.0364 145.217 51.0904 145.146 51.1537L144.705 51.5139L144.483 51.6935C144.412 51.7567 144.347 51.8262 144.278 51.8923C143.167 52.9396 142.28 54.2279 141.578 55.6133C140.865 56.9973 140.353 58.4887 139.948 60.0079C139.85 60.3889 139.746 60.7691 139.665 61.155L139.536 61.7323L139.424 62.3133C139.266 63.0873 139.147 63.8694 139.033 64.6531Z" fill="#E2E2E2"/>
<path d="M15.7845 120.768C14.9176 120.095 13.4774 119.818 12.4241 119.767C11.8706 119.74 11.8022 119.854 11.5293 119.452C11.2758 119.079 11.2687 118.19 11.1756 117.742C10.9399 116.606 10.7041 115.47 10.4685 114.334C12.9693 112.789 14.8435 110.26 15.5943 107.418C16.3451 104.576 15.9645 101.451 14.5531 98.8725C14.1033 98.0504 13.3839 97.1946 12.4483 97.2464C11.7483 97.2852 11.1876 97.8306 10.7608 98.3867C9.40743 100.15 8.6991 102.349 8.48493 104.562C8.27077 106.774 8.52805 109.008 8.95555 111.189C8.99639 111.397 9.03806 111.616 8.96868 111.817C8.89368 112.034 8.70326 112.187 8.5216 112.327C5.88597 114.361 3.0493 116.412 1.65555 119.436C0.82847 121.23 0.580761 123.286 0.957845 125.225C1.34639 127.224 2.44451 129.136 4.16431 130.225C5.29097 130.939 6.61681 131.271 7.93389 131.48C9.60118 131.746 11.326 131.831 12.9643 131.424C13.1526 132.42 13.3131 133.423 13.4368 134.43C13.5345 135.224 13.6333 136.033 13.6695 136.838C13.6812 137.096 13.6608 137.346 13.6608 137.602C13.6091 138.128 13.4039 138.646 13.121 139.089C12.9949 139.286 12.8504 139.472 12.6897 139.642C12.2026 140.157 11.5895 140.538 10.9433 140.821C10.4831 141.022 9.98702 141.146 9.48472 141.17C9.23222 141.182 8.97847 141.169 8.72889 141.128C8.70868 141.124 8.68514 141.12 8.66389 141.117C9.66243 140.577 10.3487 139.534 10.3487 138.32C10.3487 136.557 8.91993 135.129 7.15764 135.129C5.39535 135.129 3.9666 136.557 3.9666 138.32C3.9666 138.854 4.11035 139.35 4.34243 139.792L4.32389 139.787C4.3691 139.874 4.42264 139.949 4.47181 140.031C4.4916 140.062 4.50806 140.095 4.52889 140.125C6.20097 142.766 9.86785 142.622 9.86785 142.622C10.3145 142.642 10.7883 142.547 11.217 142.437C12.1754 142.191 13.0749 141.711 13.7691 141C14.1004 140.661 14.382 140.275 14.611 139.861C14.7989 139.521 14.9651 139.164 15.0528 138.784C15.1747 138.257 15.1364 137.718 15.0853 137.184C14.967 135.946 14.7374 134.721 14.4929 133.498C14.4349 133.209 14.3772 132.919 14.3193 132.63C14.216 132.114 14.1126 131.597 14.0093 131.08C14.0041 131.054 13.9989 131.028 13.9937 131.002C13.9937 131.002 17.0639 130.106 17.7035 127.42C17.7035 127.42 18.9187 123.198 15.7845 120.768ZM10.2833 101.615C11.536 99.9262 14.2418 100.676 14.4351 102.769C14.4351 102.769 14.8162 105.77 12.2026 108.743C11.7778 109.322 10.8743 110.205 9.82097 111.154L9.5066 109.662C9.48389 109.552 9.46889 109.274 9.45181 109.163C9.17389 107.374 9.12722 104.809 9.29597 103.815C9.51951 102.497 10.2833 101.615 10.2833 101.615ZM5.21389 129.092C3.90764 127.984 2.9566 126.388 2.87451 124.677C2.78014 122.711 3.80889 120.861 5.0416 119.326C6.29431 117.767 7.79118 116.406 9.46118 115.305C9.74785 116.546 10.0345 117.787 10.321 119.027C10.3814 119.289 10.4397 119.573 10.3276 119.816C10.2053 120.082 9.91847 120.221 9.6616 120.361C7.77597 121.389 6.62035 123.451 6.5818 125.58C6.56722 126.383 6.68806 127.215 7.11597 127.895C7.54368 128.575 8.32743 129.071 9.12618 128.985C8.78285 129.022 8.23347 127.539 8.15722 127.286C7.94451 126.582 7.90097 125.823 8.03555 125.099C8.32118 123.564 9.48326 122.511 11.0533 122.364C11.6176 124.907 12.272 127.927 12.8035 130.575C12.8062 130.588 12.8087 130.601 12.8112 130.614C10.2422 131.432 7.26972 130.837 5.21389 129.092ZM13.7881 130.136L13.5676 128.978C13.5624 128.946 13.5626 128.914 13.556 128.882L12.1749 122.326C13.0537 122.373 15.5131 122.802 16.1503 126.095C16.1503 126.095 16.6976 128.572 13.7881 130.136Z" fill="#FFB600"/>
<path d="M133.378 127.027V108.954C133.378 108.873 133.312 108.808 133.232 108.808H132.585C132.504 108.808 132.439 108.873 132.439 108.954V125.558C131.484 125.083 130.025 125.17 128.65 125.885C126.74 126.878 125.721 128.702 126.375 129.959C127.028 131.215 129.107 131.429 131.016 130.436C132.611 129.607 133.385 128.196 133.378 127.027Z" fill="#FFB600"/>
<path d="M163.122 39.4792V53.1508C163.122 53.2121 163.172 53.2617 163.233 53.2617H163.722C163.783 53.2617 163.833 53.2121 163.833 53.1508V40.59C164.555 40.9494 165.659 40.884 166.699 40.3433C168.144 39.5921 168.914 38.2123 168.42 37.2615C167.926 36.3106 166.354 36.149 164.909 36.9002C163.703 37.5271 163.117 38.5948 163.122 39.4792Z" fill="#FFB600"/>
<path d="M149.647 35.5829V35.5892L143.585 36.8242C143.538 36.8338 143.503 36.8754 143.503 36.9238V37.7211V38.53V44.5638C143.06 44.3433 142.383 44.3833 141.745 44.7152C140.859 45.1761 140.387 46.0223 140.69 46.6056C140.993 47.1888 141.957 47.2881 142.844 46.8273C143.583 46.4427 144.069 45.7879 144.066 45.2454V38.4894C144.066 38.4469 144.096 38.4102 144.137 38.4017L149.54 37.3054C149.595 37.2942 149.647 37.3365 149.647 37.3931V43.0283C149.204 42.8079 148.527 42.8479 147.889 43.1798C147.002 43.6406 146.53 44.4869 146.833 45.0702C147.137 45.6536 148.101 45.7527 148.987 45.2919C149.727 44.9073 150.176 44.2546 150.129 43.7098H150.133V35.6133C150.133 35.5496 150.075 35.5015 150.013 35.5133L149.647 35.5829Z" fill="#FFB600"/>
<path d="M182.84 5.86064C182.038 5.46855 181.517 4.7123 181.231 3.88647C181.113 3.54397 181.031 3.18897 180.979 2.83043C180.955 2.67001 180.945 1.58397 180.935 1.42209C180.927 1.28918 180.938 1.13147 180.892 1.00522C180.804 0.765012 180.298 0.625219 180.061 0.693969C179.878 0.747303 179.877 0.983344 179.888 1.13709C179.904 1.37251 179.905 2.52897 179.905 2.76564C179.903 3.24168 179.901 3.71793 179.9 4.19418C179.898 4.81709 179.896 5.44001 179.893 6.06293C179.891 6.78063 179.889 7.49834 179.886 8.21626C179.884 8.97688 179.881 9.73772 179.878 10.4983C179.876 11.25 179.873 12.0019 179.871 12.7536C179.868 13.4446 179.866 14.1354 179.864 14.8265C179.862 15.4046 179.86 15.9829 179.858 16.5611C179.856 16.9746 179.855 17.3883 179.854 17.8019C179.853 17.999 179.852 18.196 179.851 18.3931C179.851 18.3952 179.849 18.4202 179.851 18.4213C178.84 17.9181 177.294 18.0094 175.838 18.7667C173.815 19.8188 172.736 21.7508 173.428 23.0821C174.12 24.4135 175.87 24.7046 177.893 23.6527C179.582 22.7746 180.69 21.2796 180.683 20.0413V7.89938C183.152 7.82397 185.441 10.8121 185.441 10.8121C187.746 14.8708 184.008 18.9146 184.008 18.9146C183.761 19.6813 184.267 19.5194 184.267 19.5194C185.589 18.7229 187.124 16.2092 187.124 16.2092C190.659 10.3023 182.84 5.86064 182.84 5.86064Z" fill="#FFB600"/>
<path d="M18.5323 53.2609H17.0021H8.17978V54.8584V55.1804V65.3985C7.48769 65.0544 6.4304 65.1169 5.43415 65.635C4.05019 66.3546 3.31228 67.6763 3.78582 68.5871C4.25936 69.4979 5.7652 69.6527 7.14915 68.9331C8.30415 68.3325 9.06228 67.3098 9.05707 66.4627V55.4915H17.0023H17.7731V65.3738C17.081 65.0296 16.0237 65.0921 15.0275 65.6102C13.6435 66.3298 12.9056 67.6515 13.3792 68.5623C13.8527 69.4731 15.3585 69.6279 16.7425 68.9083C17.8975 68.3077 18.5996 67.2883 18.5258 66.4379H18.5325V55.4917H27.8633V65.399C27.1712 65.0548 26.1139 65.1173 25.1177 65.6354C23.7337 66.355 22.9958 67.6767 23.4694 68.5875C23.9429 69.4983 25.4487 69.6531 26.8327 68.9335C27.9877 68.3329 28.7458 67.3102 28.7406 66.4631V55.4919V53.9179V53.2617H18.5323V53.2609Z" fill="#FFB600"/>
<path d="M110.097 25.4458C110.06 25.3289 110.015 25.2139 109.968 25.1002C110.36 24.0948 110.149 23.2856 110.149 23.2856C110.104 23.145 110.048 23.0073 109.989 22.871C110.352 21.8912 110.149 21.1112 110.149 21.1112C109.646 19.5433 108.194 18.2421 106.796 17.3748C105.647 16.6614 105.128 16.4767 104.788 15.3908C104.778 15.3117 104.762 15.23 104.736 15.1579C104.73 15.1425 104.72 15.1294 104.71 15.116C104.71 15.1142 104.709 15.1125 104.709 15.1106C104.709 15.1114 104.708 15.1121 104.708 15.1131C104.604 14.9714 104.298 14.9344 104.138 14.9812C104.001 15.021 104.008 15.1825 104.008 15.3125C104.008 15.3408 104.009 15.3706 104.009 15.3996L103.982 28.2144C103.226 27.8383 102.07 27.9421 100.981 28.5083C99.4687 29.2948 98.6622 30.7392 99.1797 31.7346C99.6972 32.73 101.343 32.8994 102.855 32.1129C104.118 31.4564 104.609 30.3725 104.603 29.4466V21.9979C104.96 22.2079 104.995 22.2498 105.553 22.5054C107.552 23.4206 109.885 25.8683 109.071 28.0769C108.963 28.3708 108.629 28.9244 108.483 29.2004C108.15 29.8277 109.009 29.6585 109.353 29.1523C110.121 28.0223 110.509 26.731 110.097 25.4458ZM105.605 18.1708C107.694 18.8562 109.091 19.7292 109.407 21.8217C109.407 21.8217 109.408 21.8402 109.41 21.8719C108.725 20.9317 107.748 20.1396 106.796 19.5487C105.856 18.9654 105.302 18.6821 104.941 17.9981C105.094 18.0435 105.289 18.0673 105.605 18.1708ZM106.745 21.7092C106.01 21.2531 105.258 20.6881 104.696 20.0494C104.907 20.2169 105.104 20.1808 105.605 20.3452C107.694 21.0306 109.091 21.9035 109.408 23.996C109.408 23.996 109.409 24.0396 109.413 24.11C108.726 23.1358 107.722 22.316 106.745 21.7092Z" fill="#FFB600"/>
<path d="M120.348 82.3909L120.826 86.3863L123.539 86.6959L120.826 87.0057L120.348 91.0011L119.869 87.0057L117.156 86.6959L119.869 86.3863L120.348 82.3909Z" fill="white"/>
<path d="M95.8866 46.3868L96.365 50.3823L99.0783 50.6918L96.365 51.0016L95.8866 54.9969L95.4083 51.0016L92.6949 50.6918L95.4083 50.3823L95.8866 46.3868Z" fill="white"/>
<path d="M145.243 67.1617L144.345 71.0842L146.794 72.2915L144.135 71.6671L142.337 75.2665L143.235 71.3442L140.785 70.1369L143.444 70.7613L145.243 67.1617Z" fill="white"/>
<path opacity="0.67" d="M60.4029 27.5212L61.0406 30.8283L63.3243 30.9252L61.0775 31.3456L60.9164 34.7096L60.2787 31.4025L57.995 31.3058L60.2419 30.8854L60.4029 27.5212Z" fill="white"/>
</svg>