<svg width="171" height="224" viewBox="0 0 171 224" fill="none" xmlns="http://www.w3.org/2000/svg">
<g opacity="0.1" clip-path="url(#clip0_15_1448-058764)">
<path d="M4.29283 144.806C0.181442 134.322 5.36535 122.449 15.8491 118.338L74.6143 95.292C79.3795 93.4233 81.7359 88.0262 79.8671 83.261L60.7527 34.5205C55.1464 20.2248 38.9552 13.1556 24.6596 18.7619L0.462145 28.2514C-13.8335 33.8577 -20.9027 50.0488 -15.2964 64.3445L-9.7383 78.5172L28.2862 63.6052C31.1502 62.4821 34.3817 63.893 35.5049 66.757C36.628 69.6209 35.2171 72.8524 32.3532 73.9756L-30.2145 98.5126C-44.5102 104.119 -51.5793 120.31 -45.973 134.606L-36.4836 158.803C-30.8773 173.099 -14.6862 180.168 -0.390493 174.562L13.7823 169.004L4.29283 144.806ZM10.765 54.5229C7.90099 55.646 4.66953 54.2352 3.54636 51.3712C2.42319 48.5072 3.83408 45.2757 6.69807 44.1525C9.56207 43.0294 12.7935 44.4403 13.9167 47.3042C15.0399 50.1682 13.629 53.3997 10.765 54.5229Z" fill="white"/>
<path d="M94.9208 49.4384L80.748 54.9965L90.2375 79.194C94.3489 89.6777 89.165 101.551 78.6812 105.662L19.916 128.708C15.1508 130.577 12.7944 135.974 14.6632 140.739L33.7776 189.48C39.3839 203.775 55.5751 210.844 69.8707 205.238L94.0682 195.749C108.364 190.142 115.433 173.951 109.827 159.656L104.269 145.483L66.2441 160.395C63.3801 161.518 60.1486 160.107 59.0255 157.243C57.9023 154.379 59.3132 151.148 62.1772 150.025L124.745 125.487C139.04 119.881 146.11 103.69 140.503 89.3944L131.014 65.197C125.408 50.9013 109.216 43.8321 94.9208 49.4384ZM83.7653 169.477C86.6293 168.354 89.8608 169.765 90.984 172.629C92.1071 175.493 90.6962 178.724 87.8322 179.848C84.9683 180.971 81.7368 179.56 80.6136 176.696C79.4905 173.832 80.9013 170.6 83.7653 169.477Z" fill="white"/>
</g>
<defs>
<clipPath id="clip0_15_1448-058764">
<rect width="190.11" height="190.11" fill="white" transform="translate(-75.9326 58.2109) rotate(-21.4135)"/>
</clipPath>
</defs>
</svg>