<svg width="193" height="224" viewBox="0 0 193 224" fill="none" xmlns="http://www.w3.org/2000/svg">
<g opacity="0.1" clip-path="url(#clip0_1414_20-040622)">
<path d="M61.9918 119.907C69.2504 114.14 70.4601 103.582 64.6937 96.3229C58.9274 89.0643 48.3686 87.8546 41.1101 93.6209C33.8515 99.3872 32.6418 109.946 38.4082 117.205C44.1745 124.463 54.7333 125.673 61.9918 119.907Z" fill="white"/>
<path d="M75.4703 136.872C57.0127 151.535 39.159 162.174 23.8035 167.626C13.854 171.174 4.37544 172.896 -3.58707 172.603C-12.0248 172.302 -18.4181 169.737 -22.0163 165.208C-28.9214 156.516 -26.151 140.437 -14.5638 122.178C-5.09231 107.224 9.96017 91.1234 27.8155 76.9388C45.3567 63.0039 64.1461 52.0914 80.7353 46.2577C90.4338 42.8234 99.5519 41.1313 107.102 41.2824C115.337 41.4881 121.553 43.9375 125.068 48.3621C132.243 57.3945 128.846 74.9966 116.185 94.3217C107.24 108.004 92.7758 123.124 75.4703 136.872ZM32.8334 83.2015C15.8943 96.6581 1.09362 112.43 -7.76888 126.431C-18.406 143.252 -19.4296 155.509 -15.7067 160.196C-11.8382 165.065 1.35081 167.1 21.1243 160.06C35.6382 154.893 52.728 144.69 70.4786 130.589C87.1297 117.361 100.991 102.933 109.479 89.9123C121.369 71.7125 122.658 58.1764 118.811 53.3329C116.835 50.8457 112.62 49.411 106.924 49.2819C100.35 49.1236 92.1981 50.6885 83.4199 53.776C67.667 59.3724 49.6938 69.8072 32.8334 83.2015Z" fill="white"/>
<path d="M73.7691 195.958C71.0986 198.08 68.2848 199.375 65.3799 199.804C54.4134 201.427 41.8536 190.993 31.8145 171.851C23.5704 156.152 17.1774 135.096 13.8132 112.531C10.5207 90.3783 10.4381 68.6651 13.6565 51.3757C15.5291 41.2619 18.6035 32.4995 22.5315 26.0481C26.8115 19.0183 32.0476 14.8586 37.6171 14.0212C49.0225 12.3055 62.5961 24.07 72.9905 44.6801C80.3819 59.3059 86.2455 79.3731 89.5234 101.238C92.9948 124.53 93.2789 145.314 90.3469 161.351C88.4419 171.747 85.189 180.822 80.9675 187.549C78.7779 191.082 76.3348 193.92 73.7691 195.958ZM17.7578 111.959L21.7285 111.367C24.9192 132.746 31.1619 153.452 38.9029 168.142C48.164 185.766 58.2864 192.756 64.1693 191.884C65.6218 191.669 67.1804 190.943 68.7774 189.675C73.9874 185.536 79.5614 175.727 82.4666 159.925C85.2494 144.775 84.9362 124.868 81.6027 102.449C78.4683 81.4093 72.8628 62.2046 65.8605 48.3372C56.0415 28.9354 44.9717 21.0751 38.8223 21.9888C35.6979 22.4638 32.3407 25.3871 29.3788 30.2595C25.9497 35.8875 23.2441 43.7165 21.5522 52.8752C18.5039 69.3036 18.574 90.0873 21.7493 111.393L17.7578 111.959Z" fill="white"/>
<path d="M133.472 148.658C126.351 154.315 113.907 157.197 98.0348 156.568C80.3138 155.87 58.8946 150.894 37.6489 142.534C16.7889 134.337 -2.03596 123.542 -15.4331 112.107C-23.2589 105.427 -29.3081 98.4042 -32.9512 91.7755C-36.9057 84.54 -37.9119 77.9517 -35.8312 72.6689C-31.6274 61.9417 -14.6516 56.057 8.40424 57.342C24.746 58.2386 45.0739 63.1853 65.6365 71.2765C87.5654 79.9049 105.729 90.0297 118.132 100.589C126.177 107.436 132.428 114.769 136.17 121.789C140.144 129.265 141.103 136.062 138.985 141.46C137.936 144.171 136.064 146.599 133.472 148.658ZM40.5987 135.066C60.7284 142.989 81.798 147.901 98.3599 148.538C118.237 149.316 129.357 144.069 131.543 138.489C133.824 132.706 128.989 120.276 112.983 106.686C101.226 96.7246 83.8439 87.0463 62.7337 78.7497C42.922 70.9587 23.4759 66.2082 7.98522 65.3615C-13.7236 64.1595 -26.0564 69.8145 -28.3372 75.5979C-29.5065 78.5339 -28.6285 82.9181 -25.8936 87.9197C-22.7227 93.6851 -17.3029 99.97 -10.2111 105.994C2.51433 116.852 20.5367 127.175 40.5987 135.066Z" fill="white"/>
</g>
<defs>
<clipPath id="clip0_1414_20-040622">
<rect width="200.62" height="200.62" fill="white" transform="translate(-89.1729 90.6177) rotate(-38.4642)"/>
</clipPath>
</defs>
</svg>