<svg width="248" height="441" viewBox="0 0 248 441" fill="none" xmlns="http://www.w3.org/2000/svg">
<g clip-path="url(#clip0_9_124-851130)">
<path d="M248.001 406.579V410L245.634 413.421V407.368L248.001 406.579Z" fill="#7E412D"/>
<path d="M24.9712 409.474V413.684L28.1273 415.789L29.1793 410.789L24.9712 409.474Z" fill="#7E412D"/>
<path d="M72.3125 421.579L33.9137 409.211C33.9137 409.211 26.2865 407.369 24.9715 412.105C24.4455 414.211 25.4975 416.316 27.3385 417.369C34.4397 421.579 56.5322 433.684 72.5755 434.211L205.656 434.737C206.182 434.737 206.708 434.737 207.234 434.474C212.758 432.632 248 420.263 248 410C248 403.158 206.182 422.105 206.182 422.105L72.3125 421.579Z" fill="#7E412D"/>
<path d="M72.3125 418.421L33.9137 406.053C33.9137 406.053 26.5495 404.211 24.9715 408.684C24.1825 410.79 25.2345 412.895 27.0755 413.947C34.1767 418.158 56.2692 430.263 72.3125 430.789L206.182 431.316C206.182 431.316 247.737 417.895 247.737 406.579C247.737 399.737 205.919 418.684 205.919 418.684L72.3125 418.421Z" fill="#BC7153"/>
<path d="M86.7777 444.474C86.7777 450.263 82.3066 455 76.5205 455C70.7343 455 66.0002 450.526 66.0002 444.737C66.0002 438.947 70.4713 434.21 76.2575 434.21C82.0436 434.21 86.7777 438.684 86.7777 444.474Z" fill="#17161C"/>
<path d="M204.605 444.474C204.605 450.263 200.134 455 194.348 455C188.561 455 183.827 450.526 183.827 444.737C183.827 438.947 188.298 434.21 194.085 434.21C199.608 434.21 204.342 438.684 204.605 444.474Z" fill="#17161C"/>
<path d="M197.504 444.474C197.504 446.316 195.926 447.895 194.085 448.158C192.244 448.158 190.666 446.579 190.403 444.737C190.403 442.895 191.981 441.316 193.822 441.053C195.663 440.789 197.504 442.631 197.504 444.474Z" fill="#C6C6C6"/>
<path d="M-1.85583 373.947L23.1297 345.79L31.8089 361.053L6.56035 385.263L-1.85583 373.947Z" fill="#E2E2E2"/>
<path d="M0.24884 371.053C0.774853 370.263 0.24884 369.211 -0.540176 368.684C-2.11821 368.158 -5.01128 367.368 -8.95636 367.632C-16.0575 368.421 -17.8986 370.526 -17.8986 370.526L11.2951 428.421C14.4512 426.842 16.0292 423.421 15.5032 419.737L8.40202 388.158L11.0321 382.632C11.2951 382.105 10.7691 381.316 10.2431 381.316H5.24595C4.98294 381.842 -2.90723 377.368 0.24884 371.053Z" fill="#1D1C21"/>
<path d="M11.2184 428.826L-18.0667 370.807L-21.8228 372.705L7.46226 430.724L11.2184 428.826Z" fill="#EFEEED"/>
<path d="M72.8383 183.684L93.3528 309.211C95.1938 322.368 84.1476 333.684 70.9973 331.842C62.8441 330.79 56.2689 325 54.1649 316.842L26.8123 214.211C25.4973 209.211 25.4973 203.947 26.5493 198.947L31.2834 175.526L72.8383 183.684Z" fill="#060324"/>
<path d="M54.4276 298.158L8.92761 352.895L30.7571 376.842L85.7253 329.211C94.9305 321.053 95.9825 307.105 87.8294 297.895C79.1502 287.632 63.1068 287.632 54.4276 298.158Z" fill="#060324"/>
<path d="M114.656 409.211L119.653 370.526L137.275 368.684L128.333 405.79L114.656 409.211Z" fill="#E2E2E2"/>
<path d="M115.971 404.474C115.445 403.684 114.393 403.421 113.604 404.211C112.289 405.263 110.448 407.369 108.87 411.316C106.24 417.895 107.292 420.79 107.292 420.79L172.255 421.053C172.255 417.632 169.888 414.474 166.469 413.421L135.171 405.263L131.752 400.263C131.226 399.737 130.437 399.737 130.174 400.526L127.807 405C127.807 405 120.18 410.263 115.971 404.474Z" fill="#1D1C21"/>
<path d="M172.273 421.019L107.31 420.579L107.282 424.79L172.244 425.23L172.273 421.019Z" fill="#EFEEED"/>
<path d="M36.5436 227.895L115.445 213.158L90.9858 165L33.3876 170.526L36.5436 227.895Z" fill="#060324"/>
<path d="M115.445 285.526L110.711 375.789L142.798 381.053L156.211 309.474C158.578 297.368 150.425 285.789 138.327 283.684C125.177 281.053 115.971 272.105 115.445 285.526Z" fill="#060324"/>
<path d="M115.445 213.158L153.844 292.368C158.578 303.158 152.529 315.263 141.22 318.158C133.33 320 124.914 316.579 120.705 309.737L59.6881 213.158H115.445Z" fill="#060324"/>
<path d="M176.725 230L201.184 232.895C202.499 233.158 203.289 233.947 203.552 235.263C203.815 236.579 202.762 237.895 201.447 238.158L194.609 239.211L204.867 250.526C206.182 252.105 205.656 254.211 203.815 255L193.294 259.211C192.505 259.474 191.453 259.474 190.664 258.947C185.404 255.526 170.939 245 164.89 236.053L176.725 230Z" fill="#F9BFA1"/>
<path d="M107.818 103.158L111.237 179.474C111.763 188.947 121.757 195 130.173 190.79C134.907 188.684 140.167 181.053 140.167 176.053L137.537 102.368C137.537 94.2105 130.962 87.6316 122.809 87.6316C114.393 87.3684 107.555 94.4737 107.818 103.158Z" fill="#FC5B5B"/>
<path d="M135.696 168.947L185.141 229.211L169.098 243.158L115.182 188.421C108.607 181.842 111.763 170.526 120.705 168.158C125.439 166.842 132.54 165.526 135.696 168.947Z" fill="#FC5B5B"/>
<path d="M114.13 79.2106C114.13 79.2106 83.6213 70.5263 68.104 81.8421C52.5867 93.1579 19.7109 184.211 19.7109 184.211C19.7109 184.211 41.5404 215.263 103.873 194.737C104.136 193.421 107.555 147.632 107.555 147.632C118.338 136.053 152.792 101.579 130.173 86.0527L114.13 79.2106Z" fill="#FC5B5B"/>
<path d="M109.922 145.263C109.922 145.263 118.338 134.737 128.332 120.263" stroke="#E54141" stroke-width="0.75" stroke-miterlimit="10"/>
<path d="M-8.95647 195.263L7.34989 213.684C8.13891 214.737 8.13891 216.053 7.6129 217.105C6.56087 218.158 5.24585 218.421 3.93082 217.895L-1.85531 214.21V229.474C-1.85531 231.316 -3.95935 232.895 -5.8004 232.105L-16.3206 228.421C-17.1096 227.895 -17.6357 227.105 -17.8987 226.316C-19.7397 220.263 -26.3148 201.579 -21.8437 192.105L-8.95647 195.263Z" fill="#F9BFA1"/>
<path d="M74.1534 78.6842L3.66784 107.632C-5.01135 111.316 -7.3784 122.632 -0.540251 129.211C3.14183 132.895 10.769 136.842 15.7661 135L77.3095 109.737C84.9366 107.105 88.8817 98.6842 86.2517 91.0526C83.3586 82.8947 82.0436 75.2632 74.1534 78.6842Z" fill="#FC5B5B"/>
<path d="M24.4451 126.316L-4.22254 199.737L-25 192.368L-3.95954 116.052C-1.59249 107.105 9.71676 104.21 16.2919 110.789C19.711 113.947 26.0231 121.842 24.4451 126.316Z" fill="#FC5B5B"/>
<path d="M43.9078 123.421L73.3645 111.316" stroke="#E54141" stroke-width="0.75" stroke-miterlimit="10"/>
<path d="M97.2979 76.3159L90.4597 75.7896C90.4597 75.7896 85.9886 92.1053 104.136 96.8422C106.503 97.3685 108.87 97.6317 110.974 97.3685C115.445 96.8422 122.546 94.2106 124.65 83.6843L120.968 82.1053L97.2979 76.3159Z" fill="#F5BFA1"/>
<path d="M96.5086 78.4213L106.24 55.2634L130.436 65.2634L120.705 88.4213C117.812 95.0003 110.185 98.1582 103.61 95.5266C97.0346 92.895 93.8785 85.0003 96.5086 78.4213Z" fill="#F5BFA1"/>
<path d="M107.818 48.9475C107.818 48.9475 98.3497 78.9475 121.494 86.5791L127.543 72.1054L107.818 48.9475Z" fill="#E39780"/>
<path d="M161.734 58.9475C160.682 63.4212 156.211 66.3159 151.74 65.2633C147.269 64.2106 144.376 59.7369 145.428 55.2633C146.48 50.7896 150.951 47.8948 155.422 48.9475C160.156 49.7369 162.786 54.2106 161.734 58.9475Z" fill="#E39780"/>
<path d="M163.575 32.3686C163.575 32.3686 170.939 48.6844 152.266 52.3686L149.11 50.0002C149.11 50.0002 145.691 33.4212 155.422 26.5791L163.575 32.3686Z" fill="#171E21"/>
<path d="M125.702 80.5264L124.913 80.2632C111.5 77.1053 103.347 63.9474 106.503 50.5264L112.815 23.4211C113.604 20.0001 117.023 17.8948 120.442 18.6843L152.266 26.0527C158.315 27.3685 162.26 33.6843 160.682 39.7369L155.422 62.1053C152.529 75.2632 139.116 83.6843 125.702 80.5264Z" fill="#F5BFA1"/>
<path d="M134.907 52.8949C134.644 53.9476 133.329 54.4739 132.277 54.2107C131.225 53.9476 130.699 52.6318 130.962 51.5791C131.225 50.5265 132.54 50.0002 133.592 50.2634C134.644 50.7897 135.17 51.8423 134.907 52.8949Z" fill="#171E21"/>
<path d="M151.74 56.8422C151.477 57.8948 150.162 58.4211 149.11 58.158C148.058 57.8948 147.532 56.579 147.795 55.5264C148.058 54.4738 149.373 53.9475 150.425 54.2106C151.477 54.4738 152.003 55.7896 151.74 56.8422Z" fill="#171E21"/>
<path d="M143.324 57.1055L142.535 62.8949C142.535 62.8949 141.483 65.7897 137.538 63.6844" stroke="#E39780" stroke-width="0.6122" stroke-miterlimit="10" stroke-linecap="round" stroke-linejoin="round"/>
<path d="M128.859 45.2633H129.122L138.064 47.1054C139.116 47.3686 139.905 46.5791 140.168 45.5265C140.431 44.4738 139.642 43.6844 138.59 43.4212L130.174 41.8423C129.122 41.5791 128.333 42.3686 128.07 43.4212C127.807 44.2107 128.07 45.0002 128.859 45.2633Z" fill="#171E21"/>
<path d="M149.373 49.7369H149.636L155.16 50.7896C156.212 51.0527 157.264 50.2632 157.264 49.2106C157.527 48.158 156.738 47.1053 155.686 47.1053L150.162 46.0527C149.11 45.7896 148.058 46.579 148.058 47.6317C148.058 48.4211 148.584 49.2106 149.373 49.7369Z" fill="#171E21"/>
<path d="M129.648 63.6843C129.648 63.6843 129.385 68.9475 138.59 70.0001" stroke="#E39780" stroke-width="0.6122" stroke-miterlimit="10" stroke-linecap="round" stroke-linejoin="round"/>
<path d="M108.344 46.8421C108.344 46.8421 122.547 49.2105 126.492 23.1579L113.341 12.6316L112.552 16.3158L108.344 46.8421Z" fill="#171E21"/>
<path d="M108.87 44.2105L103.873 42.8948C103.873 42.8948 107.555 27.1053 106.24 22.3684C104.662 16.579 109.659 -0.263135 121.494 5.26318C124.913 7.10529 128.858 7.89476 132.803 7.36844C133.855 7.10529 134.907 6.84213 135.96 6.57897C142.535 4.21055 147.795 -3.68419 159.893 2.6316C173.306 9.47371 179.092 30.7895 165.679 38.1579C157.526 42.6316 127.28 32.6316 123.335 27.3684L114.656 35.5263L108.87 44.2105Z" fill="#171E21"/>
<path d="M113.867 46.5791C112.815 51.0527 108.344 53.9475 103.873 52.8948C99.4015 51.8422 96.5085 47.3685 97.5605 42.8948C98.6125 38.4212 103.084 35.5264 107.555 36.5791C112.026 37.6317 114.919 42.1054 113.867 46.5791Z" fill="#F5BFA1"/>
</g>
<defs>
<clipPath id="clip0_9_124-851130">
<rect width="273" height="455" fill="white" transform="translate(-25)"/>
</clipPath>
</defs>
</svg>