<svg width="236" height="230" viewBox="0 0 256 250" fill="none" xmlns="http://www.w3.org/2000/svg">
<path opacity="0.5" d="M40.0926 45.158C59.5809 18.6727 97.0122 8.71394 129.121 25.455C146.677 34.5982 158.74 51.6398 176.64 60.3966C196.815 70.1837 219.651 78.4684 233.903 96.7119C249.055 116.114 252.232 143.587 242.831 166.209C231.327 193.724 201.064 197.974 174.45 207.46C65.5047 246.265 -41.9387 203.769 27.6012 76.4938C33.3532 65.8911 33.6966 53.9578 40.0926 45.158Z" fill="#CCE7F9"/>
<path d="M190.934 42.797C191.921 45.9735 192.909 49.193 193.896 52.3695C194.025 52.7987 194.153 53.2709 194.153 53.7002C194.111 55.0309 192.823 56.104 191.449 56.3616C190.075 56.6191 188.659 56.2328 187.328 55.8894C186.985 57.263 185.311 57.864 183.851 58.1215C177.455 59.2805 170.673 58.4649 164.749 55.8035C167.282 52.2836 169.385 48.4203 170.888 44.3853C175.91 44.5999 180.932 44.8145 185.955 45.0292C186.856 45.0721 187.757 45.115 188.573 44.8145C189.389 44.5141 190.161 43.8272 190.204 42.9687" fill="#01384F"/>
<path d="M157.066 74.8626C157.066 74.8626 152.086 85.1219 150.541 85.2078C139.809 85.8087 128.091 82.4176 128.091 82.4176L125.215 88.2126C125.215 88.2126 155.778 98.0426 162.217 88.8994C169.042 79.1982 168.698 77.6528 168.698 77.6528L157.066 74.8626Z" fill="#FACBB6"/>
<path d="M160.5 156.55C166.337 182.606 204.928 206.86 204.928 206.86L211.495 199.047C211.495 199.047 180.503 172.261 179.172 160.371C177.842 148.48 188.144 129.808 188.144 129.808L177.498 125.429L160.5 156.55Z" fill="#003340"/>
<path d="M173.549 61.5127C173.721 60.4396 173.292 55.9323 173.292 55.9323C173.292 55.9323 169.042 55.5031 168.784 51.4251C168.527 47.3472 168.784 37.9464 168.784 37.9464L176.511 34.2977L185.01 40.522L183.723 60.9117L173.549 61.5127Z" fill="#FACBB6"/>
<path d="M184.409 43.6556C184.409 43.6556 177.455 43.0117 176.253 36.9162L168.741 43.6556C168.741 43.6556 166.466 39.1483 170.63 34.9416C174.794 30.7349 177.67 31.5934 179.301 31.5934C180.847 31.5934 188.53 33.1817 190.848 41.681C191.02 42.2819 191.149 43.8273 191.277 44.5141L184.409 43.6556Z" fill="#01384F"/>
<path d="M173.334 55.9323C173.334 55.9323 176.168 55.9753 178.915 54.1295C178.915 54.1295 177.67 57.1343 173.42 56.9626L173.334 55.9323Z" fill="#EEC0AE"/>
<path d="M164.578 107.486C164.578 108.946 165.093 110.963 165.093 110.963L194.926 119.291C194.926 119.291 197.073 106.241 191.621 98.944C189.131 95.5958 189.689 90.9169 190.72 86.8819L194.239 73.1456L189.561 60.2679L170.759 61.5127C170.759 61.5127 159.856 60.4825 156.078 74.3905L163.075 84.5639L163.161 88.3843L164.578 107.486Z" fill="#AD4328"/>
<path d="M193.681 102.378C194.025 102.378 199.391 114.14 194.497 121.094C194.068 121.738 192.952 123.326 191.406 125.601C184.195 136.332 167.668 161.616 167.11 165.307C166.466 169.772 153.117 216.904 153.117 216.904L143.201 215.359L151.314 161.916L164.578 107.443L193.681 102.378Z" fill="#01384F"/>
<path d="M176.468 36.444C176.468 36.444 174.923 39.32 175.567 41.5093L168.827 43.1834C168.827 43.1834 167.282 34.8987 176.468 36.444Z" fill="#01384F"/>
<path d="M191.235 43.9131C191.235 43.9131 192.093 53.2709 183.894 54.988L184.452 43.6555L191.235 43.9131Z" fill="#01384F"/>
<path d="M157.28 71.5144L152.601 82.6322L163.118 87.7404L164.105 77.9962L157.28 71.5144Z" fill="#AD4328"/>
<path d="M186.427 60.4825L184.667 58.4221L176.983 60.2679L177.928 62.5L186.427 60.4825Z" fill="#F9B751"/>
<path d="M177.928 62.5L174.88 68.1662L174.794 62.5L175.094 60.7401H177.198L177.928 62.5Z" fill="#F6B69A"/>
<path d="M174.794 62.5L175.223 60.2679L173.334 59.5381L171.145 61.4698L174.794 62.5Z" fill="#F9B751"/>
<path d="M163.075 87.9121C163.075 87.9121 163.247 87.6545 163.204 87.1823C163.161 86.6672 162.861 85.9804 162.26 85.3365C161.702 84.6926 160.886 84.0058 160.671 82.9327C160.586 82.4176 160.586 81.8595 160.8 81.3015C160.972 80.7435 161.358 80.2713 161.873 79.9279C162.346 79.5845 162.904 79.4128 163.462 79.3698H163.633L163.676 79.1981C163.977 77.0518 164.363 75.1631 164.492 73.7895C164.621 72.4158 164.492 71.5573 164.449 71.6003C164.406 71.6003 164.406 72.4158 164.191 73.7895C164.02 75.1631 163.59 77.0089 163.247 79.1552L163.462 78.9835C162.818 79.0264 162.174 79.2411 161.659 79.6274C161.058 80.0137 160.628 80.6147 160.414 81.2156C160.199 81.8166 160.156 82.5034 160.285 83.0615C160.414 83.6624 160.714 84.1775 161.058 84.5639C161.401 84.9502 161.745 85.2936 162.045 85.5941C162.646 86.195 162.946 86.796 163.032 87.2682C163.118 87.6545 163.032 87.9121 163.075 87.9121Z" fill="#F9B751"/>
<path d="M163.075 73.1885C162.989 73.2744 163.247 73.7895 163.548 74.4334C163.848 75.0773 164.02 75.6353 164.148 75.5924C164.277 75.5924 164.32 74.9485 163.977 74.2617C163.676 73.5319 163.204 73.1027 163.075 73.1885Z" fill="#F9B751"/>
<path d="M152.258 82.6751C152.215 82.8039 154.576 84.0917 157.624 85.4224C160.671 86.796 163.247 87.6974 163.29 87.5687C163.333 87.4399 160.843 86.3667 157.795 84.9931C154.791 83.6624 152.301 82.5463 152.258 82.6751Z" fill="#F9B751"/>
<path d="M152.902 81.0869C152.859 81.2156 155.005 82.4176 157.709 83.8341C160.414 85.2507 162.689 86.2809 162.732 86.1521C162.775 86.0233 160.628 84.8214 157.924 83.4049C155.177 81.9883 152.945 80.9581 152.902 81.0869Z" fill="#F9B751"/>
<path d="M167.024 73.5319C167.024 73.6607 167.668 73.7895 168.441 73.8324C169.257 73.8753 169.9 73.8324 169.9 73.7036C169.9 73.5749 169.257 73.4461 168.484 73.4032C167.711 73.3602 167.024 73.4032 167.024 73.5319Z" fill="#F9B751"/>
<path d="M166.767 74.047C166.724 74.1758 167.453 74.4334 168.398 74.6909C169.342 74.9056 170.115 74.9914 170.158 74.8626C170.201 74.7339 169.471 74.4763 168.527 74.2188C167.582 74.0041 166.767 73.9183 166.767 74.047Z" fill="#F9B751"/>
<path d="M142.299 215.402C142.299 215.402 133.585 217.677 135.731 218.321C137.921 218.965 153.031 217.376 153.031 217.376L153.546 215.702L142.299 215.402Z" fill="#004970"/>
<path d="M153.073 217.333L156.121 209.263H142.728L142.299 215.402L153.073 217.333Z" fill="#004970"/>
<path d="M205.014 207.418C205.014 207.418 202.825 215.917 204.456 214.372C206.087 212.826 212.011 199.262 212.011 199.262L210.766 198.017L205.014 207.418Z" fill="#004970"/>
<path d="M212.011 199.262L206.216 192.737L199.734 204.069L205.014 207.418L212.011 199.262Z" fill="#004970"/>
<path d="M175.867 33.7826C175.867 33.7397 175.051 33.6968 173.807 34.0402C172.562 34.3836 170.888 35.1562 169.514 36.5728C168.14 37.9893 167.454 39.7064 167.196 40.9083C166.938 42.1531 167.067 42.9258 167.11 42.9258C167.196 42.9258 167.196 42.1531 167.539 40.9942C167.84 39.8352 168.57 38.2469 169.857 36.8733C171.145 35.4996 172.733 34.727 173.935 34.3407C175.094 33.9114 175.867 33.8685 175.867 33.7826Z" fill="#01384F"/>
<path d="M185.525 48.8067C185.483 48.1198 185.483 47.433 185.74 46.7891C185.998 46.1453 186.556 45.5872 187.242 45.5443C188.058 45.4584 188.831 46.1023 188.959 46.875C189.088 47.6477 188.616 48.4633 187.929 48.8496C187.242 49.2359 186.341 49.2359 185.611 48.8925" fill="#FACBB6"/>
<path d="M180.761 108.001C180.761 108.001 180.374 70.3554 181.748 67.4794C181.748 67.4794 183.164 60.3966 188.745 60.2679L186.255 60.4396C186.255 60.4396 181.19 60.0962 179.73 69.7545C178.271 79.4128 178.357 108.302 178.357 108.302L180.761 108.001Z" fill="#074559"/>
<path d="M169.943 109.332C169.943 109.332 168.441 66.0628 169.6 61.5127H168.097C168.097 61.5127 166.767 65.2472 167.024 75.5924C167.196 81.8166 167.024 109.332 167.024 109.332H169.943V109.332Z" fill="#074559"/>
<path d="M158.997 89.4145C158.997 89.4145 152.73 92.6769 151.356 92.6339C149.983 92.591 146.076 92.5052 146.463 92.9773C146.892 93.4066 151.356 94.0505 151.356 94.0505L158.997 89.4145Z" fill="#EDBFAE"/>
<path d="M159.426 96.2826C159.426 96.2826 189.131 102.807 193.209 92.2476C197.545 81.044 197.588 83.9629 197.588 83.9629L188.273 76.6226C188.273 76.6226 183.25 89.5433 181.877 89.8438C174.064 91.4749 165.179 90.4447 162.088 89.9725C161.744 89.715 161.315 89.4574 160.843 89.0711C160.457 88.7706 160.113 88.3843 159.856 87.9979C159.555 87.5258 159.169 86.8819 159.126 86.4526C159.04 85.9375 158.267 85.7658 157.967 86.1951C157.709 86.5814 157.881 87.9979 158.954 89.3716C158.954 89.3716 151.872 93.1061 151.313 94.0076L159.426 96.2826Z" fill="#EDBFAE"/>
<path d="M189.56 60.2679C189.56 60.2679 197.459 61.7273 197.802 73.7895C198.145 85.8516 193.08 95.0378 193.08 95.0378L179.687 88.2555L189.56 60.2679Z" fill="#AD4328"/>
<path d="M179.687 88.3414C179.644 88.3843 180.46 88.7277 181.705 89.3287C182.95 89.8867 184.667 90.6594 186.556 91.6037C188.401 92.5481 190.075 93.4495 191.277 94.1363C192.479 94.8232 193.209 95.2524 193.252 95.1666C193.295 95.1236 192.608 94.6085 191.449 93.8359C190.29 93.1061 188.659 92.1188 186.77 91.1745C184.881 90.2301 183.121 89.5004 181.834 88.9853C180.546 88.5131 179.73 88.2984 179.687 88.3414Z" fill="#F9B751"/>
<path d="M180.245 87.4828C180.245 87.5258 181.018 87.8262 182.263 88.2984C183.508 88.7706 185.225 89.4574 187.113 90.3589C188.959 91.2174 190.59 92.1188 191.749 92.7627C192.908 93.4066 193.638 93.8359 193.681 93.7929C193.724 93.75 193.037 93.2349 191.921 92.5052C190.805 91.7754 189.174 90.8311 187.285 89.9725C185.396 89.114 183.636 88.4272 182.349 88.0409C181.104 87.5687 180.288 87.397 180.245 87.4828Z" fill="#F9B751"/>
<path d="M184.109 74.5192C184.237 74.5192 184.452 73.5319 184.366 72.2442C184.28 70.9564 183.851 70.012 183.722 70.0549C183.594 70.0979 183.765 71.0852 183.894 72.2871C183.98 73.489 183.937 74.4763 184.109 74.5192Z" fill="#F9B751"/>
<path d="M179.73 88.2984C179.773 88.3413 180.331 87.4399 181.018 85.8946C181.748 84.3922 182.606 82.2459 183.379 79.7991C184.109 77.3523 184.581 75.0773 184.839 73.4461C185.096 71.772 185.139 70.7418 185.096 70.7418C185.01 70.7418 184.839 71.772 184.538 73.3602C184.195 74.9914 183.68 77.2236 182.95 79.6703C182.22 82.1171 181.362 84.2634 180.761 85.7658C180.074 87.3111 179.645 88.2555 179.73 88.2984Z" fill="#F9B751"/>
<path d="M105.941 118.089C106.327 118.432 107.014 118.218 107.315 117.745C107.615 117.316 107.615 116.758 107.658 116.2C107.744 110.491 107.358 104.696 106.284 99.1157C105.34 101.477 106.027 105.168 106.027 107.744C105.984 111.221 105.984 114.655 105.941 118.089Z" fill="#9ED7EF"/>
<path d="M44.8146 120.622C44.6429 120.149 44.557 119.677 44.6858 119.205C44.8146 118.733 45.2867 118.389 45.7589 118.475C46.0594 118.561 46.317 118.819 46.4887 119.076C47.0467 119.806 47.5618 120.579 48.034 121.351C47.2184 120.021 46.7033 118.475 46.6174 116.93C46.5745 116.501 46.6174 116.028 46.9609 115.771C47.476 115.428 48.1628 115.943 48.5491 116.458C49.1501 117.316 49.6223 118.261 49.9227 119.248C49.6223 117.617 49.751 115.9 50.2232 114.311C50.3949 113.796 50.6095 113.281 50.9959 112.981C51.8115 112.38 53.0563 112.852 53.6144 113.71C54.1724 114.569 54.2153 115.642 54.2582 116.629C54.4729 115.385 55.0309 114.183 55.8894 113.238C56.1041 112.981 56.4045 112.723 56.7479 112.723C57.263 112.723 57.6065 113.281 57.7782 113.753C58.2503 114.998 58.3791 116.415 58.1645 117.745C58.465 116.372 59.3235 115.127 60.4825 114.354C60.8688 114.097 61.2981 113.925 61.7273 113.882C62.8005 113.882 63.6161 114.955 63.659 116.028C63.7019 117.102 63.2297 118.132 62.7576 119.076C63.4014 117.316 64.6892 115.814 66.2775 114.912C66.6638 114.698 67.136 114.526 67.5223 114.741C67.737 114.869 67.8228 115.127 67.9087 115.385C68.1662 116.501 67.8228 117.745 67.0072 118.561C67.5223 117.745 68.2091 116.801 69.1535 116.93C70.0979 117.016 70.613 118.175 70.4413 119.076C70.2696 120.021 69.5828 120.75 68.9389 121.437C69.3252 120.75 70.5271 121.222 70.6559 121.995C70.7847 122.768 70.2696 123.498 69.7974 124.141C69.4111 124.657 69.0247 125.172 68.4667 125.472C68.0804 125.687 67.694 125.773 67.2648 125.858C62.8005 126.846 58.1216 126.932 53.6573 126.116C49.9227 125.472 46.2311 124.828 44.8146 120.622Z" fill="#FED17A"/>
<path d="M45.2438 122.253C45.158 121.781 45.158 121.265 45.3726 120.836C45.8019 120.021 46.9609 119.806 47.8194 120.106C48.6779 120.407 49.3647 121.094 50.0086 121.781C50.1803 120.407 48.9354 118.99 49.5793 117.788C49.751 117.445 50.0944 117.187 50.4378 117.016C52.2837 116.071 54.9021 117.531 55.0738 119.591C55.3743 118.389 55.7606 117.102 56.8338 116.501C57.6923 116.028 58.8942 116.243 59.5381 116.973C60.182 117.703 60.2679 118.904 59.6669 119.72C60.8259 118.561 62.3712 117.831 64.0024 117.66C64.3458 117.617 64.6892 117.617 64.9897 117.745C66.1058 118.175 66.1487 119.763 65.977 120.965C65.977 120.063 66.9643 119.377 67.8657 119.591C68.7243 119.806 69.3681 120.664 69.454 121.523C69.5398 122.424 69.2394 123.326 68.7672 124.056C68.3808 124.657 67.9087 125.215 67.2218 125.429C66.8784 125.558 66.4921 125.558 66.1058 125.558C61.9849 125.644 57.864 125.773 53.7002 125.644C50.7813 125.601 45.9736 126.159 45.2438 122.253Z" fill="#AD4328"/>
<path d="M123.025 107.443C123.025 107.486 123.025 107.529 123.025 107.615C123.025 113.067 123.197 118.647 120.622 123.455C118.003 128.262 114.397 132.469 111.908 137.32C110.534 140.024 109.504 142.9 107.701 145.347C112.036 144.231 115.471 140.883 118.003 137.148C123.841 128.563 125.73 117.445 123.025 107.443Z" fill="#FED17A"/>
<path d="M104.825 102.035C104.224 113.882 102.378 125.687 102.55 137.534C102.593 140.324 102.764 143.243 104.052 145.733C107.014 135.989 110.019 125.944 109.16 115.771C108.903 112.509 108.216 109.332 107.83 106.113C107.315 101.863 107.615 93.3637 103.838 90.4447C104.739 94.351 105.04 97.9996 104.825 102.035Z" fill="#FED17A"/>
<path d="M101.52 146.635C102.593 145.261 102.421 143.286 102.206 141.569C100.489 128.176 98.8152 114.784 97.0982 101.391C96.7119 98.386 96.3255 95.2953 94.8661 92.6339C92.5051 106.885 93.8788 121.781 98.8152 135.345C100.232 139.294 101.992 143.243 101.906 147.407C99.545 148.437 96.7119 147.751 94.6085 146.248C92.5051 144.746 91.0027 142.6 89.672 140.41C87.0965 136.161 79.5845 125.901 80.6147 120.879C84.3492 123.884 88.6847 130.065 91.6466 133.929C94.9519 138.135 98.2143 142.385 101.52 146.635Z" fill="#FED17A"/>
<path d="M94.6944 92.3334C95.2095 109.804 96.0251 127.747 103.151 143.673C106.585 125.687 109.933 106.585 103.537 89.4145C115.513 104.739 116.844 127.576 106.799 144.231C112.337 139.809 117.23 134.487 120.364 128.134C123.498 121.781 124.785 114.397 123.111 107.529C127.275 118.089 125.901 130.666 119.591 140.11C115.943 145.561 110.105 150.197 103.537 149.94C96.5831 149.639 91.0886 144.059 86.796 138.565C82.8039 133.456 79.0265 127.146 80.5718 120.836C84.1346 126.803 85.9375 133.843 90.5306 139.08C92.6769 141.569 97.5704 145.905 100.919 145.347C99.8455 141.398 96.2826 137.448 94.6944 133.456C92.9344 129.121 91.7754 124.528 91.1745 119.892C89.9725 110.62 91.0886 101.004 94.6944 92.3334Z" fill="#AD4328"/>
<path d="M51.4682 140.024H64.5605C65.7625 140.024 66.8356 139.08 67.0502 137.835L70.3126 126.459H45.759L49.0214 137.835C49.1931 139.08 50.2662 140.024 51.4682 140.024Z" fill="#004970"/>
<path d="M122.854 181.748H79.6274V192.737H122.854V181.748Z" fill="#01384F"/>
<path d="M123.841 213.127H121.909V182.692H80.5718V213.127H78.6831V180.804H123.841V213.127Z" fill="#D9D9D9"/>
<path d="M122.854 217.548C122.854 217.548 118.819 217.806 122.854 211.152C126.889 217.591 122.854 217.548 122.854 217.548Z" fill="#C6C6C5"/>
<path d="M122.897 204.456H36.4011V206.344H122.897V204.456Z" fill="#D9D9D9"/>
<path d="M122.854 191.793H79.6274V193.681H122.854V191.793Z" fill="#D9D9D9"/>
<path d="M122.639 178.271H79.6274V185.268H122.639C124.571 185.268 126.116 183.723 126.116 181.791C126.116 179.816 124.571 178.271 122.639 178.271Z" fill="#2A94F4"/>
<path d="M79.6274 143.544H36.4011V154.533H79.6274V143.544Z" fill="#01384F"/>
<path d="M80.5718 213.127H78.6831V144.488H37.3455V213.127H35.4138V142.6H80.5718V213.127Z" fill="#D9D9D9"/>
<path d="M36.4013 217.548C36.4013 217.548 32.3662 217.806 36.4013 211.152C40.4363 217.591 36.4013 217.548 36.4013 217.548Z" fill="#C6C6C5"/>
<path d="M79.6276 217.548C79.6276 217.548 75.5926 217.806 79.6276 211.152C83.6626 217.591 79.6276 217.548 79.6276 217.548Z" fill="#C6C6C5"/>
<path d="M79.6274 153.589H36.4011V155.477H79.6274V153.589Z" fill="#D9D9D9"/>
<path d="M36.9573 160.059L35.8162 161.564L79.0491 194.347L80.1903 192.842L36.9573 160.059Z" fill="#D9D9D9"/>
<path d="M79.0455 160.056L35.8125 192.839L36.9537 194.344L80.1866 161.561L79.0455 160.056Z" fill="#D9D9D9"/>
<path d="M79.5416 139.166H36.487C34.5553 139.166 33.01 140.711 33.01 142.643C33.01 144.574 34.5553 146.119 36.487 146.119H79.5416C81.4733 146.119 83.0186 144.574 83.0186 142.643C83.0186 140.711 81.4733 139.166 79.5416 139.166Z" fill="#2A94F4"/>
<path d="M94.6086 177.97H113.11C114.827 177.97 116.329 176.64 116.63 174.837L121.266 147.965H86.4956L91.1316 174.837C91.4321 176.64 92.8916 177.97 94.6086 177.97Z" fill="#004970"/>
<path d="M121.223 150.841H86.4956C85.4224 150.841 84.521 149.94 84.521 148.867V147.021C84.521 145.948 85.4224 145.046 86.4956 145.046H121.223C122.296 145.046 123.197 145.948 123.197 147.021V148.867C123.197 149.94 122.339 150.841 121.223 150.841Z" fill="#01384F"/>
<path d="M71.128 128.606H44.8574C44.0418 128.606 43.355 127.919 43.355 127.103V125.687C43.355 124.871 44.0418 124.184 44.8574 124.184H71.128C71.9436 124.184 72.6304 124.871 72.6304 125.687V127.103C72.6304 127.919 71.9436 128.606 71.128 128.606Z" fill="#01384F"/>
<path d="M125.859 90.6593C123.626 89.114 120.75 89.1569 118.389 90.4018C115.213 92.1188 113.754 95.5958 114.698 99.0728C114.827 99.502 114.397 99.8884 113.968 99.7596C112.68 99.4591 111.564 98.6435 110.234 98.3001C108.774 97.9138 107.186 98.1284 105.898 98.944C105.855 99.2015 105.855 99.4591 105.941 99.7167C105.941 99.8025 105.984 99.8884 106.027 99.9742C106.8 99.7167 107.615 99.4591 108.345 99.7167C108.946 99.9313 109.375 100.403 109.804 100.876C111.994 103.322 114.269 105.726 116.501 108.173C117.703 109.461 119.463 109.933 121.137 109.461L128.391 107.272C130.065 106.756 131.181 105.383 131.525 103.795C131.654 103.108 131.611 102.378 131.396 101.648L129.336 94.866C128.52 93.1919 127.361 91.6895 125.859 90.6593ZM120.493 91.0886C124.743 89.8008 126.803 94.6943 126.803 94.6943L116.415 97.8708C116.415 97.8708 115.041 92.7627 120.493 91.0886Z" fill="#2A94F4"/>
<path d="M131.439 103.752C131.139 105.34 129.98 106.714 128.305 107.229L121.051 109.418C119.377 109.933 117.617 109.418 116.415 108.13C114.183 105.683 111.908 103.279 109.719 100.833C109.289 100.361 108.86 99.8454 108.259 99.6737C107.529 99.4162 106.671 99.6737 105.941 99.9313C105.898 99.8454 105.855 99.7596 105.855 99.6737C105.898 99.6308 105.898 99.6308 105.941 99.6308C107.229 98.901 109.075 99.3303 110.277 100.017C111.822 100.919 112.938 102.378 114.011 103.795C115.041 105.211 116.157 106.714 117.617 107.658C118.046 107.958 118.561 108.173 119.076 108.302C119.72 108.431 120.407 108.345 121.051 108.259C122.983 107.915 124.871 107.315 126.717 106.756C128.134 106.327 129.593 105.812 130.58 104.696C130.967 104.438 131.181 104.095 131.439 103.752Z" fill="#23557D"/>
<path d="M128.692 82.5034C127.189 82.2888 125.687 82.0742 124.184 81.9024C123.326 81.7737 122.467 81.6878 121.652 81.8595C119.634 82.3317 118.475 84.3921 117.531 86.238C116.844 87.6116 116.243 89.5003 117.187 90.6164C118.003 90.1013 119.033 89.8008 119.935 89.5432C120.192 89.4574 120.922 88.9852 121.265 88.8564C122.038 89.5862 120.793 91.3891 122.081 91.7325C125.472 89.5862 129.293 86.7531 129.378 82.718L128.692 82.5034Z" fill="#FACBB6"/>
</svg>