<svg width="14" height="14" viewBox="0 0 14 14" fill="none" xmlns="http://www.w3.org/2000/svg">
<g clip-path="url(#clip0_10_3007-142352)">
<path d="M10.8572 3.14285C10.9361 3.13901 11.0151 3.13708 11.0943 3.13708C11.6149 3.13708 12.1227 3.22018 12.6026 3.37997C13.1052 2.70503 13.3769 1.89006 13.3769 1.03333C13.3769 0.806885 13.1933 0.623169 12.9668 0.623169C12.0885 0.623169 11.2767 0.912094 10.6208 1.3998C10.7801 1.87906 10.863 2.38609 10.863 2.90584C10.863 2.98499 10.8611 3.06403 10.8572 3.14285Z" fill="white"/>
<path d="M3.99828 9.99643C3.9015 9.89944 3.81018 9.79926 3.72356 9.69629L0.120163 13.2998C-0.0400543 13.4599 -0.0400543 13.7197 0.120163 13.8798C0.200272 13.9599 0.305161 13.9999 0.410156 13.9999C0.515152 13.9999 0.620041 13.9599 0.70015 13.8798L4.30344 10.2765C4.1993 10.1887 4.09825 10.0964 4.00095 9.99899C4.00009 9.99814 3.99913 9.99728 3.99828 9.99643Z" fill="white"/>
<path d="M8.88058 3.71928C8.93378 3.95587 8.96806 4.19513 8.98483 4.43503L10.0109 3.40921C10.0319 3.24344 10.0427 3.07542 10.0427 2.9057C10.0427 1.8535 9.63297 0.864212 8.88892 0.120163C8.8119 0.0431518 8.70766 0 8.59882 0C8.49008 0 8.38573 0.0431518 8.30882 0.120163C7.96126 0.467728 7.68675 0.868805 7.49268 1.30481C7.53177 1.33546 7.56947 1.36826 7.60504 1.40393C8.24228 2.04117 8.6833 2.84183 8.88058 3.71928Z" fill="white"/>
<path d="M13.8798 5.11118C13.1357 4.36713 12.1464 3.9574 11.0942 3.9574C10.9245 3.9574 10.7564 3.96819 10.5907 3.98933L9.56714 5.0128C10.7116 5.09227 11.7769 5.57591 12.596 6.39505C12.6317 6.43073 12.6645 6.46832 12.6951 6.50731C13.1288 6.31441 13.5279 6.04172 13.8742 5.69672C13.9142 5.65826 13.9466 5.61148 13.9687 5.55818C14.0322 5.40491 13.9971 5.22856 13.8798 5.11118Z" fill="white"/>
<path d="M7.12317 6.29646L8.14365 5.27609C8.29414 4.10597 7.92169 2.88084 7.0249 1.98405C6.94789 1.90715 6.84354 1.86389 6.7348 1.86389C6.62607 1.86389 6.52161 1.90715 6.4447 1.98416C6.09233 2.33653 5.82103 2.73964 5.63037 3.1702C5.66882 3.20042 5.70589 3.23279 5.74092 3.26793C6.56006 4.08696 7.0437 5.15198 7.12317 6.29646Z" fill="white"/>
<path d="M9.23053 5.82129C9.0607 5.82129 8.89258 5.83208 8.72681 5.85323L7.70312 6.87669C8.84772 6.95616 9.91284 7.4398 10.732 8.25883C10.7677 8.29451 10.8007 8.33221 10.8313 8.37131C11.2672 8.17734 11.6683 7.90273 12.016 7.55516C12.0929 7.47826 12.1361 7.3739 12.1361 7.26517C12.1361 7.15633 12.0929 7.05208 12.016 6.97517C11.2719 6.23102 10.2827 5.82129 9.23053 5.82129Z" fill="white"/>
<path d="M6.31501 6.63348C6.31501 5.58118 5.90518 4.59189 5.16113 3.84795C5.08102 3.76784 4.97602 3.72778 4.87114 3.72778C4.76614 3.72778 4.66114 3.76784 4.58114 3.84795C3.14314 5.28584 3.0515 7.56808 4.306 9.11375L6.28307 7.13667C6.30412 6.97101 6.31501 6.8031 6.31501 6.63348Z" fill="white"/>
<path d="M7.36655 7.68506C7.19672 7.68506 7.02849 7.69595 6.86272 7.717L4.88574 9.69397C5.58525 10.2632 6.45192 10.5727 7.36644 10.5728H7.36676C8.41875 10.5728 9.40793 10.1631 10.152 9.41904C10.229 9.34213 10.2721 9.23767 10.2721 9.12894C10.2721 9.0202 10.229 8.91585 10.152 8.83894C9.40793 8.09479 8.41875 7.68506 7.36655 7.68506Z" fill="white"/>
</g>
<defs>
<clipPath id="clip0_10_3007-142352">
<rect width="14" height="14" fill="white"/>
</clipPath>
</defs>
</svg>